<svg id="Layer_1" data-name="Layer 1" xmlns="http://www.w3.org/2000/svg" viewBox="0 0 162 162"><defs><style>.cls-1{opacity:.75}.cls-2{fill:#fff}.cls-3{fill:#052f5f}.cls-4{fill:#1b325e}.cls-5{fill:#b3dd1d}</style></defs><title>accountant-avatar-stat</title><circle class="cls-1 cls-2" cx="81" cy="81" r="81"/><path class="cls-3" d="M4031 1926.33h-86a2 2 0 0 1-2-2v-120a2 2 0 0 1 2-2h86a2 2 0 0 1 2 2v120a2 2 0 0 1-2 2zm-84-4h82v-116h-82v116z" transform="translate(-3907 -1784)"/><path class="cls-3" d="M46 27.67h70v15.67H46z"/><path class="cls-3" d="M4023 1829.33h-70a2 2 0 0 1-2-2v-15.67a2 2 0 0 1 2-2h70a2 2 0 0 1 2 2v15.67a2 2 0 0 1-2 2zm-68-4h66v-11.67h-66v11.67z" transform="translate(-3907 -1784)"/><path class="cls-4" d="M46 51h13v15.97H46z"/><path class="cls-3" d="M3966 1853h-13a2 2 0 0 1-2-2v-16a2 2 0 0 1 2-2h13a2 2 0 0 1 2 2v16a2 2 0 0 1-2 2zm-11-4h9v-12h-9v12z" transform="translate(-3907 -1784)"/><path class="cls-4" d="M65 51h13v15.97H65z"/><path class="cls-3" d="M3985 1853h-13a2 2 0 0 1-2-2v-16a2 2 0 0 1 2-2h13a2 2 0 0 1 2 2v16a2 2 0 0 1-2 2zm-11-4h9v-12h-9v12z" transform="translate(-3907 -1784)"/><path class="cls-4" d="M84 51h13v15.97H84z"/><path class="cls-3" d="M4004 1853h-13a2 2 0 0 1-2-2v-16a2 2 0 0 1 2-2h13a2 2 0 0 1 2 2v16a2 2 0 0 1-2 2zm-11-4h9v-12h-9v12z" transform="translate(-3907 -1784)"/><path class="cls-4" d="M103 51h13v15.97h-13z"/><path class="cls-3" d="M4023 1853h-13a2 2 0 0 1-2-2v-16a2 2 0 0 1 2-2h13a2 2 0 0 1 2 2v16a2 2 0 0 1-2 2zm-11-4h9v-12h-9v12z" transform="translate(-3907 -1784)"/><path class="cls-4" d="M46 72.97h13v15.97H46z"/><path class="cls-3" d="M3966 1874.94h-13a2 2 0 0 1-2-2v-16a2 2 0 0 1 2-2h13a2 2 0 0 1 2 2v16a2 2 0 0 1-2 2zm-11-4h9v-12h-9v12z" transform="translate(-3907 -1784)"/><path class="cls-4" d="M65 72.97h13v15.97H65z"/><path class="cls-3" d="M3985 1874.94h-13a2 2 0 0 1-2-2v-16a2 2 0 0 1 2-2h13a2 2 0 0 1 2 2v16a2 2 0 0 1-2 2zm-11-4h9v-12h-9v12z" transform="translate(-3907 -1784)"/><path class="cls-4" d="M84 72.97h13v15.97H84z"/><path class="cls-3" d="M4004 1874.94h-13a2 2 0 0 1-2-2v-16a2 2 0 0 1 2-2h13a2 2 0 0 1 2 2v16a2 2 0 0 1-2 2zm-11-4h9v-12h-9v12z" transform="translate(-3907 -1784)"/><path class="cls-4" d="M103 72.97h13v15.97h-13z"/><path class="cls-3" d="M4023 1874.94h-13a2 2 0 0 1-2-2v-16a2 2 0 0 1 2-2h13a2 2 0 0 1 2 2v16a2 2 0 0 1-2 2zm-11-4h9v-12h-9v12z" transform="translate(-3907 -1784)"/><path class="cls-4" d="M46 94.94h13v15.97H46z"/><path class="cls-3" d="M3966 1896.92h-13a2 2 0 0 1-2-2v-16a2 2 0 0 1 2-2h13a2 2 0 0 1 2 2v16a2 2 0 0 1-2 2zm-11-4h9v-12h-9v12z" transform="translate(-3907 -1784)"/><path class="cls-4" d="M65 94.94h13v15.97H65z"/><path class="cls-3" d="M3985 1896.92h-13a2 2 0 0 1-2-2v-16a2 2 0 0 1 2-2h13a2 2 0 0 1 2 2v16a2 2 0 0 1-2 2zm-11-4h9v-12h-9v12z" transform="translate(-3907 -1784)"/><path class="cls-4" d="M84 94.94h13v15.97H84z"/><path class="cls-3" d="M4004 1896.92h-13a2 2 0 0 1-2-2v-16a2 2 0 0 1 2-2h13a2 2 0 0 1 2 2v16a2 2 0 0 1-2 2zm-11-4h9v-12h-9v12z" transform="translate(-3907 -1784)"/><path class="cls-4" d="M46 116.92h24.67v15.97H46z"/><path class="cls-3" d="M3977.67 1918.89H3953a2 2 0 0 1-2-2v-16a2 2 0 0 1 2-2h24.67a2 2 0 0 1 2 2v16a2 2 0 0 1-2 2zm-22.67-4h20.67v-12H3955v12z" transform="translate(-3907 -1784)"/><path class="cls-4" d="M65 116.92h13v15.97H65z"/><path class="cls-3" d="M3985 1918.89h-13a2 2 0 0 1-2-2v-16a2 2 0 0 1 2-2h13a2 2 0 0 1 2 2v16a2 2 0 0 1-2 2zm-11-4h9v-12h-9v12z" transform="translate(-3907 -1784)"/><path class="cls-4" d="M84 116.92h13v15.97H84z"/><path class="cls-3" d="M4004 1918.89h-13a2 2 0 0 1-2-2v-16a2 2 0 0 1 2-2h13a2 2 0 0 1 2 2v16a2 2 0 0 1-2 2zm-11-4h9v-12h-9v12z" transform="translate(-3907 -1784)"/><path class="cls-5" d="M103 94.92h13v37.97h-13z"/><path class="cls-5" d="M4023 1918.89h-13a2 2 0 0 1-2-2v-38a2 2 0 0 1 2-2h13a2 2 0 0 1 2 2v38a2 2 0 0 1-2 2zm-11-4h9v-34h-9v34zm-16.9-100.18h-4.24l-.43 2.86a5.93 5.93 0 0 1 .91-.07 4.7 4.7 0 0 1 2.39.6 3.17 3.17 0 0 1 1.59 2.86 3.86 3.86 0 0 1-4.14 3.8 5.44 5.44 0 0 1-2.77-.68l.38-1.15a5 5 0 0 0 2.38.62 2.45 2.45 0 0 0 2.63-2.41c0-1.44-1-2.46-3.2-2.46a11.44 11.44 0 0 0-1.54.12l.72-5.34h5.32v1.27zm9.53 4.18c0 3.78-1.4 5.87-3.87 5.87-2.17 0-3.64-2-3.68-5.71s1.61-5.78 3.87-5.78 3.68 2.08 3.68 5.62zm-6 .17c0 2.89.89 4.53 2.26 4.53 1.54 0 2.28-1.8 2.28-4.64s-.7-4.53-2.26-4.53c-1.36 0-2.31 1.58-2.31 4.64zm14.78-.17c0 3.78-1.4 5.87-3.87 5.87-2.17 0-3.64-2-3.68-5.71s1.61-5.78 3.87-5.78 3.68 2.08 3.68 5.62zm-6 .17c0 2.89.89 4.53 2.26 4.53 1.54 0 2.28-1.8 2.28-4.64s-.7-4.53-2.26-4.53c-1.36 0-2.32 1.58-2.32 4.64zm14.78-.17c0 3.78-1.4 5.87-3.87 5.87-2.17 0-3.64-2-3.68-5.71s1.61-5.78 3.87-5.78 3.68 2.08 3.68 5.62zm-6 .17c0 2.89.89 4.53 2.26 4.53 1.54 0 2.28-1.8 2.28-4.64s-.7-4.53-2.26-4.53c-1.36 0-2.32 1.58-2.32 4.64z" transform="translate(-3907 -1784)"/></svg>