<svg id="Layer_1" data-name="Layer 1" xmlns="http://www.w3.org/2000/svg" viewBox="0 0 825.42 86.56"><defs><style>.cls-1{fill:#fff}.cls-2{fill:#052f5f}</style></defs><title>accountant</title><path class="cls-1" d="M3633.14 2058.93H3598l-6.5 12.78h-14.21l38.23-76.45 38.23 76.45h-14.21zm-28.86-12.67h22.47l-11.24-22.47zm95.07-51a37 37 0 0 1 14.82 3 38.85 38.85 0 0 1 12.17 8.26l-9 9a24.5 24.5 0 0 0-18-7.49 24.89 24.89 0 0 0-9.91 2 25.58 25.58 0 0 0-8.1 5.45 26.37 26.37 0 0 0-5.51 8.1 25.14 25.14 0 0 0 0 19.83 26.86 26.86 0 0 0 5.45 8.1 24.77 24.77 0 0 0 8.1 5.45 25.29 25.29 0 0 0 10 2 24.91 24.91 0 0 0 18-7.38l9 8.92a38.85 38.85 0 0 1-12.17 8.26 38.2 38.2 0 0 1-29.69-.05 39.71 39.71 0 0 1-12.17-8.21 38.56 38.56 0 0 1-8.26-12.12 37.62 37.62 0 0 1 0-29.58 39 39 0 0 1 20.44-20.49 36.78 36.78 0 0 1 14.83-3.05zm77.11 0a37 37 0 0 1 14.82 3 38.85 38.85 0 0 1 12.17 8.26l-9 9a24.5 24.5 0 0 0-18-7.49 24.89 24.89 0 0 0-9.91 2 25.58 25.58 0 0 0-8.1 5.45 26.37 26.37 0 0 0-5.51 8.1 25.14 25.14 0 0 0 0 19.83 26.86 26.86 0 0 0 5.45 8.1 24.77 24.77 0 0 0 8.1 5.45 25.29 25.29 0 0 0 10 2 24.91 24.91 0 0 0 18-7.38l9 8.92a38.85 38.85 0 0 1-12.17 8.26 38.2 38.2 0 0 1-29.69-.05 39.71 39.71 0 0 1-12.17-8.21 38.56 38.56 0 0 1-8.26-12.12 37.62 37.62 0 0 1 0-29.58 39 39 0 0 1 20.44-20.49 36.78 36.78 0 0 1 14.83-3.05zm77.01 0a38.55 38.55 0 0 1 38.34 38.23 36.17 36.17 0 0 1-11.35 27 38.17 38.17 0 1 1-26.99-65.23zm0 12.78a25.47 25.47 0 1 0 25.45 25.45 25.58 25.58 0 0 0-25.45-25.49zm124.04 31.84a30.78 30.78 0 0 1-9.36 22.58 31.78 31.78 0 0 1-54.31-22.58v-44.62h12.67v44.62a18.28 18.28 0 0 0 5.51 13.44 18.46 18.46 0 0 0 13.55 5.62 19.37 19.37 0 0 0 19.17-19.06v-44.62h12.78v44.62zm22.03-44.73l50.89 45.83v-45.83h12.78v76.56l-51-45.83v45.72h-12.67v-76.45zm85.71.11H4149V2008h-25.45v63.67h-12.75V2008h-25.56v-12.78zm115.34 63.67h-35.14l-6.5 12.78h-14.21l38.23-76.45 38.23 76.45H4207zm-28.86-12.67h22.47l-11.2-22.47zm71.49-51.11l50.89 45.83v-45.83h12.78v76.56l-51-45.83v45.72h-12.67v-76.45zm85.7.11h63.78V2008h-25.45v63.67h-12.78V2008h-25.56v-12.78z" transform="translate(-3575.29 -1990.15)"/><path class="cls-2" d="M3618.52 1995.26l38.23 76.45h-14.21l-6.39-12.78H3601l-6.5 12.78h-14.21l38.23-76.45m-11.24 51h22.47l-11.24-22.47-11.24 22.47m11.24-56a5 5 0 0 0-4.51 2.74l-38.23 76.45a5 5 0 0 0 4.47 7.24h14.21a5 5 0 0 0 4.55-2.69l5.11-10h29l5 10a5 5 0 0 0 4.47 2.76h14.21a5 5 0 0 0 4.47-7.24L3623 1993a5 5 0 0 0-4.47-2.76zm-3.15 51l3.15-6.29 3.15 6.29h-6.29zm86.99-46a37 37 0 0 1 14.82 3 38.85 38.85 0 0 1 12.17 8.26l-9 9a24.5 24.5 0 0 0-18-7.49 24.89 24.89 0 0 0-9.91 2 25.58 25.58 0 0 0-8.1 5.45 26.37 26.37 0 0 0-5.51 8.1 25.14 25.14 0 0 0 0 19.83 26.86 26.86 0 0 0 5.45 8.1 24.77 24.77 0 0 0 8.1 5.45 25.29 25.29 0 0 0 10 2 24.91 24.91 0 0 0 18-7.38l9 8.92a38.85 38.85 0 0 1-12.17 8.26 38.2 38.2 0 0 1-29.69-.05 39.71 39.71 0 0 1-12.17-8.21 38.56 38.56 0 0 1-8.26-12.12 37.62 37.62 0 0 1 0-29.58 39 39 0 0 1 20.44-20.49 36.78 36.78 0 0 1 14.87-3m0-5a41.91 41.91 0 0 0-16.87 3.45 44 44 0 0 0-23 23.09 42.62 42.62 0 0 0 0 33.57 43.7 43.7 0 0 0 9.33 13.67 44.87 44.87 0 0 0 13.69 9.24 43.2 43.2 0 0 0 33.67.06 44 44 0 0 0 13.73-9.32 5 5 0 0 0 0-7.09l-9-8.92a5 5 0 0 0-7 0 19.92 19.92 0 0 1-14.47 6 20.43 20.43 0 0 1-8-1.59 19.91 19.91 0 0 1-6.48-4.36 22 22 0 0 1-4.44-6.61 20.14 20.14 0 0 1 0-15.8 21.51 21.51 0 0 1 4.47-6.58 20.72 20.72 0 0 1 6.53-4.39 20 20 0 0 1 7.94-1.58 19.52 19.52 0 0 1 14.42 6 5 5 0 0 0 7.07 0l9-9a5 5 0 0 0 0-7.07 44 44 0 0 0-13.73-9.32 42.09 42.09 0 0 0-16.8-3.38zm77.07 4.95a37 37 0 0 1 14.82 3 38.85 38.85 0 0 1 12.17 8.26l-9 9a24.5 24.5 0 0 0-18-7.49 24.89 24.89 0 0 0-9.91 2 25.58 25.58 0 0 0-8.1 5.45 26.37 26.37 0 0 0-5.51 8.1 25.14 25.14 0 0 0 0 19.83 26.86 26.86 0 0 0 5.45 8.1 24.77 24.77 0 0 0 8.1 5.45 25.29 25.29 0 0 0 10 2 24.91 24.91 0 0 0 18-7.38l9 8.92a38.85 38.85 0 0 1-12.17 8.26 38.2 38.2 0 0 1-29.69-.05 39.71 39.71 0 0 1-12.17-8.21 38.56 38.56 0 0 1-8.26-12.12 37.62 37.62 0 0 1 0-29.58 39 39 0 0 1 20.44-20.49 36.78 36.78 0 0 1 14.87-3m0-5a41.91 41.91 0 0 0-16.87 3.45 44 44 0 0 0-23 23.09 42.62 42.62 0 0 0 0 33.57 43.7 43.7 0 0 0 9.33 13.67 44.87 44.87 0 0 0 13.69 9.24 43.2 43.2 0 0 0 33.67.06A44 44 0 0 0 3810 2064a5 5 0 0 0 0-7.09l-9-8.92a5 5 0 0 0-7 0 19.92 19.92 0 0 1-14.47 6 20.43 20.43 0 0 1-8-1.59 19.91 19.91 0 0 1-6.53-4.4 22 22 0 0 1-4.44-6.61 20.14 20.14 0 0 1 0-15.8 21.51 21.51 0 0 1 4.44-6.59 20.72 20.72 0 0 1 6.53-4.39 20 20 0 0 1 7.94-1.58 19.52 19.52 0 0 1 14.42 6 5 5 0 0 0 7.07 0l9-9a5 5 0 0 0 0-7.07 44 44 0 0 0-13.73-9.32 42.09 42.09 0 0 0-16.8-3.38z" transform="translate(-3575.29 -1990.15)"/><path class="cls-2" d="M3856.47 1995.26a38.55 38.55 0 0 1 38.34 38.23 36.17 36.17 0 0 1-11.35 27 38.17 38.17 0 1 1-27-65.22m0 63.67a25.47 25.47 0 1 0-25.45-25.45 25.2 25.2 0 0 0 25.45 25.45m0-68.67a41.32 41.32 0 0 0-30.54 12.72A43.17 43.17 0 1 0 3887 2064a41.15 41.15 0 0 0 12.83-30.54 43.55 43.55 0 0 0-43.34-43.23zm-14.53 28.81a19.86 19.86 0 0 1 14.53-6 20.58 20.58 0 0 1 20.45 20.45 20.45 20.45 0 1 1-35-14.42zm138.58-23.82v44.62a30.78 30.78 0 0 1-9.36 22.58 31.78 31.78 0 0 1-54.31-22.58v-44.62h12.67v44.62a18.28 18.28 0 0 0 5.51 13.44 18.46 18.46 0 0 0 13.55 5.62 19.37 19.37 0 0 0 19.17-19.06v-44.62h12.78m0-5h-12.78a5 5 0 0 0-5 5v44.62a13.24 13.24 0 0 1-4.23 9.87l-.07.07a13.18 13.18 0 0 1-9.87 4.12 13.53 13.53 0 0 1-10-4.15 13.35 13.35 0 0 1-4-9.9v-44.62a5 5 0 0 0-5-5h-12.67a5 5 0 0 0-5 5v44.62a36.18 36.18 0 0 0 10.68 26.08l.08.08a37 37 0 0 0 52 0 35.74 35.74 0 0 0 10.83-26.12v-44.62a5 5 0 0 0-5-5zm85.7 4.89v76.56l-51-45.83v45.72h-12.67v-76.45l50.89 45.83v-45.83h12.78m-63.67-5a5 5 0 0 0-5 5v76.45a5 5 0 0 0 5 5h12.67a5 5 0 0 0 5-5v-34.5l42.66 38.33a5 5 0 0 0 8.34-3.72v-76.56a5 5 0 0 0-5-5h-12.78a5 5 0 0 0-5 5v34.6l-42.55-38.31a5 5 0 0 0-3.35-1.28zm149.45 5.11V2008h-25.45v63.67h-12.75V2008h-25.56v-12.78H4152m0-5h-63.78a5 5 0 0 0-5 5V2008a5 5 0 0 0 5 5h20.56v58.67a5 5 0 0 0 5 5h12.78a5 5 0 0 0 5-5V2013H4152a5 5 0 0 0 5-5v-12.78a5 5 0 0 0-5-5zm34 5.04l38.23 76.45H4210l-6.39-12.78h-35.14l-6.5 12.78h-14.21l38.23-76.45m-11.24 51h22.47l-11.22-22.47-11.24 22.47m11.24-56a5 5 0 0 0-4.47 2.76l-38.23 76.45a5 5 0 0 0 4.47 7.24h14.21a5 5 0 0 0 4.46-2.73l5.11-10h29l5 10a5 5 0 0 0 4.47 2.76h14.21a5 5 0 0 0 4.47-7.24l-38.27-76.5a5 5 0 0 0-4.47-2.76zm-3.15 51l3.15-6.26 3.15 6.29h-6.29zm127.04-46.11v76.56l-51-45.83v45.72h-12.67v-76.45l50.89 45.83v-45.83h12.78m-63.67-5a5 5 0 0 0-5 5v76.45a5 5 0 0 0 5 5h12.67a5 5 0 0 0 5-5v-34.5l42.66 38.33a5 5 0 0 0 8.34-3.72v-76.56a5 5 0 0 0-5-5h-12.78a5 5 0 0 0-5 5v34.6l-42.55-38.31a5 5 0 0 0-3.35-1.28zm149.49 5.11V2008h-25.45v63.67h-12.78V2008h-25.56v-12.78h63.78m0-5h-63.78a5 5 0 0 0-5 5V2008a5 5 0 0 0 5 5h20.56v58.67a5 5 0 0 0 5 5h12.78a5 5 0 0 0 5-5V2013h20.45a5 5 0 0 0 5-5v-12.78a5 5 0 0 0-5-5z" transform="translate(-3575.29 -1990.15)"/></svg>