<svg id="Layer_1" data-name="Layer 1" xmlns="http://www.w3.org/2000/svg" viewBox="0 0 115 115"><defs><style>.cls-1{opacity:.35}.cls-2{fill:#757779}.cls-3{fill:#fff}.cls-4{fill:#b3dd1d}.cls-5{fill:none;stroke:#052f5f;stroke-linecap:round;stroke-linejoin:round;stroke-width:4px}.cls-6{fill:#052f5f}</style></defs><title>accountant-exam</title><circle class="cls-1 cls-2" cx="57.5" cy="57.5" r="57.5"/><path class="cls-3" d="M22.88 11.65h64.41V95H22.88z"/><path class="cls-4" d="M23.51 12.34h10.94v83H23.51zm13.51 0h2.79v83h-2.79z"/><path class="cls-5" d="M22.88 12.41h64.41v83.35H22.88z"/><path class="cls-5" transform="rotate(91.1 3245.989 -468.148)" d="M3875.01 2690.68h5.58v51.9h-5.58z"/><path class="cls-5" d="M78.07 103.44l-.09 5.58"/><path class="cls-6" d="M3851.51 2711.39s-11 3.48-11 4.6 11.05 5 11.05 5v-9.58z" transform="translate(-3819.5 -2610.75)"/><path class="cls-4" transform="rotate(91.1 3242.5 -468.08)" d="M3871.51 2694.25h5.58v44.89h-5.58z"/><path class="cls-6" d="M3893.09 2650.53l7.17-4.66c-3.28 8.53-24.11 14.09-33.05 8.64l2.74-7.53-.22-.28-5.2 2.85c1-1.09 1.68-2 2.53-2.81 3-2.68 6.6-4 10.42-4.81a32.28 32.28 0 0 1 14.75-.18c3.4.83 3.4.84 2.21 4-.56 1.5-1.09 3-1.63 4.51zm-21.58-9.03c.65-1.5 1.27-3 2-4.51a2.1 2.1 0 0 1 2.81-1.18c2.47.84 4.92 1.74 7.36 2.79a35.85 35.85 0 0 0-11.89 3.13zm19.43 14.5c-.65 1.53-1.29 3.12-2 4.69a1.42 1.42 0 0 1-1.86.71c-2.37-.71-4.73-1.48-7.07-2.23z" transform="translate(-3819.5 -2610.75)" id="QD1FHJ.tif"/></svg>