<svg id="Layer_1" data-name="Layer 1" xmlns="http://www.w3.org/2000/svg" viewBox="0 0 162 162"><defs><style>.cls-1{fill:#fff}.cls-2{fill:#052f5f}.cls-3{fill:#1b325e}.cls-4{fill:#ff8948}</style></defs><title>accountant-avatar</title><circle class="cls-1" cx="81" cy="81" r="81"/><path class="cls-2" d="M1036.25 1201h-86a2 2 0 0 1-2-2v-120a2 2 0 0 1 2-2h86a2 2 0 0 1 2 2v120a2 2 0 0 1-2 2zm-84-4h82v-116h-82v116z" transform="translate(-912.25 -1058)"/><path class="cls-2" d="M46 28.33h70V44H46z"/><path class="cls-2" d="M1028.25 1104h-70a2 2 0 0 1-2-2v-15.67a2 2 0 0 1 2-2h70a2 2 0 0 1 2 2V1102a2 2 0 0 1-2 2zm-68-4h66v-11.67h-66V1100z" transform="translate(-912.25 -1058)"/><path class="cls-3" d="M46 51.67h13v15.97H46z"/><path class="cls-2" d="M971.25 1127.64h-13a2 2 0 0 1-2-2v-16a2 2 0 0 1 2-2h13a2 2 0 0 1 2 2v16a2 2 0 0 1-2 2zm-11-4h9v-12h-9v12z" transform="translate(-912.25 -1058)"/><path class="cls-3" d="M65 51.67h13v15.97H65z"/><path class="cls-2" d="M990.25 1127.64h-13a2 2 0 0 1-2-2v-16a2 2 0 0 1 2-2h13a2 2 0 0 1 2 2v16a2 2 0 0 1-2 2zm-11-4h9v-12h-9v12z" transform="translate(-912.25 -1058)"/><path class="cls-3" d="M84 51.67h13v15.97H84z"/><path class="cls-2" d="M1009.25 1127.64h-13a2 2 0 0 1-2-2v-16a2 2 0 0 1 2-2h13a2 2 0 0 1 2 2v16a2 2 0 0 1-2 2zm-11-4h9v-12h-9v12z" transform="translate(-912.25 -1058)"/><path class="cls-3" d="M103 51.67h13v15.97h-13z"/><path class="cls-2" d="M1028.25 1127.64h-13a2 2 0 0 1-2-2v-16a2 2 0 0 1 2-2h13a2 2 0 0 1 2 2v16a2 2 0 0 1-2 2zm-11-4h9v-12h-9v12z" transform="translate(-912.25 -1058)"/><path class="cls-3" d="M46 73.64h13v15.97H46z"/><path class="cls-2" d="M971.25 1149.61h-13a2 2 0 0 1-2-2v-16a2 2 0 0 1 2-2h13a2 2 0 0 1 2 2v16a2 2 0 0 1-2 2zm-11-4h9v-12h-9v12z" transform="translate(-912.25 -1058)"/><path class="cls-3" d="M65 73.64h13v15.97H65z"/><path class="cls-2" d="M990.25 1149.61h-13a2 2 0 0 1-2-2v-16a2 2 0 0 1 2-2h13a2 2 0 0 1 2 2v16a2 2 0 0 1-2 2zm-11-4h9v-12h-9v12z" transform="translate(-912.25 -1058)"/><path class="cls-3" d="M84 73.64h13v15.97H84z"/><path class="cls-2" d="M1009.25 1149.61h-13a2 2 0 0 1-2-2v-16a2 2 0 0 1 2-2h13a2 2 0 0 1 2 2v16a2 2 0 0 1-2 2zm-11-4h9v-12h-9v12z" transform="translate(-912.25 -1058)"/><path class="cls-3" d="M103 73.64h13v15.97h-13z"/><path class="cls-2" d="M1028.25 1149.61h-13a2 2 0 0 1-2-2v-16a2 2 0 0 1 2-2h13a2 2 0 0 1 2 2v16a2 2 0 0 1-2 2zm-11-4h9v-12h-9v12z" transform="translate(-912.25 -1058)"/><path class="cls-3" d="M46 95.61h13v15.97H46z"/><path class="cls-2" d="M971.25 1171.58h-13a2 2 0 0 1-2-2v-16a2 2 0 0 1 2-2h13a2 2 0 0 1 2 2v16a2 2 0 0 1-2 2zm-11-4h9v-12h-9v12z" transform="translate(-912.25 -1058)"/><path class="cls-3" d="M65 95.61h13v15.97H65z"/><path class="cls-2" d="M990.25 1171.58h-13a2 2 0 0 1-2-2v-16a2 2 0 0 1 2-2h13a2 2 0 0 1 2 2v16a2 2 0 0 1-2 2zm-11-4h9v-12h-9v12z" transform="translate(-912.25 -1058)"/><path class="cls-3" d="M84 95.61h13v15.97H84z"/><path class="cls-2" d="M1009.25 1171.58h-13a2 2 0 0 1-2-2v-16a2 2 0 0 1 2-2h13a2 2 0 0 1 2 2v16a2 2 0 0 1-2 2zm-11-4h9v-12h-9v12z" transform="translate(-912.25 -1058)"/><path class="cls-3" d="M46 117.58h24.67v15.97H46z"/><path class="cls-2" d="M982.92 1193.55h-24.67a2 2 0 0 1-2-2v-16a2 2 0 0 1 2-2h24.67a2 2 0 0 1 2 2v16a2 2 0 0 1-2 2zm-22.67-4h20.67v-12h-20.67v12z" transform="translate(-912.25 -1058)"/><path class="cls-3" d="M65 117.58h13v15.97H65z"/><path class="cls-2" d="M990.25 1193.55h-13a2 2 0 0 1-2-2v-16a2 2 0 0 1 2-2h13a2 2 0 0 1 2 2v16a2 2 0 0 1-2 2zm-11-4h9v-12h-9v12z" transform="translate(-912.25 -1058)"/><path class="cls-3" d="M84 117.58h13v15.97H84z"/><path class="cls-2" d="M1009.25 1193.55h-13a2 2 0 0 1-2-2v-16a2 2 0 0 1 2-2h13a2 2 0 0 1 2 2v16a2 2 0 0 1-2 2zm-11-4h9v-12h-9v12z" transform="translate(-912.25 -1058)"/><path class="cls-4" d="M103 95.58h13v37.97h-13z"/><path class="cls-4" d="M1028.25 1193.55h-13a2 2 0 0 1-2-2v-38a2 2 0 0 1 2-2h13a2 2 0 0 1 2 2v38a2 2 0 0 1-2 2zm-11-4h9v-34h-9v34zm-16.9-100.17h-4.24l-.43 2.86a5.93 5.93 0 0 1 .91-.07 4.7 4.7 0 0 1 2.39.6 3.17 3.17 0 0 1 1.59 2.86 3.86 3.86 0 0 1-4.14 3.8 5.44 5.44 0 0 1-2.77-.68l.38-1.15a5 5 0 0 0 2.38.62 2.45 2.45 0 0 0 2.63-2.41c0-1.44-1-2.46-3.2-2.46a11.44 11.44 0 0 0-1.54.12l.72-5.34h5.32v1.27zm9.53 4.17c0 3.78-1.4 5.87-3.87 5.87-2.17 0-3.64-2-3.68-5.71s1.61-5.78 3.87-5.78 3.68 2.07 3.68 5.62zm-6 .17c0 2.89.89 4.53 2.26 4.53 1.54 0 2.28-1.8 2.28-4.64s-.7-4.53-2.26-4.53c-1.36.01-2.31 1.62-2.31 4.65zm14.78-.17c0 3.78-1.4 5.87-3.87 5.87-2.17 0-3.64-2-3.68-5.71s1.61-5.78 3.87-5.78 3.68 2.07 3.68 5.62zm-6 .17c0 2.89.89 4.53 2.26 4.53 1.54 0 2.28-1.8 2.28-4.64s-.7-4.53-2.26-4.53c-1.36.01-2.32 1.62-2.32 4.65zm14.78-.17c0 3.78-1.4 5.87-3.87 5.87-2.17 0-3.64-2-3.68-5.71s1.61-5.78 3.87-5.78 3.68 2.07 3.68 5.62zm-6 .17c0 2.89.89 4.53 2.26 4.53 1.54 0 2.28-1.8 2.28-4.64s-.7-4.53-2.26-4.53c-1.36.01-2.32 1.62-2.32 4.65z" transform="translate(-912.25 -1058)"/></svg>