<svg id="Layer_1" data-name="Layer 1" xmlns="http://www.w3.org/2000/svg" viewBox="0 0 120.31 115"><defs><style>.cls-1{opacity:.22}.cls-2{fill:#052f5f}.cls-3,.cls-4{fill:#fff;stroke:#052f5f;stroke-linecap:round;stroke-linejoin:round;stroke-width:4px}.cls-4{fill:#b3dd1d}</style></defs><title>actor-chat</title><circle class="cls-1 cls-2" cx="61.87" cy="57.5" r="57.5"/><path class="cls-3" d="M3898.09 5528.57h-22.88c-2.17 4.13 0 8.54 3.07 13-6.12-3-10.62-7-11.87-13h-26.35a8.32 8.32 0 0 1-8.32-8.32v-23.57a8.32 8.32 0 0 1 8.32-8.32h58a8.32 8.32 0 0 1 8.32 8.32v23.57a8.32 8.32 0 0 1-8.29 8.32z" transform="translate(-3788.1 -5444.24)"/><path class="cls-4" d="M3798.41 5502.45h13.89c2.17 4.13 0 8.54-3.07 13 6.12-3 10.62-7 11.87-13h35.33a8.32 8.32 0 0 0 8.32-8.32v-23.57a8.32 8.32 0 0 0-8.32-8.32h-58a8.32 8.32 0 0 0-8.32 8.32v23.57a8.32 8.32 0 0 0 8.3 8.32z" transform="translate(-3788.1 -5444.24)"/><circle class="cls-2" cx="21.65" cy="38.15" r="4.32"/><circle class="cls-2" cx="39.33" cy="38.15" r="4.32"/><circle class="cls-2" cx="57.01" cy="38.15" r="4.32"/><circle class="cls-2" cx="63.29" cy="66.44" r="4.32"/><circle class="cls-2" cx="80.98" cy="66.44" r="4.32"/><circle class="cls-2" cx="98.66" cy="66.44" r="4.32"/></svg>