<svg id="Layer_1" data-name="Layer 1" xmlns="http://www.w3.org/2000/svg" viewBox="0 0 115 115"><defs><style>.cls-1{opacity:.22}.cls-2{fill:#052f5f}.cls-3{fill:#fff;stroke:#052f5f;stroke-linecap:round;stroke-linejoin:round;stroke-width:4px}</style></defs><title>actor-sag</title><circle class="cls-1 cls-2" cx="57.5" cy="57.5" r="57.5"/><path class="cls-3" d="M18.98 17.35h77.05v80.3H18.98z"/><g id="DlHRpv.tif"><path class="cls-2" d="M3865.2 6053.51a2.14 2.14 0 0 1-2.51-.84c-1.39-2.05-2.72-4.15-4.06-6.24a6.83 6.83 0 0 0-.65-1 67.44 67.44 0 0 0 1.35 28.24 1.86 1.86 0 0 1-2.77-1.06 39.13 39.13 0 0 1-2.41-7.13c-.69-3.47-.95-7-1.39-10.58-4.4 6.54-9 13.09-9.14 21.53-1.49.28-2.52-.27-2.7-1.78a15.64 15.64 0 0 1 .08-4.43 29.1 29.1 0 0 1 3.6-9.64c2.29-4 4.8-7.8 7.26-11.66 1.13-1.77 2.38-3.45 3.53-5.2a14.32 14.32 0 0 0 1.19-2.26c1.29-3 .6-5.16-2.2-6.91l-1.21-.74.09-.28a5.1 5.1 0 0 1 .87 0 5.59 5.59 0 0 1 4.62 4.45 50.39 50.39 0 0 0 5.88 14.55c.14.32.37.61.57.98z" transform="translate(-3792.47 -5987.28)"/><path class="cls-2" d="M3846.45 6013.71c-.39 2.48-.86 4.84-1.12 7.23a15 15 0 0 0 2.14 9.4 15.9 15.9 0 0 1 2.43 6.86 5.57 5.57 0 0 0 1.37 2.58c2.22 2.88 2 4.24-1 6.36-.64.45-1.29.88-2 1.3-2.21 1.4-3.72 3.2-3.51 6a3.9 3.9 0 0 1-.51-2.8 7.06 7.06 0 0 1 3.18-5 17.73 17.73 0 0 0 1.9-1.37 1.65 1.65 0 0 0 .17-2.68c-.39-.46-.82-.89-1.24-1.32a5.84 5.84 0 0 1-1.54-3.53 13.27 13.27 0 0 0-1.09-3.64 28.11 28.11 0 0 1-2.62-7.62 21.2 21.2 0 0 1 .95-9.46 3 3 0 0 1 2.49-2.31z" transform="translate(-3792.47 -5987.28)"/><path class="cls-2" d="M3848.92 6028.46c1.19-1.63 3.24-2.58 4.71-2.16a2.5 2.5 0 0 1 1.93 2.18c.27 2-.86 3.33-2.61 4.52.11-1.06.24-1.94.28-2.82.08-1.73-.52-2.16-2.19-1.68-.68.19-1.37.73-2.12-.04z" transform="translate(-3792.47 -5987.28)"/></g></svg>