<svg id="Layer_1" data-name="Layer 1" xmlns="http://www.w3.org/2000/svg" viewBox="0 0 115 115"><defs><style>.cls-1{opacity:.22}.cls-2{fill:#1b325e}.cls-3{fill:#fff}.cls-4{fill:#1a325e}.cls-5{fill:#b3d334}</style></defs><title>actor-film</title><circle class="cls-1 cls-2" cx="57.5" cy="57.5" r="57.5"/><path class="cls-3" d="M95.53 84.81L77.64 66.92l17.89-17.9v35.79z"/><path class="cls-4" d="M344 426.57a2 2 0 0 1-1.41-.59l-17.9-17.9a2 2 0 0 1 0-2.83l17.9-17.9a2 2 0 0 1 3.41 1.41v35.79a2 2 0 0 1-2 2.02zm-15-19.89l13 13.07v-26.14z" transform="translate(-248.5 -339.76)"/><rect class="cls-3" x="21.03" y="48.6" width="61.18" height="39.54" rx="5.69" ry="5.69"/><path class="cls-4" d="M325 429.9h-49.8a7.7 7.7 0 0 1-7.69-7.69v-28.16a7.7 7.7 0 0 1 7.69-7.69H325a7.7 7.7 0 0 1 7.69 7.69v28.16a7.7 7.7 0 0 1-7.69 7.69zm-49.8-39.54a3.69 3.69 0 0 0-3.69 3.69v28.16a3.69 3.69 0 0 0 3.69 3.69H325a3.69 3.69 0 0 0 3.69-3.69v-28.16a3.69 3.69 0 0 0-3.69-3.69h-49.8z" transform="translate(-248.5 -339.76)"/><circle class="cls-3" cx="67.23" cy="30.71" r="17.9"/><path class="cls-4" d="M315.73 390.36a19.9 19.9 0 1 1 19.9-19.9 19.92 19.92 0 0 1-19.9 19.9zm0-35.79a15.9 15.9 0 1 0 15.9 15.9 15.91 15.91 0 0 0-15.9-15.9z" transform="translate(-248.5 -339.76)"/><circle class="cls-3" cx="34.77" cy="35.28" r="13.09"/><path class="cls-4" d="M283.27 390.14A15.09 15.09 0 1 1 298.36 375a15.11 15.11 0 0 1-15.09 15.14zm0-26.19A11.09 11.09 0 1 0 294.36 375a11.1 11.1 0 0 0-11.09-11z" transform="translate(-248.5 -339.76)"/><path class="cls-4" d="M52.03 78.22h23.25v5H52.03z"/><circle class="cls-5" cx="75.03" cy="55.72" r="3.56"/><circle class="cls-4" cx="67.23" cy="30.71" r="3.56"/><circle class="cls-4" cx="34.77" cy="35.28" r="3.56"/><path class="cls-4" d="M315.73 385.79a15.32 15.32 0 1 1 15.32-15.32 15.34 15.34 0 0 1-15.32 15.32zm0-26.65a11.32 11.32 0 1 0 11.32 11.32 11.34 11.34 0 0 0-11.32-11.32zm-32.25 27.13a11.06 11.06 0 1 1 11.06-11.06 11.07 11.07 0 0 1-11.06 11.06zm0-18.11a7.06 7.06 0 1 0 7.06 7.06 7.06 7.06 0 0 0-7.06-7.06z" transform="translate(-248.5 -339.76)"/></svg>