<svg id="Layer_1" data-name="Layer 1" xmlns="http://www.w3.org/2000/svg" viewBox="0 0 758.22 88.44"><defs><style>.cls-1{fill:#fff}.cls-2{fill:#052f5f}</style></defs><title>actor</title><path class="cls-1" d="M3575.86 4868.61v46.91h-13v-78.44l39.22 39.22 39.33-39.22v78.44h-13.22v-46.91l-26.11 26.22zm127.38-31.53a39.56 39.56 0 0 1 39.33 39.22 37.11 37.11 0 0 1-11.64 27.69 39.16 39.16 0 1 1-27.69-66.91zm0 13.11a26.13 26.13 0 1 0 26.11 26.11 26.24 26.24 0 0 0-26.11-26.11zm61.26-13.11l24.64 49.17 24.64-49.17h14.58l-39.22 78.44-39.22-78.44h14.58zm86.5 0h13v78.44h-13v-78.44zm87.78 0v13.11h-39.22v19.67h39.22v13h-39.22v19.55h39.22v13.11h-52.22v-78.44h52.22zm79.79 45.78a22.86 22.86 0 0 1-16.16-39 21.59 21.59 0 0 1 16.16-6.78h42.5v13.11h-42.5a10.11 10.11 0 0 0-3.84.73 9.47 9.47 0 0 0-5.26 5.26 10 10 0 0 0 2.09 10.74 9.32 9.32 0 0 0 7 2.94h19.55a22.83 22.83 0 1 1 0 45.66h-42.38v-13.11h42.38a10.09 10.09 0 0 0 3.84-.73 9.91 9.91 0 0 0 3.16-2 8.86 8.86 0 0 0 2.09-3.11 10.12 10.12 0 0 0 .74-3.84 9.44 9.44 0 0 0-2.94-6.89 9.2 9.2 0 0 0-6.89-2.94h-19.55zm65.1-45.78h65.44v13.11H4123v65.33h-13.11v-65.33h-26.22v-13.11zm118.33 65.33h-36l-6.67 13.11h-14.58l39.22-78.44 39.22 78.44h-14.58zm-29.61-13h23.06l-11.53-23.06zm123.61 26.11l-15.15-26.11h-22.15v26.11h-13v-78.44h39.3a26.15 26.15 0 0 1 9.95 50.3l16.16 28.14h-15zm-11-65.33h-26.22v26l26.22.11a12.5 12.5 0 0 0 9.16-3.84 12.63 12.63 0 0 0 3.84-9.27 13.12 13.12 0 0 0-13-13z" transform="translate(-3559.86 -4832.08)"/><path class="cls-2" d="M3643.41 4837.08v78.44h-13.22v-46.91l-26.11 26.22-26.22-26.22v46.91h-13v-78.44l39.22 39.22 39.33-39.22m-78.55-5a5 5 0 0 0-5 5v78.44a5 5 0 0 0 5 5h13a5 5 0 0 0 5-5v-34.83l17.69 17.69a5 5 0 0 0 3.54 1.46 5 5 0 0 0 3.54-1.47l17.57-17.64v34.8a5 5 0 0 0 5 5h13.22a5 5 0 0 0 5-5v-78.44a5 5 0 0 0-8.53-3.54l-35.8 35.69-35.69-35.69a5 5 0 0 0-3.54-1.46zm140.38 5a39.56 39.56 0 0 1 39.33 39.22 37.11 37.11 0 0 1-11.64 27.69 39.16 39.16 0 1 1-27.69-66.91m0 65.33a26.13 26.13 0 1 0-26.11-26.11 25.86 25.86 0 0 0 26.11 26.11m0-70.33a42.27 42.27 0 0 0-31.26 13 44.16 44.16 0 1 0 62.47 62.44 42.09 42.09 0 0 0 13.12-31.24 44.56 44.56 0 0 0-44.33-44.22zm-15 29.33a20.5 20.5 0 0 1 15-6.22 21.24 21.24 0 0 1 21.11 21.11 21.11 21.11 0 1 1-36.11-14.89zm140.12-24.33l-39.22 78.44-39.22-78.44h14.58l24.64 49.17 24.64-49.17h14.58m0-5h-14.58a5 5 0 0 0-4.47 2.76l-20.17 40.25-20.14-40.25a5 5 0 0 0-4.47-2.76h-14.58a5 5 0 0 0-4.47 7.24l39.22 78.44a5 5 0 0 0 8.94 0l39.15-78.29a5 5 0 0 0-4.39-7.38zm0 10zm35.64-5v78.44h-13v-78.44h13m0-5h-13a5 5 0 0 0-5 5v78.44a5 5 0 0 0 5 5h13a5 5 0 0 0 5-5v-78.44a5 5 0 0 0-5-5zm74.78 5v13.11h-39.22v19.67h39.22v13h-39.22v19.55h39.22v13.11h-52.22v-78.44h52.22m0-5h-52.22a5 5 0 0 0-5 5v78.44a5 5 0 0 0 5 5h52.22a5 5 0 0 0 5-5v-13.11a5 5 0 0 0-5-5h-34.22v-9.55h34.22a5 5 0 0 0 5-5v-13a5 5 0 0 0-5-5h-34.22v-9.67h34.22a5 5 0 0 0 5-5v-13.11a5 5 0 0 0-5-5zm122.29 5v13.11h-42.5a10.11 10.11 0 0 0-3.84.73 9.47 9.47 0 0 0-5.26 5.26 10 10 0 0 0 2.09 10.74 9.32 9.32 0 0 0 7 2.94h19.55a22.83 22.83 0 1 1 0 45.66h-42.38v-13.11h42.38a10.09 10.09 0 0 0 3.84-.73 9.91 9.91 0 0 0 3.16-2 8.86 8.86 0 0 0 2.09-3.11 10.12 10.12 0 0 0 .74-3.84 9.44 9.44 0 0 0-2.94-6.89 9.2 9.2 0 0 0-6.89-2.94h-19.55a22.86 22.86 0 0 1-16.16-39 21.59 21.59 0 0 1 16.16-6.78h42.5m0-5h-42.5a26.51 26.51 0 0 0-19.73 8.28 27.83 27.83 0 0 0 19.73 47.5h19.55a4.2 4.2 0 0 1 3.29 1.4l.07.07a4.48 4.48 0 0 1 1.48 3.36 5.11 5.11 0 0 1-.37 2 3.88 3.88 0 0 1-.92 1.38 4.91 4.91 0 0 1-1.59 1 5.1 5.1 0 0 1-2 .37h-42.38a5 5 0 0 0-5 5v13.11a5 5 0 0 0 5 5h42.38a27.83 27.83 0 1 0 0-55.66h-19.55a4.37 4.37 0 0 1-3.4-1.4 5 5 0 0 1-1.07-5.39 4.47 4.47 0 0 1 2.51-2.51 5.11 5.11 0 0 1 2-.37h42.5a5 5 0 0 0 5-5v-13.11a5 5 0 0 0-5-5zm88.05 4.96v13.11H4125v65.33h-13.11v-65.33h-26.22v-13.11h65.44m0-5h-65.44a5 5 0 0 0-5 5v13.11a5 5 0 0 0 5 5h21.22v60.33a5 5 0 0 0 5 5H4125a5 5 0 0 0 5-5v-60.33h21.11a5 5 0 0 0 5-5v-13.11a5 5 0 0 0-5-5zm34.82 5l39.22 78.44h-14.58l-6.56-13.11H4168l-6.67 13.11h-14.58l39.22-78.44m-11.53 52.33h23.06l-11.53-23.06-11.53 23.06m11.53-57.33a5 5 0 0 0-4.47 2.76l-39.22 78.44a5 5 0 0 0 4.47 7.24h14.58a5 5 0 0 0 4.46-2.73l5.28-10.38h29.9l5.17 10.35a5 5 0 0 0 4.47 2.76h14.58a5 5 0 0 0 4.47-7.24l-39.22-78.44a5 5 0 0 0-4.47-2.76zm-3.44 52.33l3.44-6.88 3.44 6.88h-6.88zm104.47-47.33a26.15 26.15 0 0 1 9.95 50.3l16.16 28.14h-15l-15.15-26.11h-22.15v26.11h-13v-78.44H4287m0 39.22a12.5 12.5 0 0 0 9.16-3.84 12.63 12.63 0 0 0 3.84-9.27 13.12 13.12 0 0 0-13-13h-26.22v26l26.22.11m0-44.22h-39.22a5 5 0 0 0-5 5v78.44a5 5 0 0 0 5 5h13a5 5 0 0 0 5-5v-21.11H4280l13.7 23.62a5 5 0 0 0 4.32 2.49h15a5 5 0 0 0 4.34-7.49l-13.57-23.63a31.05 31.05 0 0 0 8.72-8.56 31.14 31.14 0 0 0-25.59-48.75zm-21.22 23.11H4287a8.12 8.12 0 0 1 8 8 7.65 7.65 0 0 1-2.38 5.73 7.52 7.52 0 0 1-5.61 2.38l-21.23-.09v-16z" transform="translate(-3559.86 -4832.08)"/></svg>