<svg id="Layer_1" data-name="Layer 1" xmlns="http://www.w3.org/2000/svg" viewBox="0 0 607.76 186.02"><defs><style>.cls-1{fill:#b3dd1d}.cls-2{fill:#052f5f}.cls-3{fill:#201d1d}.cls-4{fill:#fff}</style></defs><title>actor-power</title><path class="cls-1" d="M3686.73 7408.69c27.67 0 43.59 13.6 43.59 37.72 0 25.35-15.92 40-43.59 40h-19.63v30.45h-27.52v-108.17h47.15zm-19.63 56.12h18.24c12.06 0 19-6 19-17.47 0-11.28-7-17-19-17h-18.24v34.47zm187.51-2.17c0 31.54-25 55.5-58.59 55.5-33.39 0-58.43-23.8-58.43-55.5 0-31.54 25-54.88 58.43-54.88 33.54 0 58.59 23.5 58.59 54.88zm-88.89.15c0 18.24 14.07 32.31 30.61 32.31 16.7 0 30-14.07 30-32.31s-13.29-32-30-32-30.61 13.76-30.61 32.01zM3961 7516.9l-20.1-74.82-20.41 74.82H3892l-35.4-108.21h29.4l21.18 79.61 20.71-79.61h26.9l21.21 79.61 20.87-79.61H4025l-35.71 108.21H3961zm101.21-86.57v21.49h51.63v21.64h-51.63v21.79h58.9v21.64h-86.41v-108.2h84.71v21.64h-57.2zm125.79 56.12h-21.6v30.45h-27.52v-108.21h48.39c28.6 0 45 13.6 45 37.72 0 16.54-7 28.44-19.63 34.78l22.72 35.71h-31.23zm-.77-21.64c11.9 0 18.86-6 18.86-17.47 0-11.28-7-17-18.86-17h-20.83v34.47h20.87z" transform="translate(-3638.58 -7338.12)"/><path class="cls-2" d="M3700 7359.13l21 20.95h-9.84l-18.11-18v18h-6.94v-41.9h6.89v18.05l18.11-18.05h9.89zm33-21.01l27.89 25.12v-25.12h7v42L3740 7355v25h-7v-41.9zm68 .06a21.13 21.13 0 0 1 21 21 19.82 19.82 0 0 1-6.22 14.79 20.92 20.92 0 1 1-14.78-35.79zm0 7a14 14 0 1 0 13.95 13.95 14 14 0 0 0-13.95-13.95zm32.69-7l13.22 26.26 13.1-26.26 13.16 26.26 13.16-26.26h7.79l-21 41.9-13.12-26.26-13.1 26.26-21-41.9h7.79zm72.51 0h6.94v34.9h20.95v7h-27.89v-41.9zm67.85 0v7h-20.95v10.51h20.95v6.94h-20.95v10.45h20.95v7h-27.89v-41.9h27.89zm12.08 0h13.95a21 21 0 0 1 0 41.9h-13.95v-41.9zm13.95 34.9a13.95 13.95 0 0 0 0-27.89h-7v27.89h7zm53.92-34.9a20.49 20.49 0 0 1 8.15 1.63 21.18 21.18 0 0 1 6.7 4.53l-5 5a13.3 13.3 0 0 0-9.84-4.11 13.95 13.95 0 1 0 5.83 26.65 14.12 14.12 0 0 0 4.68-3.47v-5.74H4054v-6.94h17.51v15a22.74 22.74 0 0 1-3.35 3.86 21.35 21.35 0 0 1-4.13 3 20.6 20.6 0 0 1-10 2.57 21 21 0 0 1-.03-41.98zm57.52 0v7h-20.95v10.51h20.95v6.94h-20.95v10.45h20.95v7h-27.89v-41.9h27.89zm30.43 0h6.94v41.9h-6.94v-41.9zm31.21 24.45a12.21 12.21 0 0 1-8.63-20.83 11.54 11.54 0 0 1 8.63-3.62h22.7v7h-22.7a5.41 5.41 0 0 0-2.05.39 5.07 5.07 0 0 0-2.81 2.81 5.35 5.35 0 0 0 1.12 5.74 5 5 0 0 0 3.74 1.57h10.45a12.2 12.2 0 1 1 0 24.39H4161v-7h22.64a5.4 5.4 0 0 0 2.05-.39 5.33 5.33 0 0 0 1.69-1.09 4.74 4.74 0 0 0 1.12-1.66 5.4 5.4 0 0 0 .39-2.05 5.05 5.05 0 0 0-1.57-3.68 4.92 4.92 0 0 0-3.68-1.57h-10.45z" transform="translate(-3638.58 -7338.12)"/><path class="cls-3" d="M9.13 75.15v96.6"/><path class="cls-4" d="M3647.71 7510.87a1 1 0 0 1-1-1v-96.59a1 1 0 0 1 2 0v96.59a1 1 0 0 1-1 1z" transform="translate(-3638.58 -7338.12)"/><path class="cls-3" d="M407.45 75.15v96.6"/><path class="cls-4" d="M4046 7510.87a1 1 0 0 1-1-1v-96.59a1 1 0 0 1 2 0v96.59a1 1 0 0 1-1 1z" transform="translate(-3638.58 -7338.12)"/><path class="cls-3" d="M507.9 75.15v96.6"/><path class="cls-4" d="M4146.48 7510.87a1 1 0 0 1-1-1v-96.59a1 1 0 0 1 2 0v96.59a1 1 0 0 1-1 1z" transform="translate(-3638.58 -7338.12)"/><path class="cls-3" d="M228.47 74.15l35.26 99.5"/><path class="cls-4" d="M3902.31 7512.77a1 1 0 0 1-.94-.67l-35.26-99.49a1 1 0 0 1 1.88-.67l35.26 99.49a1 1 0 0 1-.94 1.34zm-103.7 0c-14.52 0-26.92-4.92-36.86-14.62s-15-22-15-36.39 5-26.68 15-36.39a50 50 0 0 1 20.92-12.42 1 1 0 1 1 .57 1.92 48.07 48.07 0 0 0-20.09 11.93c-9.54 9.32-14.38 21.08-14.38 35s4.84 25.64 14.38 35 21.48 14.06 35.46 14.06a1 1 0 0 1 0 1.91z" transform="translate(-3638.58 -7338.12)"/><path class="cls-2" d="M3691.73 7408.69c27.67 0 43.59 13.6 43.59 37.72 0 25.35-15.92 40-43.59 40h-19.63v30.45h-27.52v-108.17h47.15m-19.63 56.12h18.24c12.06 0 19-6 19-17.47 0-11.28-7-17-19-17h-18.24v34.47m19.63-62.12h-47.15a6 6 0 0 0-6 6v108.21a6 6 0 0 0 6 6h27.52a6 6 0 0 0 6-6v-24.45h13.63c15.1 0 27.63-4.18 36.23-12.09s13.36-19.77 13.36-33.94c0-27.38-18.54-43.72-49.59-43.72zm-13.63 33.64h12.24c11.54 0 13 5.88 13 11 0 10.17-7 11.47-13 11.47h-12.24v-22.47z" transform="translate(-3638.58 -7338.12)"/><path class="cls-2" d="M3801 7407.76c33.54 0 58.59 23.5 58.59 54.88 0 31.54-25 55.5-58.59 55.5-33.39 0-58.43-23.8-58.43-55.5 0-31.54 25-54.88 58.43-54.88m.31 87.34c16.7 0 30-14.07 30-32.31s-13.29-32-30-32-30.61 13.76-30.61 32 14.07 32.31 30.61 32.31m-.31-93.34c-36.73 0-64.43 26.17-64.43 60.88 0 35.06 27.7 61.5 64.43 61.5s64.59-26.44 64.59-61.5c0-34.71-27.77-60.88-64.59-60.88zm.31 87.34c-13.57 0-24.61-11.8-24.61-26.31s10.81-26 24.61-26a23 23 0 0 1 16.9 7.28 27 27 0 0 1 7.09 18.72c0 14.75-10.54 26.31-24 26.31zm228.69-80.41l-35.71 108.21H3966l-20.1-74.82-20.41 74.82H3897l-35.4-108.21h29.4l21.18 79.61 20.71-79.61h26.9l21.21 79.61 20.87-79.61H4030m0-6h-28.13a6 6 0 0 0-5.8 4.48l-15.11 57.64-15.34-57.66a6 6 0 0 0-5.8-4.46h-26.9a6 6 0 0 0-5.81 4.49l-15 57.54-15.32-57.58a6 6 0 0 0-5.8-4.46h-29.37a6 6 0 0 0-5.7 7.87l35.4 108.21a6 6 0 0 0 5.7 4.13h28.44a6 6 0 0 0 5.79-4.42l14.57-53.43 14.35 53.41a6 6 0 0 0 5.79 4.44h28.29a6 6 0 0 0 5.7-4.12l35.71-108.21a6 6 0 0 0-5.7-7.88zm0 12z" transform="translate(-3638.58 -7338.12)"/><path class="cls-2" d="M4124.4 7408.69v21.64h-57.2v21.49h51.63v21.64h-51.63v21.79h58.9v21.64h-86.41v-108.2h84.71m0-6h-84.71a6 6 0 0 0-6 6v108.21a6 6 0 0 0 6 6h86.41a6 6 0 0 0 6-6v-21.64a6 6 0 0 0-6-6h-52.9v-9.79h45.63a6 6 0 0 0 6-6v-21.64a6 6 0 0 0-6-6h-45.63v-9.49h51.2a6 6 0 0 0 6-6v-21.64a6 6 0 0 0-6-6zm67.87 6c28.6 0 45 13.6 45 37.72 0 16.54-7 28.44-19.63 34.78l22.72 35.71h-31.23l-16.13-30.45h-21.6v30.45h-27.52v-108.21h48.39m-20.87 56.12h20.87c11.9 0 18.86-6 18.86-17.47 0-11.28-7-17-18.86-17h-20.87v34.47m20.87-62.12h-48.39a6 6 0 0 0-6 6v108.21a6 6 0 0 0 6 6h27.52a6 6 0 0 0 6-6v-24.45h12l14.39 27.25a6 6 0 0 0 5.31 3.2h31.23a6 6 0 0 0 5.06-9.22l-19.39-30.52c11.19-8 17.27-20.78 17.27-36.75 0-27.38-19.06-43.72-51-43.72zm-14.87 33.64h14.87c11.4 0 12.86 5.88 12.86 11 0 4.92-1.33 11.47-12.86 11.47h-14.87v-22.47z" transform="translate(-3638.58 -7338.12)"/></svg>