<svg id="Layer_1" data-name="Layer 1" xmlns="http://www.w3.org/2000/svg" viewBox="0 0 133.75 115"><defs><style>.cls-1{mask:url(#mask)}.cls-2{opacity:.22}.cls-3{fill:#052f5f}.cls-4{fill:#fff}.cls-5,.cls-6{fill:none;stroke:#052f5f;stroke-linecap:round;stroke-linejoin:round;stroke-width:4px}.cls-6{fill:#b3dd1d}</style></defs><title>actor-handshake</title><g class="cls-1"><circle class="cls-2 cls-3" cx="68.72" cy="57.5" r="57.5"/><path class="cls-4" d="M3832.63 6222c.93-1.47 16-2.12 15.79 0l7.08-1.5a44.89 44.89 0 0 1 15.67 3.75l13.75 22.75c.84 4.08 0 5.51-2.42 9.75 1.94 5-.25 7.23-6.49 6.76 2.35 4.6-.61 6.44-6.49 6.76 1.24 5.12-.85 7-5.84 6.08-.58 4.81-3.27 6.33-7.18 6-2.06 1-7.93-2.51-14.54-7.62-5 3.28-8.46 1.62-7.29-6-7.32 5.38-10.16-1.19-7.41-6.87-6.92 2.35-9.26-2.49-6.44-6.9-2.19-3.91-5.06-5.84-3.32-6.92 1.22-.76 15.13-26.04 15.13-26.04z" transform="translate(-3782.75 -6184.78)"/><path class="cls-5" d="M3871.39 6223.27c-5.38-1.42-13.42-3-16.89-2.77-6.58 2.24-13.47 8.73-20.5 16-5 4.1-.44 13 5.75 7.75 1.08-.92 14.3-9.88 15.75-10.25 4.55-1.15 12.76.93 11.25 1.5m-34.12-13.5c8.21-1.92 14.48-2.25 17.62 0" transform="translate(-3782.75 -6184.78)"/><path class="cls-5" d="M3859 6234a155.49 155.49 0 0 0 22.5 22.25c4.25 3.25-.5 9-6 7.5a17.7 17.7 0 0 1-7-4m8.36 4.67c1.38 3.2-2.72 7.1-7.36 5.83a17.7 17.7 0 0 1-7-4m7.61 4.42c1.38 3.2-2.72 7.1-7.36 5.83a17.7 17.7 0 0 1-7-4m6.86 4.17c1.38 3.2-2.72 7.1-7.36 5.83-2.74-.89-9.25-5.5-12.5-7.25m39.75-18.5a20 20 0 0 0 3.67-7.42" transform="translate(-3782.75 -6184.78)"/><path class="cls-6" d="M88.64 38.52l17.86 30.95 22.25-16.74-11.75-34-4.75-2.76L85 32.23l3.64 6.29"/><ellipse class="cls-5" cx="3839.15" cy="6271.53" rx="5.87" ry="4.76" transform="rotate(-65.58 -2852.203 6115.256)"/><ellipse class="cls-5" cx="3831.65" cy="6265.53" rx="5.87" ry="4.76" transform="rotate(-52.95 -4268.928 6970.782)"/><ellipse class="cls-5" cx="3824.4" cy="6258.03" rx="5.88" ry="4.76" transform="rotate(-35.81 -7638.935 9019.203)"/><path class="cls-5" d="M3816.83 6249.17a9.59 9.59 0 0 0 3.42 5.33" transform="translate(-3782.75 -6184.78)"/><path class="cls-6" d="M52.25 32.98l-21.5 36.74L4.5 54.23 18 20.98l4.5-4.5 29.75 16.5z"/><circle class="cls-3" cx="26.25" cy="61.22" r="3.13"/><circle class="cls-3" cx="112" cy="58.72" r="3.13"/><path class="cls-3" d="M3877.75 6207.75s24.25 44.25 25.5 42.75 13.25-9.5 13.25-9.5l-11.5-40.25-7.25-6.25zm-73.25-10.25l20 11.25-25.5 43.75-16.25-10.25s13.5-36.75 14.25-37.5 7.5-7.25 7.5-7.25z" transform="translate(-3782.75 -6184.78)"/></g></svg>