<svg id="Layer_1" data-name="Layer 1" xmlns="http://www.w3.org/2000/svg" viewBox="0 0 162 162"><defs><style>.cls-1{fill:#fff}.cls-2{fill:#b3dd1d}.cls-3{fill:none;stroke:#052f5f;stroke-linecap:round;stroke-linejoin:round;stroke-width:4px}.cls-4{fill:#052f5f}</style></defs><title>actor-avatar</title><circle class="cls-1" cx="81" cy="81" r="81"/><path class="cls-2" d="M1231 1344.13c19.17 5.85 38.21 1.71 57.12-10.64l9.34 49.31-4.58 22.37c-27 14.13-42.8 10.58-51.8-3.64z" transform="translate(-1211.88 -1306)"/><path class="cls-3" d="M1348 1425.87c-7.18 23.66-59.77 12.14-57-12.49l12.49-57c13.74 14 33.05 17.55 57 12.49z" transform="translate(-1211.88 -1306)"/><path class="cls-4" d="M1307.45 1385.25c-.22-2.59 13.36-3.73 13.57-1.14s-2.65 4.94-6.39 5.26-6.97-1.54-7.18-4.12zm25.97 1.46c1.32-2.24 13.05 4.68 11.74 6.92s-5 2.5-8.26.59-4.8-5.22-3.48-7.51zm3.68 38.87c-9.43-13.53-21.21-16.23-35.36-8a1.68 1.68 0 0 1-2.3-2.32c3.69-6 11.23-14.12 24-11.33 12.92 2.83 16.07 13.59 16.73 20.52a1.68 1.68 0 0 1-3.07 1.13z" transform="translate(-1211.88 -1306)"/><path class="cls-3" d="M1297.42 1382.8l-9.11-50.2c-20.18 13.9-39.39 18-57.44 10.42l10.42 57.44c5.21 17.84 36.32 16.9 50.49 4.93" transform="translate(-1211.88 -1306)"/><path class="cls-4" d="M1283.44 1363.87c-.26 2.58-13.82 1.2-13.55-1.38s3.51-4.37 7.25-4 6.56 2.8 6.3 5.38zm-24.21 1.13c.94 2.42-11.74 7.38-12.69 5s1.13-5.49 4.63-6.86 7.12-.52 8.06 1.86zm-8.74 21.57c13.91 8.86 25.82 6.82 35.71-6.24a1.68 1.68 0 0 1 3 1.25c-1.11 6.93-4.93 17.37-17.77 19.7-13 2.36-20.06-6.35-23.33-12.49a1.68 1.68 0 0 1 2.39-2.22z" transform="translate(-1211.88 -1306)"/></svg>