<svg id="Layer_1" data-name="Layer 1" xmlns="http://www.w3.org/2000/svg" viewBox="0 0 162 162"><defs><style>.cls-1{opacity:.75}.cls-2{fill:#fff}.cls-3{fill:#b3d334}.cls-4{fill:#1b325e}</style></defs><title>actor-avatar-stat</title><circle class="cls-1 cls-2" cx="81" cy="81" r="81"/><path class="cls-3" d="M230.7 342.49c22.83 7 45.48 2 68-12.67l11.12 58.7-5.45 26.63c-32.16 16.82-51 12.59-61.67-4.33z" transform="translate(-225.27 -315.49)"/><path class="cls-4" d="M343.19 457.2a56.18 56.18 0 0 1-11.26-1.2c-16.63-3.42-33.68-14.68-31.83-31.33a1.83 1.83 0 0 1 0-.21l14.9-67.87a2 2 0 0 1 3.38-1c15.51 15.74 37.12 20.43 66.05 14.32a2 2 0 0 1 2.37 2.38l-14.87 67.89v.15c-2.15 7.1-7.57 12.26-15.65 14.91a42.24 42.24 0 0 1-13.09 1.96zm-39.12-32c-1 9.91 7.48 22.52 28.67 26.87C347 455 364 452.25 368 439.28l14.2-64.82c-27 5.06-48.5.52-64.09-13.52zM370 439.78z" transform="translate(-225.27 -315.49)"/><path class="cls-4" d="M321.75 391.43c-.26-3.08 15.9-4.44 16.16-1.36s-3.15 5.88-7.61 6.26-8.3-1.82-8.55-4.9zm30.92 1.75c1.57-2.66 15.54 5.57 14 8.23s-6 3-9.83.71-5.74-6.28-4.17-8.94zm4.38 46.26c-11.23-16.1-25.24-19.32-42.09-9.5a2 2 0 0 1-2.73-2.76c4.4-7.11 13.37-16.81 28.54-13.48 15.38 3.37 19.13 16.18 19.92 24.43a2 2 0 0 1-3.64 1.31zm-85.41-11.56A46.09 46.09 0 0 1 258.4 426c-9.09-2.74-15.08-8.25-17.32-15.93v-.2l-12.41-68.38a2 2 0 0 1 2.74-2.2c20.37 8.56 42.11 4.57 66.47-12.21a2 2 0 0 1 3.1 1.29l10.84 59.76a2 2 0 1 1-3.94.71l-10.29-56.75c-22.95 15.05-44.57 19.15-64.36 12.19l11.75 64.77c2.36 7.92 9.24 11.51 14.61 13.13 13.39 4 32 .38 42.26-8.32a2 2 0 0 1 2.55 3.14c-8.24 6.91-20.83 10.88-32.76 10.88z" transform="translate(-225.27 -315.49)"/><path class="cls-4" d="M293.17 366c-.31 3.08-16.45 1.43-16.13-1.64s4.18-5.2 8.63-4.75 7.81 3.3 7.5 6.39zm-28.82 1.38c1.12 2.88-14 8.78-15.11 5.9s1.34-6.54 5.52-8.16 8.47-.62 9.59 2.26zM253.94 393c16.56 10.54 30.74 8.12 42.51-7.43a2 2 0 0 1 3.59 1.48c-1.32 8.25-5.87 20.67-21.16 23.45-15.48 2.81-23.88-7.55-27.78-14.87a2 2 0 0 1 2.84-2.63z" transform="translate(-225.27 -315.49)"/></svg>