<svg id="Layer_1" data-name="Layer 1" xmlns="http://www.w3.org/2000/svg" viewBox="0 0 115 115"><defs><style>.cls-1{opacity:.35}.cls-2{fill:#757779}.cls-3{fill:#fff}.cls-4{fill:none}.cls-5{fill:#7d4fb2;stroke:#052f5f;stroke-miterlimit:10;stroke-width:4px}.cls-6{fill:#052f5f}</style></defs><title>athlete-nba</title><circle class="cls-1 cls-2" cx="57.5" cy="57.5" r="57.5"/><path class="cls-3" d="M6783.5 5660.68a7 7 0 0 1-8 3.36 6.78 6.78 0 0 1-5-5.91c-.21-3.67 1.59-6 5.09-7.14-1-2.38-2.15-4.7-2.93-7.15s-1.18-5.05-1.77-7.72c-.83.49-1.62.93-2.38 1.42a1.7 1.7 0 0 0-.54.72c-.25.57-.44 1.17-.67 1.75-.46 1.15-.94 2.28-1.38 3.43-.11.3-.29.71.11.91a2.41 2.41 0 0 1 1.24 1.61c.68 2.31 1.35 4.62 2 6.94a1.83 1.83 0 0 1 .08 1.67.59.59 0 0 0 .06.34 46.74 46.74 0 0 1 1.46 8.24 10.08 10.08 0 0 0 .7 3.61c.5 1 1 2.06 1.51 3.08a14 14 0 0 1 1.43 3.68c.33 1.72.7 3.43 1 5.16a8.15 8.15 0 0 0 1.49 3.94 3.18 3.18 0 0 1 .54 3.31c-.08.19-.1.41-.17.6-.71 2-.16 3.84.4 5.71a1.49 1.49 0 0 1 .19 1.34.6.6 0 0 0 .08.29c.33 1.23.72 2.45 1 3.7a3.89 3.89 0 0 1-.74 3.45 2.51 2.51 0 0 1-2.92.41 2.4 2.4 0 0 1-.79-1.73 9 9 0 0 1 0-1.47q.26-2.46.55-4.91a.74.74 0 0 0-.24-.71 1 1 0 0 1-.37-1.16 1.6 1.6 0 0 0-.05-1.3c-.25-.57-.48-1.15-.77-1.71-.4-.76-.86-1.49-1.27-2.25a1.47 1.47 0 0 1-.23-1.4 1.24 1.24 0 0 0 0-1.17 12.66 12.66 0 0 0-.55-1.26 2 2 0 0 0-.58-.64c-1-.74-2.13-1.41-3.13-2.2a49.17 49.17 0 0 1-7.17-7 52.32 52.32 0 0 1-6-8.73 1.62 1.62 0 0 0-1.63-1.08.89.89 0 0 1-1.09-.87 1.09 1.09 0 0 0-.14-.38c-.76-1.55-1.5-3.1-2.28-4.64a9.87 9.87 0 0 1-1.28-5.87c.09-.66.2-1.32.27-2a4 4 0 0 1 1.68-3.18 4.53 4.53 0 0 0 .12-.88 1 1 0 0 0-.52-.16c-.69-.06-1.4-.06-2.08-.18a1 1 0 0 1-.68-.55 15.73 15.73 0 0 1-.62-2.09 1.8 1.8 0 0 1 0-.83 32.31 32.31 0 0 1 2.28-5.89 24.2 24.2 0 0 0 1.23-2.72 25.75 25.75 0 0 1 2.76-5.77 6.05 6.05 0 0 1 5-3.09 10.16 10.16 0 0 0 1.32-.18c.5-.09 1-.22 1.5-.32.28-.05.56-.07.84-.12a1.48 1.48 0 0 0 1.35-1.33c.09-.69.2-1.38.29-2.07a.37.37 0 0 0-.07-.28 2.51 2.51 0 0 1-.67-2c0-.8.19-1 .9-1.08a31.41 31.41 0 0 1 .54-3.19 3.52 3.52 0 0 1 2.2-2.11h-1 1a4.36 4.36 0 0 1 3.34.12 3.21 3.21 0 0 1 1.62 1.4.2.2 0 0 0 .11.07 2 2 0 0 1 1.12 2 5.71 5.71 0 0 1-.74 2.95.56.56 0 0 0 0 .56 1.22 1.22 0 0 1 .08.88 3.49 3.49 0 0 1-1.31 2 .56.56 0 0 0-.15.22c-.19.32-.37.65-.57 1a3.93 3.93 0 0 1-1.35 1.51.61.61 0 0 0 .07 1c.54.3 1.1.58 1.63.91a1 1 0 0 1 .66.82.43.43 0 0 0 .22.24c.47.29.95.56 1.41.85a8 8 0 0 1 3.65 5.57 19.66 19.66 0 0 1 .22 4.35 2.83 2.83 0 0 0 0 .62c.17.92.38 1.83.52 2.76a10 10 0 0 0 1.37 4 8.7 8.7 0 0 1 1.35 4.06c0 .56.16 1.12.21 1.68a.78.78 0 0 0 .68.77 3.68 3.68 0 0 1 1.13.63 5.1 5.1 0 0 1 .67.68 5.44 5.44 0 0 1 .64.71c.31.47.56 1 .84 1.47a7.9 7.9 0 0 1 .08 5.92z" transform="translate(-6707.58 -5597.68)"/><path class="cls-4" d="M6783.53 5654.68c-.28-.49-.54-1-.84-1.47a5.44 5.44 0 0 0-.64-.71 5.1 5.1 0 0 0-.67-.68 3.68 3.68 0 0 0-1.13-.63.78.78 0 0 1-.68-.77c-.05-.56-.17-1.12-.21-1.68a8.7 8.7 0 0 0-1.35-4.06 10 10 0 0 1-1.37-4c-.14-.92-.35-1.84-.52-2.76a2.83 2.83 0 0 1 0-.62 19.66 19.66 0 0 0-.22-4.35 8 8 0 0 0-3.65-5.57c-.46-.3-.94-.56-1.41-.85a.43.43 0 0 1-.22-.24 1 1 0 0 0-.66-.82c-.53-.32-1.09-.61-1.63-.91a.61.61 0 0 1-.07-1 3.93 3.93 0 0 0 1.35-1.51c.2-.31.38-.64.57-1a.56.56 0 0 1 .15-.22 3.49 3.49 0 0 0 1.31-2 1.22 1.22 0 0 0-.08-.88.56.56 0 0 1 0-.56 5.71 5.71 0 0 0 .74-2.95 2 2 0 0 0-1.12-2 .2.2 0 0 1-.11-.07 3.21 3.21 0 0 0-1.62-1.4 4.36 4.36 0 0 0-3.34-.12 3.52 3.52 0 0 0-2.2 2.11 31.41 31.41 0 0 0-.54 3.19c-.71.08-.9.28-.9 1.08a2.51 2.51 0 0 0 .67 2 .37.37 0 0 1 .07.28c-.09.69-.2 1.38-.29 2.07a1.48 1.48 0 0 1-1.35 1.33c-.28.05-.56.07-.84.12-.5.1-1 .23-1.5.32a10.16 10.16 0 0 1-1.32.18 6.05 6.05 0 0 0-5 3.09 25.75 25.75 0 0 0-2.76 5.77 24.2 24.2 0 0 1-1.23 2.72 32.31 32.31 0 0 0-2.28 5.89 1.8 1.8 0 0 0 0 .83 15.73 15.73 0 0 0 .62 2.09 1 1 0 0 0 .68.55c.68.12 1.39.12 2.08.18a1 1 0 0 1 .52.16 4.53 4.53 0 0 1-.12.88 4 4 0 0 0-1.68 3.18c-.06.67-.18 1.33-.27 2a9.87 9.87 0 0 0 1.28 5.87c.77 1.54 1.52 3.09 2.28 4.64a1.09 1.09 0 0 1 .14.38.89.89 0 0 0 1.09.87 1.62 1.62 0 0 1 1.63 1.08 52.32 52.32 0 0 0 6 8.73 49.17 49.17 0 0 0 7.17 7c1 .79 2.09 1.46 3.13 2.2a2 2 0 0 1 .58.64 12.66 12.66 0 0 1 .55 1.26 1.24 1.24 0 0 1 0 1.17 1.47 1.47 0 0 0 .23 1.4c.41.76.87 1.49 1.27 2.25.29.55.52 1.13.77 1.71a1.6 1.6 0 0 1 .05 1.3 1 1 0 0 0 .37 1.16.74.74 0 0 1 .24.71q-.29 2.46-.55 4.91a9 9 0 0 0 0 1.47 2.4 2.4 0 0 0 .79 1.73 2.51 2.51 0 0 0 2.92-.41 3.89 3.89 0 0 0 .74-3.45c-.25-1.25-.64-2.47-1-3.7a.6.6 0 0 1-.08-.29 1.49 1.49 0 0 0-.19-1.34c-.56-1.87-1.1-3.75-.4-5.71.07-.19.09-.41.17-.6a3.18 3.18 0 0 0-.54-3.31 8.15 8.15 0 0 1-1.49-3.94c-.3-1.73-.67-3.44-1-5.16a14 14 0 0 0-1.43-3.68c-.52-1-1-2.05-1.51-3.08a10.08 10.08 0 0 1-.7-3.61 46.74 46.74 0 0 0-1.46-8.24.59.59 0 0 1-.06-.34 1.83 1.83 0 0 0-.08-1.67c-.64-2.32-1.31-4.63-2-6.94a2.41 2.41 0 0 0-1.24-1.61c-.4-.2-.22-.61-.11-.91.44-1.15.92-2.29 1.38-3.43.23-.58.42-1.18.67-1.75a1.7 1.7 0 0 1 .54-.72c.75-.5 1.54-.93 2.38-1.42.59 2.67 1 5.25 1.77 7.72s1.94 4.77 2.93 7.15c-3.49 1.1-5.3 3.47-5.09 7.14a6.78 6.78 0 0 0 5 5.91 7 7 0 0 0 8-3.36 7.9 7.9 0 0 0 .06-6z" transform="translate(-6707.58 -5597.68)"/><path class="cls-5" d="M6742.89 5615.23v81.37a5.4 5.4 0 0 0 5.4 5.4h34.14a5.4 5.4 0 0 0 5.4-5.4v-81.37a5.4 5.4 0 0 0-5.4-5.4h-34.14a5.4 5.4 0 0 0-5.4 5.4zm40.61 45.45a7 7 0 0 1-8 3.36 6.78 6.78 0 0 1-5-5.91c-.21-3.67 1.59-6 5.09-7.14-1-2.38-2.15-4.7-2.93-7.15s-1.18-5.05-1.77-7.72c-.83.49-1.62.93-2.38 1.42a1.7 1.7 0 0 0-.54.72c-.25.57-.44 1.17-.67 1.75-.46 1.15-.94 2.28-1.38 3.43-.11.3-.29.71.11.91a2.41 2.41 0 0 1 1.24 1.61c.68 2.31 1.35 4.62 2 6.94a1.83 1.83 0 0 1 .08 1.67.59.59 0 0 0 .06.34 46.74 46.74 0 0 1 1.46 8.24 10.08 10.08 0 0 0 .7 3.61c.5 1 1 2.06 1.51 3.08a14 14 0 0 1 1.43 3.68c.33 1.72.7 3.43 1 5.16a8.15 8.15 0 0 0 1.49 3.94 3.18 3.18 0 0 1 .54 3.31c-.08.19-.1.41-.17.6-.71 2-.16 3.84.4 5.71a1.49 1.49 0 0 1 .19 1.34.6.6 0 0 0 .08.29c.33 1.23.72 2.45 1 3.7a3.89 3.89 0 0 1-.74 3.45 2.51 2.51 0 0 1-2.92.41 2.4 2.4 0 0 1-.79-1.73 9 9 0 0 1 0-1.47q.26-2.46.55-4.91a.74.74 0 0 0-.24-.71 1 1 0 0 1-.37-1.16 1.6 1.6 0 0 0-.05-1.3c-.25-.57-.48-1.15-.77-1.71-.4-.76-.86-1.49-1.27-2.25a1.47 1.47 0 0 1-.23-1.4 1.24 1.24 0 0 0 0-1.17 12.66 12.66 0 0 0-.55-1.26 2 2 0 0 0-.58-.64c-1-.74-2.13-1.41-3.13-2.2a49.17 49.17 0 0 1-7.17-7 52.32 52.32 0 0 1-6-8.73 1.62 1.62 0 0 0-1.63-1.08.89.89 0 0 1-1.09-.87 1.09 1.09 0 0 0-.14-.38c-.76-1.55-1.5-3.1-2.28-4.64a9.87 9.87 0 0 1-1.28-5.87c.09-.66.2-1.32.27-2a4 4 0 0 1 1.68-3.18 4.53 4.53 0 0 0 .12-.88 1 1 0 0 0-.52-.16c-.69-.06-1.4-.06-2.08-.18a1 1 0 0 1-.68-.55 15.73 15.73 0 0 1-.62-2.09 1.8 1.8 0 0 1 0-.83 32.31 32.31 0 0 1 2.28-5.89 24.2 24.2 0 0 0 1.23-2.72 25.75 25.75 0 0 1 2.76-5.77 6.05 6.05 0 0 1 5-3.09 10.16 10.16 0 0 0 1.32-.18c.5-.09 1-.22 1.5-.32.28-.05.56-.07.84-.12a1.48 1.48 0 0 0 1.35-1.33c.09-.69.2-1.38.29-2.07a.37.37 0 0 0-.07-.28 2.51 2.51 0 0 1-.67-2c0-.8.19-1 .9-1.08a31.41 31.41 0 0 1 .54-3.19 3.52 3.52 0 0 1 2.2-2.11h-1 1a4.36 4.36 0 0 1 3.34.12 3.21 3.21 0 0 1 1.62 1.4.2.2 0 0 0 .11.07 2 2 0 0 1 1.12 2 5.71 5.71 0 0 1-.74 2.95.56.56 0 0 0 0 .56 1.22 1.22 0 0 1 .08.88 3.49 3.49 0 0 1-1.31 2 .56.56 0 0 0-.15.22c-.19.32-.37.65-.57 1a3.93 3.93 0 0 1-1.35 1.51.61.61 0 0 0 .07 1c.54.3 1.1.58 1.63.91a1 1 0 0 1 .66.82.43.43 0 0 0 .22.24c.47.29.95.56 1.41.85a8 8 0 0 1 3.65 5.57 19.66 19.66 0 0 1 .22 4.35 2.83 2.83 0 0 0 0 .62c.17.92.38 1.83.52 2.76a10 10 0 0 0 1.37 4 8.7 8.7 0 0 1 1.35 4.06c0 .56.16 1.12.21 1.68a.78.78 0 0 0 .68.77 3.68 3.68 0 0 1 1.13.63 5.1 5.1 0 0 1 .67.68 5.44 5.44 0 0 1 .64.71c.31.47.56 1 .84 1.47a7.9 7.9 0 0 1 .08 5.92z" transform="translate(-6707.58 -5597.68)"/><path class="cls-6" d="M6765.07 5610.86h1-1z" transform="translate(-6707.58 -5597.68)"/></svg>