<svg id="Layer_1" data-name="Layer 1" xmlns="http://www.w3.org/2000/svg" viewBox="0 0 115 115"><defs><style>.cls-1{opacity:.35}.cls-2{fill:#757779}.cls-3{fill:#fff}.cls-3,.cls-5{stroke:#052f5f;stroke-miterlimit:10;stroke-width:4px}.cls-4{fill:#052f5f}.cls-5{fill:none}.cls-6{fill:#7d4fb2}</style></defs><title>athlete-time</title><circle class="cls-1 cls-2" cx="57.5" cy="57.5" r="57.5"/><circle class="cls-3" cx="57.02" cy="72.44" r="36.06"/><path class="cls-4" d="M54.25 28.45h5.55v7.7h-5.55z"/><path class="cls-4" transform="rotate(45 10726.39 -5035.204)" d="M6789.52 6076.45h5.55v7.7h-5.55z"/><path class="cls-4" transform="rotate(45 10733.363 -5042.165)" d="M6792.27 6067.01h14v12.63h-14z"/><circle class="cls-5" cx="57.02" cy="18.59" r="13.92"/><path class="cls-4" d="M56.7 39.85h1.54v7.7H56.7zm0 55.78h1.54v7.7H56.7z"/><path class="cls-4" transform="rotate(-90 364.635 6444.125)" d="M6736.39 6105.22h1.54v7.7h-1.54z"/><path class="cls-4" transform="rotate(-90 420.41 6444.12)" d="M6792.17 6105.22h1.54v7.7h-1.54z"/><path class="cls-4" d="M63.48 79.92l-26.5-29.28"/><path class="cls-6" d="M6770.91 6117.53s-.59-.3-1.52-.91a40.39 40.39 0 0 1-3.66-2.72 45 45 0 0 1-4.6-4.37c-1.53-1.73-2.94-3.79-4.51-5.7s-3.12-3.83-4.55-5.66-2.77-3.53-3.9-5c-2.28-2.93-3.76-4.92-3.76-4.92l.3-.27s1.83 1.67 4.52 4.23c1.35 1.28 2.93 2.76 4.59 4.38s3.42 3.35 5.18 5.09 3.65 3.35 5.22 5.05a45 45 0 0 1 3.89 5 40.35 40.35 0 0 1 2.34 3.91c.51 1 .76 1.6.76 1.6z" transform="translate(-6707.58 -6037.48)"/><circle class="cls-6" cx="57.02" cy="72.44" r="3.84"/></svg>