<svg id="Layer_1" data-name="Layer 1" xmlns="http://www.w3.org/2000/svg" viewBox="0 0 115 115"><defs><style>.cls-1{opacity:.35}.cls-2{fill:#757779}.cls-3{fill:#fff}.cls-4{fill:#052f5f}.cls-5{fill:#7d4fb2}</style></defs><title>athlete-draft</title><circle class="cls-1 cls-2" cx="57.5" cy="57.5" r="57.5"/><path class="cls-3" d="M6757.7 5908.64a2 2 0 0 1-1.77-1.17l-23-50.12a2 2 0 1 1 3.64-1.67l21.26 46.38 24-46.87a2 2 0 0 1 3.44-.21l7.17 10.6a2 2 0 0 1-3.31 2.24l-5.28-7.8-24.36 47.53a2 2 0 0 1-1.79 1.09z" transform="translate(-6707.58 -5807.18)"/><path class="cls-3" d="M6773.23 5908.23a2 2 0 0 1-1.76-1.05l-25.09-46.65-5 8.07a2 2 0 0 1-3.4-2.1l6.81-11a1.92 1.92 0 0 1 1.76-.95 2 2 0 0 1 1.7 1.05l24.83 46.17 21.3-46.47a2 2 0 0 1 3.64 1.67l-23 50.12a2 2 0 0 1-1.75 1.17h-.06z" transform="translate(-6707.58 -5807.18)"/><path class="cls-3" d="M6750.48 5892.81a2 2 0 0 1-1.71-3l20.25-33.87a2 2 0 0 1 1.7-1 2 2 0 0 1 1.7.95l14.2 23a2 2 0 0 1-3.4 2.1l-12.47-20.17-18.56 31a2 2 0 0 1-1.71.99z" transform="translate(-6707.58 -5807.18)"/><path class="cls-3" d="M6779.17 5894.33a2 2 0 0 1-1.73-1l-19-32.45-11.5 19.62a2 2 0 1 1-3.45-2l13.23-22.56a2 2 0 0 1 3.45 0l20.75 35.4a2 2 0 0 1-1.75 2.99z" transform="translate(-6707.58 -5807.18)"/><path class="cls-4" d="M6727.62 5833.11h4.92a6.13 6.13 0 0 1 2.86.7 7.69 7.69 0 0 1 2.36 1.9 9.31 9.31 0 0 1 1.6 2.8 10.11 10.11 0 0 1 0 6.78 9.43 9.43 0 0 1-1.59 2.8 7.53 7.53 0 0 1-2.36 1.9 6.17 6.17 0 0 1-2.87.7h-4.92v-17.56zm4.92 14.63a4.18 4.18 0 0 0 1.92-.46 4.92 4.92 0 0 0 1.54-1.28 6.21 6.21 0 0 0 1.05-1.87 6.79 6.79 0 0 0 0-4.5 6.08 6.08 0 0 0-1.07-1.87 5.05 5.05 0 0 0-1.58-1.27 4.13 4.13 0 0 0-1.9-.46h-2.47v11.69h2.47zm21.16 2.93l-2.86-5.85h-4.18v5.85h-2.45v-17.56h7.4a4.41 4.41 0 0 1 3.48 1.72 6.2 6.2 0 0 1 1.45 4.13 6.43 6.43 0 0 1-.87 3.32 5 5 0 0 1-2.17 2.1l3 6.3h-2.84zm-2.09-14.63h-4.95v5.82h4.95a2.19 2.19 0 0 0 1.73-.86 3.11 3.11 0 0 0 .73-2.08 3.07 3.07 0 0 0-.73-2 2.19 2.19 0 0 0-1.73-.92zm19.99 11.7h-6.8l-1.26 2.94h-2.75l7.4-17.56 7.4 17.56h-2.75zm-5.59-2.91h4.35l-2.17-5.16zm23.69-11.72v2.89h-7.4v5.82h7.4v3h-7.4v5.85h-2.45v-17.56h9.85zm4.3 0h12.34v2.89h-4.92v14.63h-2.47V5836H6794v-2.94z" transform="translate(-6707.58 -5807.18)"/><path class="cls-4" d="M19.95 48.09h75.99"/><path class="cls-5" d="M6803.51 5857.27h-76a2 2 0 0 1 0-4h76a2 2 0 0 1 0 4z" transform="translate(-6707.58 -5807.18)"/></svg>