<svg id="Layer_1" data-name="Layer 1" xmlns="http://www.w3.org/2000/svg" viewBox="0 0 115 115"><defs><style>.cls-1{opacity:.35}.cls-2{fill:#757779}.cls-3{fill:#7d4fb2}.cls-4,.cls-5{fill:none;stroke:#052f5f;stroke-linecap:round;stroke-linejoin:round;stroke-width:4px}.cls-5{fill:#fff}</style></defs><title>athlete-scholarship</title><circle class="cls-1 cls-2" cx="57.5" cy="57.5" r="57.5"/><path class="cls-3" d="M6771.3 5408.87c13.35 6.12 14.07 29.48 26.46 33.06 7.11 1.59 12.47-3.62 16.93-12.4 1.94 11.25-1.25 21.65-13.83 30.51-2.79-2.07-3.27-5.59-8.82-5.72-16.93.24-27.68.58-30.75-1.91-11.39-21.53-5.09-34.64 10.01-43.54z" transform="translate(-6707.58 -5368.1)"/><circle class="cls-4" cx="77.66" cy="66.67" r="30.07"/><path class="cls-4" d="M6793.84 5406c13.17 9 7.11 49.44-12 58.28m-10.54-55.41c11.44 4.13 15.1 29.88 27 33.53 9.54 1.59 16.21-12.08 16.21-12.08m-57.19-4.61c5.09 10 40.21 26.22 53.88 24m-50.55 2.23c6.2 7.15 31.79-3.5 40.21 8.11" transform="translate(-6707.58 -5368.1)"/><path class="cls-5" d="M6772.59 5404.82v-10.18h-21.35v-15.74H6742v15.73h-2.43a16.77 16.77 0 0 0-12.55 5.27 17 17 0 0 0-5.18 12.47 17.69 17.69 0 0 0 17.74 17.82h2.42v15.19h-20.17v10.18H6742v10.63h9.23v-10.63h3.52a17.74 17.74 0 1 0 0-35.47h-3.52v-15.28h21.35zm-17.82 25.37a7.15 7.15 0 0 1 5.36 2.28 7.34 7.34 0 0 1 2.28 5.36 7.86 7.86 0 0 1-.57 3 6.88 6.88 0 0 1-1.62 2.41 7.7 7.7 0 0 1-2.46 1.58 7.84 7.84 0 0 1-3 .57h-3.52v-15.19h3.52zm-12.76-10.1h-2.43a7.24 7.24 0 0 1-5.44-2.28 7.78 7.78 0 0 1-1.62-8.34 7.36 7.36 0 0 1 4.08-4.08 7.86 7.86 0 0 1 3-.57h2.4v15.28z" transform="translate(-6707.58 -5368.1)"/></svg>