<svg id="Layer_1" data-name="Layer 1" xmlns="http://www.w3.org/2000/svg" viewBox="0 0 775.79 87.52"><defs><style>.cls-1{fill:#fff}.cls-2{fill:#1b325e}</style></defs><title>athlete</title><path class="cls-1" d="M-71.89 358.45l51.53 46.4v-46.4h12.94V436l-51.64-46.4v46.29h-12.83v-77.44zm144.43 38.81a22.45 22.45 0 0 1 5 24.87 22.74 22.74 0 0 1-12 12 21.69 21.69 0 0 1-8.7 1.78H14.88v-77.35h41.94a21.84 21.84 0 0 1 8.64 1.78 22.59 22.59 0 0 1 12.1 12 22.45 22.45 0 0 1-5.02 24.92zM56.82 371.5H27.71v19.4h29.11a9.1 9.1 0 0 0 3.68-.78 10.09 10.09 0 0 0 3.12-2.12 9.35 9.35 0 0 0 2.06-3.12 10 10 0 0 0 .72-3.79 9.71 9.71 0 0 0-.72-3.68 9.35 9.35 0 0 0-5.19-5.19 9.71 9.71 0 0 0-3.67-.72zm0 51.53a9.68 9.68 0 0 0 3.68-.72 9.35 9.35 0 0 0 5.19-5.19 9.71 9.71 0 0 0 0-7.36 9.85 9.85 0 0 0-2-3.12 9.47 9.47 0 0 0-3.07-2.12 9.38 9.38 0 0 0-3.79-.78H27.71V423h29.11zm94.91-.03h-35.58l-6.58 13H95.19l38.7-77.41 38.7 77.41H158.2zm-29.22-12.8h22.75l-11.38-22.75zm119.12 0V436H228.8v-77.44h38.7a25.9 25.9 0 0 1 25.76 25.88 25.7 25.7 0 0 1-25.76 25.76h-25.87zm0-38.7v25.76h25.88a12.95 12.95 0 0 0 12.83-12.83 12.47 12.47 0 0 0-3.79-9.15 12.34 12.34 0 0 0-9-3.79h-25.92zm73.95-12.94h12.82V423h38.7v13h-51.52v-77.44zM446 423h-35.62l-6.58 13h-14.39l38.7-77.41 38.7 77.41h-14.38zm-29.26-12.8h22.75l-11.38-22.75zm100.15-51.64h16.4l-31.79 40.6V436h-12.83v-36.17l-32.35-41.27h16.51l22 28.22zm90.23 0v12.94h-38.7v19.4h38.7v12.83h-38.7V423h38.7v13h-51.53v-77.44h51.53zM679.06 436l-14.94-25.8h-21.87V436h-12.82v-77.44h38.7a25.81 25.81 0 0 1 9.81 49.63l16 27.77h-14.88zm-10.93-64.5h-25.88v25.65l25.88.11a12.33 12.33 0 0 0 9-3.79 12.88 12.88 0 0 0-9-21.97z" transform="translate(80.89 -353.26)"/><path class="cls-2" d="M-11.43 358.26v77.52l-51.64-46.4v46.29h-12.82v-77.41l51.53 46.4v-46.4h12.94m-64.47-5a5 5 0 0 0-2 .43 5 5 0 0 0-3 4.57v77.41a5 5 0 0 0 5 5h12.83a5 5 0 0 0 5-5v-35.08l43.3 38.9a5 5 0 0 0 3.34 1.28 5 5 0 0 0 2-.43 5 5 0 0 0 3-4.57v-77.51a5 5 0 0 0-5-5h-12.94a5 5 0 0 0-5 5v35.17l-43.18-38.88a5 5 0 0 0-3.35-1.28zm128.71 5.11a21.84 21.84 0 0 1 8.64 1.78 22.59 22.59 0 0 1 12.1 12 22.45 22.45 0 0 1-5 24.87 22.45 22.45 0 0 1 5 24.87 22.74 22.74 0 0 1-12 12 21.69 21.69 0 0 1-8.7 1.78H10.88v-77.3h41.94m-29.11 32.34h29.11a9.1 9.1 0 0 0 3.68-.78 10.09 10.09 0 0 0 3.12-2.12 9.35 9.35 0 0 0 2.06-3.12 10 10 0 0 0 .72-3.79 9.71 9.71 0 0 0-.72-3.68A9.35 9.35 0 0 0 56.5 372a9.71 9.71 0 0 0-3.68-.72H23.71v19.41m0 32.12h29.11a9.68 9.68 0 0 0 3.68-.72 9.35 9.35 0 0 0 5.19-5.19 9.71 9.71 0 0 0 0-7.36 9.85 9.85 0 0 0-2-3.12 9.47 9.47 0 0 0-3.07-2.12 9.38 9.38 0 0 0-3.79-.78H23.71v19.29m29.11-69.47H10.88a5 5 0 0 0-5 5v77.41a5 5 0 0 0 5 5h41.94a26.76 26.76 0 0 0 10.68-2.19 27.73 27.73 0 0 0 14.65-14.65 27.58 27.58 0 0 0-3-26.88 27.51 27.51 0 0 0 3-26.84 27.59 27.59 0 0 0-14.73-14.66 26.91 26.91 0 0 0-10.61-2.19zm-24.11 22.97h24.11a4.72 4.72 0 0 1 1.8.36 4.35 4.35 0 0 1 2.43 2.44 4.7 4.7 0 0 1 .35 1.79 5 5 0 0 1-.36 1.91 4.36 4.36 0 0 1-1 1.47 5.08 5.08 0 0 1-1.59 1.07 4.11 4.11 0 0 1-1.68.36H28.71v-9.41zm0 32.23h24.11a4.39 4.39 0 0 1 1.79.36 4.48 4.48 0 0 1 1.46 1 4.85 4.85 0 0 1 1 1.55 4.71 4.71 0 0 1 0 3.59 4.35 4.35 0 0 1-2.43 2.43 4.69 4.69 0 0 1-1.8.36H28.71v-9.29zm101.18-50.17l38.7 77.41H154.2l-6.47-12.94h-35.58l-6.58 12.94H91.19l38.7-77.41M118.51 410h22.75l-11.38-22.75L118.51 410m11.38-56.64a5 5 0 0 0-4.47 2.76l-38.7 77.4a5 5 0 0 0 4.47 7.24h14.39A5 5 0 0 0 110 438l5.19-10.21h29.42l5.12 10.21a5 5 0 0 0 4.47 2.76h14.39a5 5 0 0 0 4.47-7.24l-38.7-77.41a5 5 0 0 0-4.47-2.76zM126.6 405l3.29-6.57 3.29 6.57h-6.58zm136.91-46.63a25.9 25.9 0 0 1 25.76 25.88A25.7 25.7 0 0 1 263.51 410h-25.88v25.76H224.8v-77.39h38.7m-25.88 38.7h25.88a12.95 12.95 0 0 0 12.83-12.83 12.47 12.47 0 0 0-3.79-9.15 12.34 12.34 0 0 0-9-3.79h-25.91v25.76m25.88-43.7H224.8a5 5 0 0 0-5 5v77.41a5 5 0 0 0 5 5h12.83a5 5 0 0 0 5-5V415h20.88a29.94 29.94 0 0 0 21.69-8.91l.05-.05a30.85 30.85 0 0 0 0-43.63 29.75 29.75 0 0 0-21.72-9zm-20.88 22.94h20.88a7.36 7.36 0 0 1 5.5 2.33 7.49 7.49 0 0 1 2.33 5.61 7.95 7.95 0 0 1-7.83 7.83h-20.88v-15.76zm81.77-17.93v64.47h38.7v12.94h-51.53v-77.41h12.83m0-5h-12.83a5 5 0 0 0-5 5v77.41a5 5 0 0 0 5 5h51.53a5 5 0 0 0 5-5v-12.94a5 5 0 0 0-5-5h-33.7v-59.47a5 5 0 0 0-5-5zm99.71 5l38.7 77.41h-14.38L442 422.84h-35.62l-6.58 12.94h-14.39l38.7-77.41M412.73 410h22.75l-11.38-22.75L412.73 410m11.38-56.64a5 5 0 0 0-4.47 2.76l-38.7 77.4a5 5 0 0 0 4.47 7.24h14.39a5 5 0 0 0 4.46-2.73l5.19-10.21h29.42L444 438a5 5 0 0 0 4.47 2.76h14.39a5 5 0 0 0 4.47-7.24l-38.7-77.41a5 5 0 0 0-4.47-2.76zM420.83 405l3.29-6.57 3.28 6.57h-6.57zm108.46-46.63L497.5 399v36.81h-12.83v-36.17l-32.35-41.27h16.51l22 28.22 22.08-28.22h16.4m0-5h-16.4a5 5 0 0 0-3.94 1.92l-18.14 23.17-18-23.17a5 5 0 0 0-3.95-1.93h-16.55a5 5 0 0 0-3.94 8.08l31.28 39.91v34.41a5 5 0 0 0 5 5h12.83a5 5 0 0 0 5-5v-35.07l30.72-39.24a5 5 0 0 0-3.94-8.08zm0 10zm73.81-5v12.94h-38.7v19.41h38.7v12.83h-38.7v19.29h38.7v12.94h-51.53v-77.41h51.53m0-5h-51.53a5 5 0 0 0-5 5v77.41a5 5 0 0 0 5 5h51.53a5 5 0 0 0 5-5v-12.94a5 5 0 0 0-5-5h-33.7v-9.29h33.7a5 5 0 0 0 5-5v-12.84a5 5 0 0 0-5-5h-33.7v-9.41h33.7a5 5 0 0 0 5-5v-12.93a5 5 0 0 0-5-5zm61.01 5a25.81 25.81 0 0 1 9.81 49.63l16 27.77h-14.88L660.11 410h-21.86v25.76h-12.82v-77.39h38.7m0 38.7a12.33 12.33 0 0 0 9-3.79 12.88 12.88 0 0 0-9-22h-25.88V397l25.88.11m0-43.7h-38.7a5 5 0 0 0-5 5v77.41a5 5 0 0 0 5 5h12.83a5 5 0 0 0 5-5V415h14l13.5 23.27a5 5 0 0 0 4.32 2.49h14.82a5 5 0 0 0 4.34-7.49L680.87 410a30.72 30.72 0 0 0 8.57-8.43 30.8 30.8 0 0 0-25.31-48.21zm-20.88 22.94h20.88a7.95 7.95 0 0 1 7.83 7.83 7.48 7.48 0 0 1-2.33 5.61 7.36 7.36 0 0 1-5.49 2.33l-20.89-.12v-15.69z" transform="translate(80.89 -353.26)"/></svg>