<svg id="Layer_1" data-name="Layer 1" xmlns="http://www.w3.org/2000/svg" viewBox="0 0 162 162"><defs><style>.cls-1{fill:#fff}.cls-2{fill:#48beff}.cls-3{fill:none;stroke:#052f5f;stroke-linecap:round;stroke-linejoin:round;stroke-width:4px}</style></defs><title>athlete-avatar</title><circle class="cls-1" cx="81" cy="81" r="81"/><path class="cls-2" d="M1463.39 1333c28 12.83 29.5 61.83 55.5 69.33 14.9 3.33 26.16-7.59 35.5-26 4.07 23.58-2.62 45.41-29 64-5.85-4.34-6.86-11.72-18.5-12-35.5.5-58.06 1.21-64.5-4-23.88-45.19-10.68-72.68 21-91.33z" transform="translate(-1411.63 -1306)"/><circle class="cls-3" cx="81" cy="81.3" r="63.07"/><path class="cls-3" d="M1510.65 1327c27.61 18.93 14.92 103.69-25.19 122.22M1463.39 1333c24 8.67 31.67 62.67 56.67 70.33 20 3.33 34-25.33 34-25.33m-120.01-9.7c10.67 21 84.33 55 113 50.33m-106 4.67c13 15 66.67-7.33 84.33 17" transform="translate(-1411.63 -1306)"/></svg>