<svg id="Layer_1" data-name="Layer 1" xmlns="http://www.w3.org/2000/svg" viewBox="0 0 375.46 190.97"><defs><style>.cls-1{fill:#fff}.cls-2{fill:none;stroke:#fff;stroke-linecap:round;stroke-linejoin:round;stroke-width:2px;stroke-dasharray:5 4}</style></defs><title>box-salary-mobile</title><path class="cls-1" d="M4992 7149.49l-314.74 1a22.36 22.36 0 0 1-22.36-22.36v-131.25a22.36 22.36 0 0 1 22.36-22.36l314.74-1a22.36 22.36 0 0 1 22.36 22.36v131.25a22.36 22.36 0 0 1-22.36 22.36z" transform="translate(-4646.85 -6966.51)"/><path class="cls-2" d="M4999 7155.49l-328.74 1a22.36 22.36 0 0 1-22.36-22.36v-143.25a22.36 22.36 0 0 1 22.36-22.36l328.74-1a22.36 22.36 0 0 1 22.36 22.36v143.25a22.36 22.36 0 0 1-22.36 22.36z" transform="translate(-4646.85 -6966.51)"/></svg>