<svg id="Layer_1" data-name="Layer 1" xmlns="http://www.w3.org/2000/svg" viewBox="0 0 912.95 110"><defs><style>.cls-1{fill:#ff8948}.cls-2{fill:#4fb477}.cls-3{fill:#1be0db}.cls-4{fill:#ff4aa5}.cls-5{fill:#052f5f}</style></defs><title>dream-job</title><path class="cls-1" d="M737.29 311.07h32.62a46.81 46.81 0 0 1 18.92 3.93 50.16 50.16 0 0 1 26.2 26.2A48 48 0 0 1 815 379a51 51 0 0 1-10.52 15.6 49.23 49.23 0 0 1-15.6 10.59 47.26 47.26 0 0 1-19 3.88h-32.59v-98zm32.62 81.62a32.11 32.11 0 0 0 23.09-9.6 33.64 33.64 0 0 0 7-10.45 32.34 32.34 0 0 0 0-25.14 33.18 33.18 0 0 0-17.52-17.5 31.58 31.58 0 0 0-12.57-2.54h-16.38v65.24h16.38z" transform="translate(-736.53 -305.07)"/><path class="cls-2" d="M910 409.07l-18.92-32.62h-27.69v32.62h-16.24v-98h49a32.68 32.68 0 0 1 12.43 62.84l20.19 35.16H910zm-13.84-81.62h-32.77v32.48l32.76.14a15.62 15.62 0 0 0 11.44-4.8 15.78 15.78 0 0 0 4.8-11.58 16.4 16.4 0 0 0-16.23-16.24z" transform="translate(-736.53 -305.07)"/><path class="cls-3" d="M1022.26 311.07v16.38h-49V352h49v16.24h-49v24.43h49v16.38H957v-98h65.24z" transform="translate(-736.53 -305.07)"/><path class="cls-4" d="M1122.1 392.69h-45l-8.33 16.38h-18.27l49-98 49 98h-18.22zm-37-16.24h28.81l-14.4-28.81z" transform="translate(-736.53 -305.07)"/><path class="cls-1" d="M1193 350.47v58.6h-16.24v-98l49 49 49.14-49v98h-16.52v-58.6l-32.62 32.76z" transform="translate(-736.53 -305.07)"/><path class="cls-2" d="M1357.78 387.89a16.19 16.19 0 0 0 22.88.14 15.78 15.78 0 0 0 4.8-11.58v-65.38H1402v65.38a31.86 31.86 0 0 1-9.6 23.16 32.42 32.42 0 0 1-23.16 9.46 31.79 31.79 0 0 1-23.16-9.46z" transform="translate(-736.53 -305.07)"/><path class="cls-3" d="M1479.23 311.07a49.42 49.42 0 0 1 49.14 49 46.36 46.36 0 0 1-14.54 34.6 48.93 48.93 0 1 1-69.2-69.2q14.12-14.4 34.6-14.4zm0 16.38a32.65 32.65 0 1 0 32.62 32.62 32.79 32.79 0 0 0-32.62-32.62z" transform="translate(-736.53 -305.07)"/><path class="cls-4" d="M1629.62 360.07a27.38 27.38 0 0 1 8.61 20.48 28.11 28.11 0 0 1-8.33 20.19 27.5 27.5 0 0 1-20.19 8.33h-53.1v-98h53.1a28.69 28.69 0 0 1 28.53 28.53 27.67 27.67 0 0 1-8.62 20.47zm-19.91-32.62h-36.86V352h36.86a11.5 11.5 0 0 0 4.66-1 12.76 12.76 0 0 0 4-2.68 11.84 11.84 0 0 0 2.61-4 12.64 12.64 0 0 0 .92-4.8 12.29 12.29 0 0 0-.92-4.66 11.84 11.84 0 0 0-6.57-6.57 12.29 12.29 0 0 0-4.7-.84zm0 65.24a12.25 12.25 0 0 0 4.66-.92 11.84 11.84 0 0 0 6.57-6.57 12.27 12.27 0 0 0 .92-4.66 11.8 11.8 0 0 0-3.67-8.61 11.34 11.34 0 0 0-8.47-3.67h-36.86v24.43h36.86z" transform="translate(-736.53 -305.07)"/><path class="cls-5" d="M775.15 311.07a46.81 46.81 0 0 1 18.92 3.93 50.16 50.16 0 0 1 26.2 26.2 48 48 0 0 1 0 37.85 51 51 0 0 1-10.52 15.6 49.23 49.23 0 0 1-15.6 10.59 47.26 47.26 0 0 1-19 3.88h-32.62v-98h32.62m-16.38 81.62h16.38a32.11 32.11 0 0 0 23.09-9.6 33.64 33.64 0 0 0 7-10.45 32.34 32.34 0 0 0 0-25.14A33.18 33.18 0 0 0 787.72 330a31.58 31.58 0 0 0-12.57-2.54h-16.38v65.24m16.38-87.62h-32.62a6 6 0 0 0-6 6v98a6 6 0 0 0 6 6h32.62a53.44 53.44 0 0 0 21.38-4.38A55.43 55.43 0 0 0 814 398.82a57.16 57.16 0 0 0 11.75-17.42 54 54 0 0 0 0-42.65 56.16 56.16 0 0 0-29.29-29.29 53 53 0 0 0-21.32-4.38zm-10.38 28.38h10.38a25.75 25.75 0 0 1 10.2 2.06 27.18 27.18 0 0 1 14.36 14.36 25.75 25.75 0 0 1 2.06 10.21 25.4 25.4 0 0 1-2.06 10.2 27.82 27.82 0 0 1-5.75 8.6 26.38 26.38 0 0 1-8.47 5.75 26.11 26.11 0 0 1-10.35 2.06h-10.37v-53.25zm136.62-22.39a32.68 32.68 0 0 1 12.43 62.84L934 409.07h-18.77l-18.92-32.62h-27.68v32.62h-16.24v-98h49m0 49a15.62 15.62 0 0 0 11.44-4.8 15.78 15.78 0 0 0 4.8-11.58 16.4 16.4 0 0 0-16.24-16.24h-32.76v32.48l32.76.14m0-55h-49a6 6 0 0 0-6 6v98a6 6 0 0 0 6 6h16.24a6 6 0 0 0 6-6v-26.62h18.22L910 412.08a6 6 0 0 0 5.19 3H934a6 6 0 0 0 5.2-9l-17.08-29.73a38.52 38.52 0 0 0 11-10.76 38.66 38.66 0 0 0-31.77-60.53zm-26.76 28.38h26.76a10.4 10.4 0 0 1 10.24 10.24 9.79 9.79 0 0 1-3 7.34 9.63 9.63 0 0 1-7.18 3l-26.82-.03v-20.55zm152.87-22.38v16.38h-49V352h49v16.24h-49v24.43h49v16.38h-65.24v-98h65.24m0-6h-65.24a6 6 0 0 0-6 6v98a6 6 0 0 0 6 6h65.24a6 6 0 0 0 6-6v-16.36a6 6 0 0 0-6-6h-43v-12.43h43a6 6 0 0 0 6-6V352a6 6 0 0 0-6-6h-43v-12.55h43a6 6 0 0 0 6-6v-16.38a6 6 0 0 0-6-6zm77.24 6.02l49 98h-18.22l-8.19-16.38h-45l-8.33 16.38h-18.22l49-98m-14.4 65.38h28.81l-14.4-28.81-14.4 28.81m14.4-71.38a6 6 0 0 0-5.37 3.32l-49 98a6 6 0 0 0 5.37 8.68H1074a6 6 0 0 0 5.35-3.28l6.66-13.1h37.66l6.53 13.06a6 6 0 0 0 5.37 3.32h18.22a6 6 0 0 0 5.37-8.68l-49-98a6 6 0 0 0-5.37-3.32zm-4.7 65.38l4.7-9.39 4.7 9.39H1100zm180.04-59.38v98h-16.52v-58.6L1231 383.23l-32.76-32.76v58.6H1182v-98l49 49 49.14-49m-98.15-6a6 6 0 0 0-6 6v98a6 6 0 0 0 6 6h16.24a6 6 0 0 0 6-6V365l22.52 22.52a6 6 0 0 0 4.24 1.76 6 6 0 0 0 4.25-1.77l22.37-22.51v44.07a6 6 0 0 0 6 6h16.52a6 6 0 0 0 6-6v-98a6 6 0 0 0-10.24-4.25L1231 351.59l-44.77-44.77a6 6 0 0 0-4.24-1.76zm225.23 6v65.38a31.86 31.86 0 0 1-9.6 23.16 32.42 32.42 0 0 1-23.16 9.46 31.79 31.79 0 0 1-23.16-9.46l11.7-11.72a16.19 16.19 0 0 0 22.88.14 15.78 15.78 0 0 0 4.8-11.58v-65.38h16.52m0-6h-16.5a6 6 0 0 0-6 6v65.38a9.79 9.79 0 0 1-3 7.34 10.19 10.19 0 0 1-14.39-.14 6 6 0 0 0-4.24-1.76 6 6 0 0 0-4.24 1.76l-11.72 11.72a6 6 0 0 0 0 8.52 37.74 37.74 0 0 0 27.37 11.19 38.38 38.38 0 0 0 27.31-11.13l.12-.12a37.81 37.81 0 0 0 11.33-27.37v-65.39a6 6 0 0 0-6-6zm77.26 6a49.42 49.42 0 0 1 49.14 49 46.36 46.36 0 0 1-14.54 34.6 48.93 48.93 0 1 1-69.2-69.2q14.12-14.4 34.6-14.4m0 81.62a32.65 32.65 0 1 0-32.62-32.62 32.31 32.31 0 0 0 32.62 32.62m0-87.62c-15.25 0-28.33 5.44-38.86 16.18a54.93 54.93 0 1 0 77.68 77.68 52.35 52.35 0 0 0 16.32-38.86 55.42 55.42 0 0 0-55.14-55zm-18.92 36.23a25.86 25.86 0 0 1 18.92-7.85 26.79 26.79 0 0 1 26.62 26.62 26.62 26.62 0 1 1-45.54-18.78zm149.41-30.23a28.69 28.69 0 0 1 28.53 28.53 27.67 27.67 0 0 1-8.61 20.48 27.38 27.38 0 0 1 8.61 20.48 28.11 28.11 0 0 1-8.33 20.19 27.5 27.5 0 0 1-20.19 8.33h-53.1v-98h53.1m-36.86 41h36.86a11.5 11.5 0 0 0 4.66-1 12.76 12.76 0 0 0 4-2.68 11.84 11.84 0 0 0 2.61-4 12.64 12.64 0 0 0 .92-4.8 12.29 12.29 0 0 0-.92-4.66 11.84 11.84 0 0 0-6.57-6.57 12.29 12.29 0 0 0-4.66-.92h-36.86V352m0 40.67H1615a12.25 12.25 0 0 0 4.66-.92 11.84 11.84 0 0 0 6.57-6.57 12.27 12.27 0 0 0 .92-4.66 11.8 11.8 0 0 0-3.67-8.61 11.34 11.34 0 0 0-8.47-3.67h-36.86v24.43m36.86-87.62h-53.1a6 6 0 0 0-6 6v98a6 6 0 0 0 6 6h53.1a33.43 33.43 0 0 0 24.38-10.05l.07-.07a34 34 0 0 0 10-24.36 33.26 33.26 0 0 0-6.64-20.5 34.63 34.63 0 0 0-27.88-55zm-30.86 28.38h30.86a6.29 6.29 0 0 1 2.4.48 5.84 5.84 0 0 1 3.27 3.27 6.28 6.28 0 0 1 .47 2.4 6.63 6.63 0 0 1-.48 2.54 5.84 5.84 0 0 1-1.3 2 6.75 6.75 0 0 1-2.11 1.43 5.52 5.52 0 0 1-2.26.49h-30.86v-12.59zm0 40.81h30.86a5.39 5.39 0 0 1 4.15 1.83l.08.08a5.83 5.83 0 0 1 1.92 4.37 6.27 6.27 0 0 1-.48 2.4 5.84 5.84 0 0 1-3.27 3.27 6.26 6.26 0 0 1-2.4.48h-30.86v-12.41z" transform="translate(-736.53 -305.07)"/></svg>