<svg id="Layer_1" data-name="Layer 1" xmlns="http://www.w3.org/2000/svg" viewBox="0 0 1228.41 789.2"><defs><style>.cls-1,.cls-12,.cls-16,.cls-17,.cls-2,.cls-3,.cls-4,.cls-5,.cls-6,.cls-7,.cls-8{fill:none}.cls-1,.cls-2,.cls-3,.cls-4,.cls-5,.cls-6,.cls-7,.cls-8,.cls-9{stroke:#1be0db}.cls-1,.cls-11,.cls-12,.cls-17,.cls-19,.cls-2,.cls-3,.cls-4,.cls-5,.cls-6,.cls-7,.cls-8,.cls-9{stroke-linecap:round}.cls-1,.cls-11,.cls-12,.cls-16,.cls-17,.cls-19,.cls-2,.cls-3,.cls-4,.cls-5,.cls-6,.cls-7,.cls-8,.cls-9{stroke-linejoin:round}.cls-1,.cls-11,.cls-12,.cls-16,.cls-19,.cls-2,.cls-3,.cls-4,.cls-5,.cls-6,.cls-7,.cls-8,.cls-9{stroke-width:4px}.cls-2{stroke-dasharray:5 7.99}.cls-3{stroke-dasharray:5.02 8.03}.cls-4{stroke-dasharray:5.01 8.02}.cls-5{stroke-dasharray:4.99 7.98}.cls-6{stroke-dasharray:4.99 7.99}.cls-7{stroke-dasharray:5.04 8.07}.cls-8{stroke-dasharray:4.93 7.89}.cls-10,.cls-9{fill:#fff}.cls-9{stroke-dasharray:5 8}.cls-11{fill:#ff574a}.cls-11,.cls-12,.cls-16,.cls-19{stroke:#052f5f}.cls-13{fill:#052f5f}.cls-14{fill:#48beff}.cls-15{fill:#b3dd1d}.cls-17{stroke:#4a64ff;stroke-width:4.42px}.cls-18{fill:#1be0db}.cls-19{fill:#ffd447}</style></defs><title>hero-bg</title><path class="cls-1" d="M652.26 2v2.5"/><path class="cls-2" d="M1231.06-.9v156.8a22.67 22.67 0 0 0 22.67 22.67H1470a22.67 22.67 0 0 1 22.67 22.67v41.54a22.67 22.67 0 0 0 22.67 22.67H1662a22.67 22.67 0 0 1 22.67 22.67v158.72a22.67 22.67 0 0 1-22.67 22.68h-61.24a22.67 22.67 0 0 0-22.67 22.67v63.25a22.67 22.67 0 0 1-22.67 22.67h-186.68a22.67 22.67 0 0 0-22.67 22.67V761.5" transform="translate(-578.8 13.39)"/><path class="cls-1" d="M767.27 778.89v2.5M652.26 103.43h2.5"/><path class="cls-3" d="M1241.58 90h220.21a22.67 22.67 0 0 1 22.67 22.67 22.67 22.67 0 0 1-22.67 22.67h-19.36a22.67 22.67 0 0 1-22.67-22.67V6.51" transform="translate(-578.8 13.39)"/><path class="cls-1" d="M840.96 15.89v-2.5M1152.42 2v2.5"/><path class="cls-4" d="M1152.42 12.52v321.81"/><path class="cls-1" d="M1152.42 338.34v2.5M753.87 2v2.5"/><path class="cls-5" d="M1332.67-.91v24.12a22.67 22.67 0 0 0 22.67 22.67h200.08a22.67 22.67 0 0 1 22.67 22.67v37.66" transform="translate(-578.8 13.39)"/><path class="cls-1" d="M999.29 123.61v2.5m188.93 267.76v2.5"/><path class="cls-6" d="M1767 391v217a22.67 22.67 0 0 1-22.67 22.67h-307.86a22.67 22.67 0 0 0-22.67 22.67v114" transform="translate(-578.8 13.39)"/><path class="cls-1" d="M835 784.7v2.5m91.88-196.67v2.5"/><path class="cls-7" d="M1505.68 587.71v122.86a22.67 22.67 0 0 0 22.67 22.67h270.31" transform="translate(-578.8 13.39)"/><path class="cls-1" d="M1223.91 746.63h2.5"/><circle class="cls-8" cx="996.29" cy="173.1" r="49"/><circle class="cls-9" cx="1151.42" cy="370.84" r="49"/><circle class="cls-10" cx="1103.42" cy="639.54" r="49"/><circle class="cls-8" cx="1103.42" cy="639.54" r="49"/><path class="cls-1" d="M576.15 2v2.5"/><path class="cls-2" d="M1154.94-.9v156.8a22.67 22.67 0 0 1-22.67 22.67H916a22.67 22.67 0 0 0-22.67 22.67v41.54a22.67 22.67 0 0 1-22.67 22.67H724a22.67 22.67 0 0 0-22.67 22.67v158.72A22.67 22.67 0 0 0 724 469.52h61.24a22.67 22.67 0 0 1 22.67 22.67v63.25a22.67 22.67 0 0 0 22.67 22.67h186.68a22.67 22.67 0 0 1 22.67 22.67V761.5" transform="translate(-578.8 13.39)"/><path class="cls-1" d="M461.14 778.89v2.5m115.01-677.96h-2.5"/><path class="cls-3" d="M1144.42 90H924.21a22.67 22.67 0 0 0-22.67 22.67 22.67 22.67 0 0 0 22.67 22.67h19.36a22.67 22.67 0 0 0 22.67-22.67V6.51" transform="translate(-578.8 13.39)"/><path class="cls-1" d="M387.44 15.89v-2.5M75.99 2v2.5"/><path class="cls-4" d="M75.99 12.52v321.81"/><path class="cls-1" d="M75.99 338.34v2.5M474.54 2v2.5"/><path class="cls-5" d="M1053.33-.91v24.12a22.67 22.67 0 0 1-22.67 22.67H830.58a22.67 22.67 0 0 0-22.67 22.67v37.66" transform="translate(-578.8 13.39)"/><path class="cls-1" d="M229.11 123.61v2.5M40.19 393.87v2.5"/><path class="cls-6" d="M619 391v217a22.67 22.67 0 0 0 22.67 22.67h307.86a22.67 22.67 0 0 1 22.67 22.67v114" transform="translate(-578.8 13.39)"/><path class="cls-1" d="M393.41 784.7v2.5m-91.89-196.67v2.5"/><path class="cls-7" d="M880.32 587.71v122.86a22.67 22.67 0 0 1-22.67 22.67H587.33" transform="translate(-578.8 13.39)"/><path class="cls-1" d="M4.5 746.63H2"/><circle class="cls-8" cx="232.11" cy="173.1" r="49"/><circle class="cls-9" cx="76.99" cy="370.84" r="49"/><circle class="cls-10" cx="124.99" cy="639.54" r="49"/><circle class="cls-8" cx="124.99" cy="639.54" r="49"/><rect class="cls-11" x="619.93" y="332.06" width="22.71" height="5.52" rx="2.76" ry="2.76" transform="rotate(152.89 340.28 271.725)"/><path class="cls-12" d="M639.83 366.38c2.6 4.53 8.34 2.37 10.58 5.66-1.69-3.84 3.69-5.77 1.21-11.69l-13.25-25.88-11.79 6z" transform="translate(-578.8 13.39)"/><path class="cls-12" d="M69.46 368.81l-10.97 5.61m13.11 11.01l8.43 16.45"/><path class="cls-13" transform="rotate(152.89 368.66 327.04)" d="M657.7 386.81h3.94v6.65h-3.94z"/><rect class="cls-11" x="666.92" y="332.06" width="22.71" height="5.52" rx="2.76" ry="2.76" transform="rotate(27.11 361.175 -858.79)"/><path class="cls-12" d="M669.74 366.38c-2.6 4.53-8.34 2.37-10.58 5.66 1.69-3.84-3.69-5.77-1.21-11.69l13.25-25.88 11.79 6z" transform="translate(-578.8 13.39)"/><path class="cls-12" d="M82.51 368.81l10.97 5.61m-13.11 11.01l-8.43 16.45"/><path class="cls-13" transform="rotate(27.11 332.8 -803.453)" d="M647.93 386.81h3.94v6.65h-3.94z"/><path class="cls-14" d="M688.26 597.29c14.87 6.81 15.66 32.83 29.47 36.82 7.91 1.77 13.89-4 18.85-13.81 2.16 12.52-1.39 24.11-15.4 34-3.11-2.31-3.64-6.22-9.82-6.37-18.85.27-30.83.64-34.25-2.12-12.68-24-5.67-38.6 11.15-48.52z" transform="translate(-578.8 13.39)"/><circle class="cls-12" cx="124.99" cy="639.54" r="33.49"/><path class="cls-12" d="M713.36 594.14C728 604.19 721.28 649.19 700 659m-11.74-61.71c12.74 4.6 16.81 33.28 30.09 37.35 10.62 1.77 18.05-13.45 18.05-13.45m-63.72-5.13c5.66 11.15 44.78 29.2 60 26.73m-56.28 2.47c6.9 8 35.4-3.89 44.78 9" transform="translate(-578.8 13.39)"/><path class="cls-15" d="M1570.44 128.23l14.46 14.16-12.29 11.8s-14.95-14.55-14.36-15.14 12.19-10.82 12.19-10.82z" transform="translate(-578.8 13.39)"/><path class="cls-16" transform="rotate(-44.32 1300.348 857.5)" d="M1564.04 129.76h18.46v20.96h-18.46z"/><path class="cls-15" d="M997.84 193.4h23.74l-2.36 2.36-22.12.74.74-3.1z"/><path class="cls-12" d="M1557.5 137.5l-2.15-2.2c-1-1.05-.72-3 .68-4.39l8.12-7.93c1.4-1.37 3.37-1.63 4.4-.58l2.15 2.2m30.01 57.4l-.05-2.38c-.07-1.47-2.23-2.55-4.82-2.42h-15c-2.59.13-4.63 2.17-4.55 3.64v1.32m-.83-26.27l2.15 2.2c1 1.05 3 .79 4.4-.58l8.12-7.93c1.4-1.37 1.71-3.33.68-4.39l-2.15-2.2" transform="translate(-578.8 13.39)"/><path class="cls-15" d="M962.44 184.69l18.29-17.55 1.84.53.52.8-2.07 3.39-18.88 17.7-1.77-.86-.29-1.35 2.36-2.66zm30.23 16.08l34.08-.44 2.65 2.51-40.56.59 1.18-2.21 2.65-.45z"/><path class="cls-16" d="M987.86 160.69l-6.19 6.04"/><rect class="cls-16" x="1534.3" y="161.28" width="30.45" height="5.7" rx="2.09" ry="2.09" transform="rotate(-44.32 1276.609 881.381)"/><path class="cls-16" d="M1568.8 190.29l39-.22c1.63 0-2.64-7.53-5.62-7.68l-29.1.47c-1.88.52-7 7.66-4.28 7.43z" transform="translate(-578.8 13.39)"/><path class="cls-12" d="M1722.32 397.39c0-5.9 2.06-18-1.77-18-3.31-1.58-12.69 4.72-11.8-17.11.59-2.95-3.83-2.06-7.08-2.36-1.29-3.16 3-10.54 3-14.16a27.14 27.14 0 0 1 54.28 0c0 3.49 1.33 17-5.31 23.6s-5 14.75-4.42 27.73" transform="translate(-578.8 13.39)"/><path class="cls-17" d="M1730.22 364.65a18.73 18.73 0 1 0-18.73-18.73c-.3 14.31 21.83 17.85 21.83 1.92-.59-14.75-16.52-4.72-9.14 0" transform="translate(-578.8 13.39)"/><path class="cls-12" d="M1092.79 653.21l-9.91-9.91 9.91-9.91m21.41 19.82l9.91-9.91-9.91-9.91m-5.57-.15l-9.84 20.91"/><path class="cls-12" d="M1071.6 616.97h63.63v44.34h-63.63z"/><path class="cls-13" d="M1071.6 616.97h63.63v9.51h-63.63z"/><circle class="cls-18" cx="1120.83" cy="621.34" r="1.93"/><circle class="cls-18" cx="1125.73" cy="621.34" r="1.93"/><circle class="cls-18" cx="1130.64" cy="621.34" r="1.93"/><path class="cls-19" d="M843.5 148.2a29.36 29.36 0 0 0-17.15-20.44l-11.41 27z" transform="translate(-578.8 13.39)"/><path class="cls-12" d="M805.62 163L817 136a29.34 29.34 0 1 0 17.15 20.44z" transform="translate(-578.8 13.39)"/></svg>