<svg id="Layer_1" data-name="Layer 1" xmlns="http://www.w3.org/2000/svg" viewBox="0 0 162 162"><defs><style>.cls-1{fill:#fff}.cls-2{fill:#b3dd1d}.cls-3,.cls-4{fill:none;stroke:#052f5f;stroke-linejoin:round;stroke-width:4px}.cls-4{stroke-linecap:round}</style></defs><title>lawyer</title><circle class="cls-1" cx="81" cy="81" r="81"/><path class="cls-2" d="M781.22 1088.33l24.5 24-20.83 20s-25.33-24.67-24.33-25.67 20.66-18.33 20.66-18.33z" transform="translate(-712.5 -1058)"/><path class="cls-3" transform="rotate(-44.32 -869.076 1454.407)" d="M770.38 1090.92h31.28v35.53h-31.28z"/><path class="cls-2" d="M79.22 118.08h40.25l-4 4-37.5 1.25 1.25-5.25z"/><path class="cls-4" d="M759.28 1104l-3.64-3.72c-1.74-1.78-1.22-5.11 1.16-7.43l13.76-13.44c2.38-2.32 5.72-2.76 7.46-1l3.64 3.72m50.87 97.26l-.09-4c-.12-2.49-3.78-4.33-8.17-4.11h-25.36c-4.39.22-7.84 3.68-7.72 6.16v2.24m-1.47-44.47l3.64 3.72c1.74 1.78 5.08 1.34 7.46-1l13.76-13.44c2.38-2.32 2.9-5.65 1.16-7.43l-3.64-3.72" transform="translate(-712.5 -1058)"/><path class="cls-2" d="M19.21 103.33l31.01-29.75 3.12.9.88 1.35-3.5 5.75-32.01 30-3-1.46-.5-2.29 4-4.5zm51.26 27.25l57.75-.75 4.5 4.25-68.75 1 2-3.75 4.5-.75z"/><path class="cls-3" d="M62.31 62.64L51.82 72.89"/><rect class="cls-3" x="719.97" y="1144.34" width="51.61" height="9.66" rx="3.55" ry="3.55" transform="rotate(-44.32 -909.313 1494.9)"/><path class="cls-3" d="M778.44 1193.5l66.14-.37c2.76 0-4.47-12.76-9.52-13l-49.32.8c-3.24.87-11.91 12.98-7.3 12.57z" transform="translate(-712.5 -1058)"/></svg>