<svg id="Layer_1" data-name="Layer 1" xmlns="http://www.w3.org/2000/svg" viewBox="0 0 115 115"><defs><style>.cls-1{opacity:.35}.cls-2{fill:#757779}.cls-3{fill:#fff}.cls-4{fill:#ff574a}.cls-5{fill:#052f5f}.cls-6{fill:#ff4aa5}</style></defs><title>lawyer-lsat</title><circle class="cls-1 cls-2" cx="57.5" cy="57.5" r="57.5"/><path class="cls-3" d="M25.6 8.65h64.41V92H25.6z"/><path class="cls-4" d="M26.23 9.34h10.94v83H26.23zm13.51 0h2.79v83h-2.79z"/><path class="cls-5" d="M1104.5 2694.51h-64.4a2 2 0 0 1-2-2v-83.35a2 2 0 0 1 2-2h64.41a2 2 0 0 1 2 2v83.35a2 2 0 0 1-2.01 2zm-62.41-4h60.41v-79.35h-60.4v79.35z" transform="translate(-1014.5 -2599.75)"/><path class="cls-6" d="M1059.79 2634.39h1.74v8.76h5.26v1.76h-7v-10.52zm13.1 6.14a3.06 3.06 0 0 1-2.17-5.23 2.89 2.89 0 0 1 2.17-.91h5.7v1.76h-5.7a1.36 1.36 0 0 0-.52.1 1.27 1.27 0 0 0-.42.28 1.25 1.25 0 0 0-.28.42 1.34 1.34 0 0 0 .28 1.44 1.25 1.25 0 0 0 .94.39h2.62a3.06 3.06 0 1 1 0 6.12h-5.68v-1.76h5.68a1.36 1.36 0 0 0 .51-.1 1.32 1.32 0 0 0 .42-.27 1.19 1.19 0 0 0 .28-.42 1.36 1.36 0 0 0 .1-.52 1.27 1.27 0 0 0-.39-.92 1.24 1.24 0 0 0-.92-.39h-2.62zm15.53 2.62h-4.83l-.89 1.76h-2l5.26-10.52 5.26 10.52h-2zm-4-1.74h3.09l-1.55-3.09zm6.32-7.02h8.78v1.76H1096v8.76h-1.76v-8.76h-3.52v-1.76z" transform="translate(-1014.5 -2599.75)"/><path class="cls-5" d="M1101.42 2707.88l-51.9-.91a2 2 0 0 1-2-2l.1-5.58a2 2 0 0 1 .61-1.4 2.14 2.14 0 0 1 1.42-.56l51.9.91a2 2 0 0 1 2 2l-.1 5.58a2 2 0 0 1-2.03 1.96zm-49.86-4.88l47.9.84v-1.58l-47.9-.84z" transform="translate(-1014.5 -2599.75)"/><path class="cls-5" d="M1095.2 2707.77a2 2 0 0 1-2-2l.1-5.58a2 2 0 0 1 2-2 2 2 0 0 1 2 2l-.1 5.58a2 2 0 0 1-2 2zm-45.97-10.38s-11 3.48-11 4.6 11.05 5 11.05 5v-9.58z" transform="translate(-1014.5 -2599.75)"/><path class="cls-4" transform="rotate(91.01 1868.283 904.725)" d="M1095.57 2699.93h5.58v6.22h-5.58z"/></svg>