<svg id="Layer_1" data-name="Layer 1" xmlns="http://www.w3.org/2000/svg" viewBox="0 0 115 115"><defs><style>.cls-1{opacity:.35}.cls-2{fill:#757779}.cls-3{fill:#052f5f}</style></defs><title>lawyer-university</title><circle class="cls-1 cls-2" cx="57.5" cy="57.5" r="57.5"/><path class="cls-3" d="M1102.75 2878.89a44.2 44.2 0 0 0 2.69-5.17c6.76 2.2 11.25-1.26 13.47-9.14-5 .08-8.84 1.28-11.47 3.65a44.17 44.17 0 0 0 1.34-6.4c6 .35 9.23-3.6 9.81-10.87-4.24.91-7.4 2.52-9.42 4.86a54 54 0 0 0-.29-5.86c5.07-.63 7.29-4.15 6.91-9.85-3.59 1.3-6.14 3-7.59 5.15q-.57-3.11-1.47-6.32c4.28-1.32 5.76-4.8 4.72-9.87a14.61 14.61 0 0 0-6.15 5.29 97.36 97.36 0 0 0-3.85-9.46 2.51 2.51 0 0 0-4.54 2.13 92.48 92.48 0 0 1 3.61 8.84 14.65 14.65 0 0 0-7.71-2.07c1.31 5.25 4.36 7.74 9.16 6.74q.72 2.62 1.21 5.16a15.73 15.73 0 0 0-7.84-3.27c.63 5.7 3.45 8.78 8.6 8.48a48.29 48.29 0 0 1 .21 5.62c-1.67-2.84-4.71-5-9-6.65-.3 7.34 2.45 11.74 8.55 12.22a38.94 38.94 0 0 1-1.15 5.14c-1.21-3.24-3.92-6.11-8-8.63-1.77 7.39 0 12.49 5.81 14.42a40.33 40.33 0 0 1-2.75 4.77c-.39-4.14-2.82-8.18-7.15-12.12-3.49 7.74-2.61 13.71 3.34 17.05a55.17 55.17 0 0 1-5.44 5.3c1.13-5-.49-10.48-4.65-16.38-5.88 7.87-6.19 14.8.09 20a89.2 89.2 0 0 1-11.7 7 89.21 89.21 0 0 1-11.7-7c6.28-5.16 6-12.09.09-20-4.17 5.89-5.78 11.37-4.65 16.38a55.14 55.14 0 0 1-5.44-5.3c5.95-3.34 6.83-9.31 3.34-17.05-4.33 3.93-6.76 8-7.15 12.12a40.28 40.28 0 0 1-2.75-4.77c5.8-1.93 7.57-7 5.81-14.42-4.12 2.52-6.84 5.39-8 8.63a38.94 38.94 0 0 1-1.15-5.14c6.1-.48 8.85-4.88 8.55-12.22-4.33 1.61-7.37 3.81-9 6.65a48.29 48.29 0 0 1 .21-5.62c5.14.31 8-2.77 8.6-8.48a15.73 15.73 0 0 0-7.84 3.27c.32-1.69.73-3.41 1.21-5.16 4.8 1 7.85-1.49 9.16-6.74a14.64 14.64 0 0 0-7.71 2.07 92.56 92.56 0 0 1 3.61-8.84 2.51 2.51 0 0 0-4.54-2.13 97.34 97.34 0 0 0-3.85 9.46 14.61 14.61 0 0 0-6.15-5.29c-1 5.06.44 8.54 4.72 9.87q-.9 3.21-1.47 6.32c-1.45-2.14-4-3.86-7.59-5.15-.38 5.7 1.84 9.22 6.91 9.85a54 54 0 0 0-.29 5.87c-2-2.35-5.18-4-9.42-4.86.58 7.27 3.8 11.21 9.81 10.87a44.19 44.19 0 0 0 1.34 6.4c-2.63-2.37-6.48-3.57-11.47-3.65 2.21 7.88 6.71 11.34 13.47 9.14a44.23 44.23 0 0 0 2.69 5.17c-3.37-2-7.81-2.46-13.24-1.52 4.16 8.35 10 11.15 17.12 7a55.59 55.59 0 0 0 4.18 4.57c-4-1.07-8.75-.46-14.14 1.76 6.56 8.1 13.56 9.78 20.35 3.59a86.89 86.89 0 0 0 10.8 7c-2.31 1-4.7 2-7.21 2.93a2.51 2.51 0 1 0 1.76 4.7c4-1.48 7.65-3.06 11.13-4.72 3.48 1.66 7.18 3.24 11.13 4.72a2.49 2.49 0 0 0 .88.16 2.51 2.51 0 0 0 .88-4.86c-2.51-.94-4.9-1.92-7.21-2.93a86.86 86.86 0 0 0 10.8-7c6.79 6.19 13.8 4.51 20.35-3.59-5.39-2.22-10.12-2.83-14.14-1.76a55.51 55.51 0 0 0 4.18-4.57c7.15 4.17 13 1.37 17.12-7-5.63-.95-10.07-.47-13.44 1.51z" transform="translate(-1014.5 -2804.75)"/></svg>