<svg id="Layer_1" data-name="Layer 1" xmlns="http://www.w3.org/2000/svg" viewBox="0 0 566.25 94.11"><defs><style>.cls-1{fill:#fff}.cls-2{fill:#052f5f}</style></defs><title>lawyer</title><path class="cls-1" d="M910.88 1991.91h13.94V2062h42.06v14h-56v-84.11zm141.67 70.09h-38.66l-7.15 14.06h-15.63l42.05-84.11 42.05 84.11h-15.63zm-31.75-14h24.72l-12.36-24.72zm53.81-56.09l26.54 52.72 26.3-52.72 26.42 52.72 26.42-52.72h15.63l-42.05 84.09-26.42-52.72-26.3 52.72-42.15-84.09h15.63zm200.18 0h17.82l-34.54 44.09v40h-13.94v-39.27l-35.13-44.82h17.94l23.88 30.66zm98.05 0V2006h-42.05v21.09h42.05V2041h-42.05v21h42.05v14h-56v-84.11h56zM1451 2076l-16.24-28H1411v28h-13.94v-84.11h42.06a28 28 0 0 1 10.67 53.93l17.33 30.18H1451zm-11.87-70H1411v27.88l28.12.12a13.4 13.4 0 0 0 9.82-4.12 13.55 13.55 0 0 0 4.12-9.94 14.07 14.07 0 0 0-13.93-13.94z" transform="translate(-909.88 -1986.91)"/><path class="cls-2" d="M928.81 1991.91V2062h42.06v14h-56v-84.11h13.94m0-5h-13.93a5 5 0 0 0-5 5V2076a5 5 0 0 0 5 5h56a5 5 0 0 0 5-5v-14a5 5 0 0 0-5-5h-37.07v-65.05a5 5 0 0 0-5-5zm108.35 5.02l42.05 84.11h-15.63l-7-14.06h-38.66l-7.15 14.06h-15.66l42.05-84.11M1024.8 2048h24.72l-12.36-24.72-12.36 24.72m12.36-61.11a5 5 0 0 0-4.47 2.76l-42.05 84.11a5 5 0 0 0 4.47 7.24h15.63a5 5 0 0 0 4.46-2.73l5.8-11.27h32.5l5.65 11.29a5 5 0 0 0 4.47 2.76h15.63a5 5 0 0 0 4.47-7.24l-42.05-84.11a5 5 0 0 0-4.47-2.76zm-4.27 56.11l4.27-8.54 4.27 8.54h-8.54zm167.04-51.09l-42.06 84.09-26.42-52.72-26.3 52.72-42.15-84.09h15.63l26.54 52.72 26.3-52.72 26.42 52.72 26.42-52.72h15.63m-68.48-5a5 5 0 0 0-4.47 2.77l-21.85 43.79-22.06-43.81a5 5 0 0 0-4.47-2.75H1063a5 5 0 0 0-4.47 7.24l42.18 84.11a5 5 0 0 0 4.47 2.76 5 5 0 0 0 4.47-2.77l21.84-43.77 21.94 43.78a5 5 0 0 0 4.47 2.76 5 5 0 0 0 4.47-2.76l42-84a5 5 0 0 0-4.39-7.38h-15.64a5 5 0 0 0-4.47 2.76l-21.95 43.8-22-43.8a5 5 0 0 0-4.47-2.76zm68.48 10zm96.67-5l-34.54 44.09v40h-13.94v-39.27l-35.13-44.82h17.94l23.88 30.66 24-30.66h17.82m0-5h-17.82a5 5 0 0 0-3.94 1.92l-20 25.62-19.94-25.61a5 5 0 0 0-3.95-1.93H1213a5 5 0 0 0-4 8.09l34.08 43.48V2076a5 5 0 0 0 5 5h13.94a5 5 0 0 0 5-5v-38.27l33.48-42.76a5 5 0 0 0-3.94-8.08zm0 10zm80.2-5V2006h-42.05v21.09h42.05V2041h-42.05v21h42.05v14h-56v-84.11h56m0-5h-56a5 5 0 0 0-5 5V2076a5 5 0 0 0 5 5h56a5 5 0 0 0 5-5v-14a5 5 0 0 0-5-5h-37.05v-11h37.05a5 5 0 0 0 5-5v-13.94a5 5 0 0 0-5-5h-37.05V2011h37.05a5 5 0 0 0 5-5v-14.06a5 5 0 0 0-5-5zm66.29 5.02a28 28 0 0 1 10.67 53.93l17.33 30.18H1455l-16.24-28H1415v28h-13.94v-84.11h42.06m0 42.06a13.4 13.4 0 0 0 9.82-4.12 13.55 13.55 0 0 0 4.12-9.94 14.07 14.07 0 0 0-13.94-13.94H1415v27.88l28.12.12m0-47.06h-42.06a5 5 0 0 0-5 5V2076a5 5 0 0 0 5 5H1415a5 5 0 0 0 5-5v-23h15.87l14.8 25.5a5 5 0 0 0 4.33 2.5h16.12a5 5 0 0 0 4.34-7.49l-14.73-25.64a32.87 32.87 0 0 0 9.54-9.27 33 33 0 0 0-27.14-51.71zM1420 2011h23.12a9.07 9.07 0 0 1 8.94 8.94 8.54 8.54 0 0 1-2.66 6.4 8.4 8.4 0 0 1-6.27 2.66l-23.13-.1V2011z" transform="translate(-909.88 -1986.91)"/></svg>