<svg id="Layer_1" data-name="Layer 1" xmlns="http://www.w3.org/2000/svg" viewBox="0 0 162 162"><defs><style>.cls-1{opacity:.75}.cls-2{fill:#fff}.cls-3{fill:#ff574a}.cls-4,.cls-5{fill:none;stroke:#052f5f;stroke-linejoin:round;stroke-width:4px}.cls-5{stroke-linecap:round}</style></defs><title>lawyer-avatar-stat</title><circle class="cls-1 cls-2" cx="81" cy="81" r="81"/><path class="cls-3" d="M1182 1815l24.5 24-20.83 20s-25.33-24.67-24.33-25.67S1182 1815 1182 1815z" transform="translate(-1112 -1786)"/><path class="cls-4" transform="rotate(-44.32 -1561.756 2307.544)" d="M1171.16 1817.59h31.28v35.53h-31.28z"/><path class="cls-3" d="M80.5 116.75h40.25l-4 4-37.5 1.25 1.25-5.25z"/><path class="cls-5" d="M1160.07 1830.71l-3.64-3.72c-1.74-1.78-1.22-5.11 1.16-7.43l13.76-13.44c2.38-2.32 5.72-2.76 7.46-1l3.64 3.72m50.86 97.23l-.09-4c-.12-2.49-3.78-4.33-8.17-4.11h-25.37c-4.39.22-7.84 3.68-7.72 6.16v2.24m-1.46-44.48l3.64 3.72c1.74 1.78 5.08 1.34 7.46-1l13.76-13.44c2.38-2.32 2.9-5.65 1.16-7.43l-3.64-3.72" transform="translate(-1112 -1786)"/><path class="cls-3" d="M20.5 102l31-29.75 3.12.9.88 1.35-3.5 5.75-32 30-3.01-1.46-.49-2.29 4-4.5zm51.25 27.25l57.75-.75 4.5 4.25-68.75 1 2-3.75 4.5-.75z"/><path class="cls-4" d="M63.6 61.31L53.11 71.56"/><rect class="cls-4" x="1120.75" y="1871.02" width="51.61" height="9.66" rx="3.55" ry="3.55" transform="rotate(-44.32 -1602.01 2348.044)"/><path class="cls-4" d="M1179.23 1920.17l66.14-.37c2.76 0-4.47-12.76-9.52-13l-49.32.8c-3.25.87-11.92 12.98-7.3 12.57z" transform="translate(-1112 -1786)"/></svg>