<svg id="Layer_1" data-name="Layer 1" xmlns="http://www.w3.org/2000/svg" viewBox="0 0 151.97 115"><defs><style>.cls-1{opacity:.35}.cls-2{fill:#757779}.cls-3{fill:#fff}.cls-4{fill:#ff574a}.cls-5{fill:none;stroke:#052f5f;stroke-linecap:round;stroke-linejoin:round;stroke-width:4px}</style></defs><title>lawyer-degree</title><circle class="cls-1 cls-2" cx="83.97" cy="57.5" r="57.5"/><path class="cls-3" d="M1124.12 2427.55l-122.36-1.55c6.75-3.65 18.88 20.56 3.26 29.67 1.58-.19 127-.74 127-.74 7.98-12.93 8.04-27.46-7.9-27.38z" transform="translate(-988.03 -2387.5)"/><path class="cls-4" d="M1070.78 2455H1086c4-8 5.81-16.71 0-27.65h-15.25c8.75 8.65 7.09 17.97.03 27.65z" transform="translate(-988.03 -2387.5)"/><path class="cls-4" d="M93.33 105.17l-1.08-36.42-13-.5-.75 38 7-10.75 7.83 9.67z"/><path class="cls-5" d="M1001.36 2456c41.28-1.24 82.93-.94 124.9.61m.43-30.61c-40.76 2-82.58 2-125.33 0" transform="translate(-988.03 -2387.5)"/><path class="cls-5" d="M1000 2448.25c12.75-18.25-9-20-10-7.25 0 8.28 5.25 15 11.74 15s11.74-6.72 11.74-15-5.25-15-11.74-15m124.52 30.61c6.48 0 11.74-6.85 11.74-15.31s-5.25-15.31-11.74-15.31m-43.48 1.51c9 0 9.5 26.25 1.5 27.5m-15-27.5c9 0 9.5 26.25 1.5 27.5m11.22 39c-1.89-1.51-3.71-38.12-1.75-37.75l-13-.5c-2.06 10.53-1.84 23.76-.75 38l7-10.75zm-15.5-43.75c-16-.36-32.47-.31-49.25 0" transform="translate(-988.03 -2387.5)"/><path class="cls-5" d="M105.22 63l32.75 1"/></svg>