<svg id="Layer_1" data-name="Layer 1" xmlns="http://www.w3.org/2000/svg" viewBox="0 0 162 162"><defs><style>.cls-1{fill:#fff}.cls-2{fill:none;stroke:#052f5f;stroke-width:4px}.cls-2,.cls-3{stroke-linecap:round;stroke-linejoin:round}.cls-3,.cls-5{fill:#4fb477}.cls-3{stroke:#4fb477;stroke-width:4.42px}.cls-4{fill:#052f5f}</style></defs><title>physician-avatar</title><circle class="cls-1" cx="81" cy="81" r="81"/><path class="cls-2" d="M47.53 30.9l8.85-4.72L89.1 87.56l-37.51 19.99-32.71-61.38 9.16-4.88"/><path class="cls-3" transform="rotate(-28.06 -1333.15 3594.707)" d="M1536.74 1096.43h5.6v5.71h-5.6z"/><path class="cls-3" transform="rotate(-28.06 -1313.672 3584.31)" d="M1556.23 1086.04h5.6v5.71h-5.6z"/><path class="cls-2" d="M1631.8 1128.8c14.31 26.85 14.45 54.73.3 62.27s-37.21-8.11-51.53-35" transform="translate(-1511.5 -1058)"/><circle class="cls-4" cx="1627.03" cy="1119.74" r="12.56" transform="rotate(-28.06 -1245.674 3615.141)"/><path class="cls-2" d="M1551.81 1145c10 18.84 47.79-1.29 37.75-20.12" transform="translate(-1511.5 -1058)"/><circle class="cls-5" cx="1626.91" cy="1119.02" r="8.23" transform="rotate(-28.06 -1245.794 3614.431)"/><circle class="cls-4" cx="1628.39" cy="1113.21" r="8.04" transform="rotate(-28.06 -1244.324 3608.633)"/><circle class="cls-5" cx="1628.39" cy="1113.21" r="5.24" transform="rotate(-28.06 -1244.324 3608.633)"/></svg>