<svg id="Layer_1" data-name="Layer 1" xmlns="http://www.w3.org/2000/svg" viewBox="0 0 115 115"><defs><style>.cls-1{opacity:.35}.cls-2{fill:#fff}.cls-3{fill:none;stroke:#052f5f;stroke-linecap:round;stroke-linejoin:round;stroke-width:4px}.cls-4{fill:#052f5f}</style></defs><title>physician-medical</title><circle class="cls-1 cls-2" cx="57.5" cy="57.5" r="57.5"/><path class="cls-3" d="M6597.33 2389c3.67 9.67-25 7.67-20.67 14.33m19.01-1c2 5.67-20.33 4-16 10.67" transform="translate(-6528.62 -2319.31)"/><path class="cls-2" d="M6581.17 2360.83l-8.83-19c-9.44 9.4-19.2 16.75-29.33 21.67l18 5 10.17 4 9.17-1.5 11.67.67 7.5 1.67 7.83-3.17 11.67-4 12.5-2.5-22-13-8-9.17-6.33 9-2.83 9.5-3.83 1.33z" transform="translate(-6528.62 -2319.31)"/><path class="cls-3" d="M6586.5 2361.5c4-.46 6.94-1.86 8-5l2.25-10.25c1.48-6.09 7.08-6.44 10.25.5 3.39 7.42 14.61 14.66 24.75 15.75-6.26 6.2-14.64 5.42-24.75-1m-5 5.5c6.65 4.91 9.5 3 12.75-1m-16 7c3.5.32 6-.65 7-3.75" transform="translate(-6528.62 -2319.31)"/><path class="cls-3" d="M6586.75 2361.5c-4-.46-6.94-1.86-8-5l-2.25-10.25c-1.48-6.09-7.08-6.44-10.25.5-3.39 7.42-14.61 14.66-24.75 15.75 6.26 6.2 14.64 5.42 24.75-1m5 5.5c-6.65 4.91-9.5 3-12.75-1m17 7c-3.5.32-6-.65-7-3.75" transform="translate(-6528.62 -2319.31)"/><circle class="cls-4" cx="58.38" cy="25.94" r="4.5"/><path class="cls-3" d="M6588 2370.33c16.33 0 13.67 11.67 6.56 13.06-8.49 3.27-22.56 5.56-19.56 9.61m10.67-22.67c-12 0-16 7.33-9.67 13.33" transform="translate(-6528.62 -2319.31)"/><path class="cls-3" d="M57.88 34.44v62.75"/></svg>