<svg id="Layer_1" data-name="Layer 1" xmlns="http://www.w3.org/2000/svg" viewBox="0 0 115 123.08"><defs><style>.cls-1{opacity:.35}.cls-2{fill:#fff}.cls-3{fill:#1a325e}.cls-4{fill:#5fb9e8}.cls-5{fill:#1b325e}</style></defs><title>physician-intern</title><circle class="cls-1 cls-2" cx="57.5" cy="65.58" r="57.5"/><path class="cls-2" d="M10.13 43.5h95.5v59h-95.5z"/><path class="cls-3" d="M355.13 440.48h-95.5a2 2 0 0 1-2-2v-59a2 2 0 0 1 2-2h95.5a2 2 0 0 1 2 2v59a2 2 0 0 1-2 2zm-93.5-4h91.5v-55h-91.5v55z" transform="translate(-249.5 -335.98)"/><path class="cls-4" d="M73.63 53.44h26.25v26.73H73.63z"/><path class="cls-2" d="M17.13 57.56h48.5"/><path class="cls-3" d="M315.13 395.54h-48.5a2 2 0 0 1 0-4h48.5a2 2 0 0 1 0 4z" transform="translate(-249.5 -335.98)"/><path class="cls-2" d="M17.13 66.29h48.5"/><path class="cls-3" d="M315.13 404.27h-48.5a2 2 0 0 1 0-4h48.5a2 2 0 0 1 0 4z" transform="translate(-249.5 -335.98)"/><path class="cls-2" d="M17.13 75.02h48.5"/><path class="cls-3" d="M315.13 413h-48.5a2 2 0 0 1 0-4h48.5a2 2 0 0 1 0 4z" transform="translate(-249.5 -335.98)"/><path class="cls-4" d="M49.88 2h18.5v46.5h-18.5z"/><path class="cls-3" d="M317.88 386.48h-18.5a2 2 0 0 1-2-2V338a2 2 0 0 1 2-2h18.5a2 2 0 0 1 2 2v46.5a2 2 0 0 1-2 1.98zm-16.5-4h14.5V340h-14.5v42.5z" transform="translate(-249.5 -335.98)"/><circle class="cls-2" cx="59.13" cy="13.25" r="4.7"/><path class="cls-3" d="M308.63 355.93a6.7 6.7 0 1 1 6.7-6.7 6.71 6.71 0 0 1-6.7 6.7zm0-9.4a2.7 2.7 0 1 0 2.7 2.7 2.7 2.7 0 0 0-2.7-2.7z" transform="translate(-249.5 -335.98)"/><path class="cls-5" d="M272 421.46h3v13.47h-3v-13.47zm15.71 0h3v13.47h-3l-6.42-8.44v8.44h-3v-13.47h2.81l6.61 8.67v-8.67zm12.02 2.61v10.87h-3v-10.87h-3.82v-2.6h10.64v2.6h-3.82zm15.73-2.61v2.68h-6.71v2.77h6v2.56h-6v2.79h6.92v2.66h-9.93v-13.46h9.71zm13.82 4.48q0 3.24-2.56 4.18l3.41 4.82h-3.7l-3-4.3h-2.08v4.3h-3v-13.48h5.11q3.14 0 4.48 1.06a4.09 4.09 0 0 1 1.34 3.42zm-3.62 1.6a2 2 0 0 0 .56-1.59 1.71 1.71 0 0 0-.58-1.49 3.7 3.7 0 0 0-2-.4h-2.25v4h2.2a3.23 3.23 0 0 0 2.06-.52zm16.12-6.08h3v13.47h-3l-6.42-8.44v8.44h-3v-13.47h2.81l6.61 8.67v-8.67z" transform="translate(-249.5 -335.98)"/><path class="cls-3" d="M336.38 405.48a7.5 7.5 0 1 1 7.5-7.5 7.51 7.51 0 0 1-7.5 7.5zm0-11a3.5 3.5 0 1 0 3.5 3.5 3.5 3.5 0 0 0-3.5-3.5zm7.75 20.88a2 2 0 0 1-2-2 3.64 3.64 0 0 0-3.63-3.63h-5a3.64 3.64 0 0 0-3.63 3.63 2 2 0 0 1-4 0 7.64 7.64 0 0 1 7.63-7.63h5a7.64 7.64 0 0 1 7.63 7.63 2 2 0 0 1-2 2z" transform="translate(-249.5 -335.98)"/></svg>