<svg id="Layer_1" data-name="Layer 1" xmlns="http://www.w3.org/2000/svg" viewBox="0 0 162 162"><defs><style>.cls-1{fill:#fff;opacity:.75}.cls-2{fill:none;stroke:#052f5f;stroke-width:4px}.cls-2,.cls-3{stroke-linecap:round;stroke-linejoin:round}.cls-3,.cls-5{fill:#48beff}.cls-3{stroke:#48beff;stroke-width:4.42px}.cls-4{fill:#052f5f}</style></defs><title>psychiatrist-avatar-stat</title><circle class="cls-1" cx="81" cy="81" r="81"/><path class="cls-2" d="M47.2 33.9l8.85-4.72 32.72 61.38-37.51 19.99-32.72-61.38 9.17-4.88"/><path class="cls-3" transform="rotate(-28.06 -235.748 14132.646)" d="M6621.04 1821.43h5.6v5.71h-5.6z"/><path class="cls-3" transform="rotate(-28.06 -216.276 14122.27)" d="M6640.52 1811.04h5.6v5.71h-5.6z"/><path class="cls-2" d="M6716.09 1853.8c14.31 26.85 14.45 54.73.3 62.27s-37.21-8.11-51.53-35" transform="translate(-6596.12 -1780)"/><circle class="cls-4" cx="6711.33" cy="1844.74" r="12.56" transform="rotate(-28.06 -148.278 14153.1)"/><path class="cls-2" d="M6636.11 1870c10 18.84 47.79-1.29 37.75-20.12" transform="translate(-6596.12 -1780)"/><circle class="cls-5" cx="6711.2" cy="1844.02" r="8.23" transform="rotate(-28.06 -148.398 14152.39)"/><circle class="cls-4" cx="6712.68" cy="1838.21" r="8.04" transform="rotate(-28.06 -146.923 14146.572)"/><circle class="cls-5" cx="6712.68" cy="1838.21" r="5.24" transform="rotate(-28.06 -146.923 14146.572)"/></svg>