<svg id="Layer_1" data-name="Layer 1" xmlns="http://www.w3.org/2000/svg" viewBox="0 0 674.16 86.56"><defs><style>.cls-1{fill:#fff}.cls-2{fill:#052f5f}</style></defs><title>physician</title><path class="cls-1" d="M6354.71 2036.27v25.45H6342v-76.45h38.23a25.58 25.58 0 0 1 25.45 25.56 25.39 25.39 0 0 1-25.45 25.45h-25.56zm0-38.23v25.45h25.56a12.79 12.79 0 0 0 12.67-12.67 12.31 12.31 0 0 0-3.75-9 12.19 12.19 0 0 0-8.92-3.75h-25.56zm73.04-12.78h12.67v31.84h38.23v-31.84h12.78v76.45h-12.78v-31.84h-38.23v31.84h-12.67v-76.45zm145.52 0h16.19l-31.4 40.1v36.35h-12.66V2026l-31.95-40.76h16.3l21.7 27.87zm50.57 44.62a22.28 22.28 0 0 1-15.75-38 21 21 0 0 1 15.75-6.61h41.42V1998h-41.42a9.86 9.86 0 0 0-3.74.72 9.23 9.23 0 0 0-5.12 5.12 9.76 9.76 0 0 0 2 10.47 9.09 9.09 0 0 0 6.83 2.86h19.06a22.25 22.25 0 1 1 0 44.51h-41.31v-12.78h41.31a9.84 9.84 0 0 0 3.75-.72 9.66 9.66 0 0 0 3.08-2 8.66 8.66 0 0 0 2-3 9.86 9.86 0 0 0 .72-3.75 9.21 9.21 0 0 0-2.86-6.72 9 9 0 0 0-6.72-2.86h-19.06zm63.45-44.62H6700v76.45h-12.67v-76.45zm73.03 0a37 37 0 0 1 14.82 3 38.86 38.86 0 0 1 12.17 8.26l-9 9a24.5 24.5 0 0 0-18-7.49 24.9 24.9 0 0 0-9.91 2 25.58 25.58 0 0 0-8.1 5.45 26.37 26.37 0 0 0-5.51 8.1 25.15 25.15 0 0 0 0 19.83 26.87 26.87 0 0 0 5.45 8.1 24.76 24.76 0 0 0 8.1 5.45 25.29 25.29 0 0 0 10 2 24.91 24.91 0 0 0 18-7.38l9 8.92a38.86 38.86 0 0 1-12.17 8.26 38.21 38.21 0 0 1-29.69-.05 39.72 39.72 0 0 1-12.17-8.21 38.57 38.57 0 0 1-8.26-12.12 37.62 37.62 0 0 1 0-29.58 39 39 0 0 1 20.44-20.49 36.78 36.78 0 0 1 14.83-3.05zm49.03 0H6822v76.45h-12.67v-76.45zm90.55 63.67h-35.14l-6.5 12.78H6844l38.23-76.45 38.23 76.45h-14.21zm-28.9-12.66h22.47l-11.24-22.47zm71.53-51.12l50.89 45.83v-45.83h12.78v76.56l-51-45.83v45.72h-12.67v-76.45z" transform="translate(-6340.04 -1980.15)"/><path class="cls-2" d="M6383.27 1985.26a25.58 25.58 0 0 1 25.45 25.56 25.39 25.39 0 0 1-25.45 25.45h-25.56v25.45H6345v-76.45h38.23m-25.56 38.23h25.56a12.79 12.79 0 0 0 12.67-12.67 12.31 12.31 0 0 0-3.75-9 12.19 12.19 0 0 0-8.92-3.75h-25.56v25.45m25.56-43.23H6345a5 5 0 0 0-5 5v76.45a5 5 0 0 0 5 5h12.67a5 5 0 0 0 5-5v-20.45h20.56a29.63 29.63 0 0 0 21.47-8.82l.05-.05a30.53 30.53 0 0 0 0-43.18 29.45 29.45 0 0 0-21.49-9zm-20.52 22.7h20.56a7.22 7.22 0 0 1 5.39 2.28 7.34 7.34 0 0 1 2.28 5.5 7.79 7.79 0 0 1-7.67 7.67h-20.56V2003zm131.71-17.74v76.45h-12.78v-31.84h-38.23v31.84h-12.67v-76.45h12.67v31.84h38.23v-31.84h12.78m0-5h-12.78a5 5 0 0 0-5 5v26.84h-28.23v-26.84a5 5 0 0 0-5-5h-12.67a5 5 0 0 0-5 5v76.45a5 5 0 0 0 5 5h12.67a5 5 0 0 0 5-5v-26.84h28.23v26.84a5 5 0 0 0 5 5h12.78a5 5 0 0 0 5-5v-76.45a5 5 0 0 0-5-5zm98.05 5l-31.4 40.1v36.35h-12.67V2026l-31.95-40.76h16.3l21.7 27.87 21.81-27.87h16.19m0-5h-16.19a5 5 0 0 0-3.94 1.92l-17.85 22.84-17.77-22.82a5 5 0 0 0-3.95-1.93h-16.3a5 5 0 0 0-3.94 8.08l30.88 39.4v34a5 5 0 0 0 5 5h12.67a5 5 0 0 0 5-5v-34.63l30.33-38.74a5 5 0 0 0-3.94-8.08zm0 10zm75.81-4.98V1998h-41.42a9.86 9.86 0 0 0-3.74.72 9.23 9.23 0 0 0-5.12 5.12 9.76 9.76 0 0 0 2 10.47 9.09 9.09 0 0 0 6.83 2.86h19.06a22.25 22.25 0 1 1 0 44.51h-41.31v-12.78h41.31a9.84 9.84 0 0 0 3.75-.72 9.66 9.66 0 0 0 3.08-2 8.66 8.66 0 0 0 2-3 9.86 9.86 0 0 0 .72-3.75 9.21 9.21 0 0 0-2.86-6.72 9 9 0 0 0-6.72-2.86h-19.06a22.28 22.28 0 0 1-15.75-38 21 21 0 0 1 15.75-6.61h41.42m0-5h-41.42a26 26 0 0 0-19.32 8.1 27.25 27.25 0 0 0 19.32 46.51h19.06a4 4 0 0 1 3.12 1.33l.06.07a4.25 4.25 0 0 1 1.4 3.19 4.86 4.86 0 0 1-.35 1.86 3.67 3.67 0 0 1-.86 1.3 4.66 4.66 0 0 1-1.51 1 4.85 4.85 0 0 1-1.87.35h-41.31a5 5 0 0 0-5 5v12.78a5 5 0 0 0 5 5h41.31a27.25 27.25 0 1 0 0-54.51h-19.06a4.09 4.09 0 0 1-3.22-1.33 4.76 4.76 0 0 1-1-5.12 4.23 4.23 0 0 1 2.38-2.38 4.85 4.85 0 0 1 1.86-.35h41.42a5 5 0 0 0 5-5v-12.78a5 5 0 0 0-5-5zm34.8 5.02v76.45h-12.67v-76.45H6703m0-5h-12.67a5 5 0 0 0-5 5v76.45a5 5 0 0 0 5 5H6703a5 5 0 0 0 5-5v-76.45a5 5 0 0 0-5-5zm60.32 5a37 37 0 0 1 14.82 3 38.86 38.86 0 0 1 12.17 8.26l-9 9a24.5 24.5 0 0 0-18-7.49 24.9 24.9 0 0 0-9.91 2 25.58 25.58 0 0 0-8.1 5.45 26.37 26.37 0 0 0-5.51 8.1 25.15 25.15 0 0 0 0 19.83 26.87 26.87 0 0 0 5.45 8.1 24.76 24.76 0 0 0 8.1 5.45 25.29 25.29 0 0 0 10 2 24.91 24.91 0 0 0 18-7.38l9 8.92a38.86 38.86 0 0 1-12.17 8.26 38.21 38.21 0 0 1-29.69-.05 39.72 39.72 0 0 1-12.17-8.21 38.57 38.57 0 0 1-8.26-12.12 37.62 37.62 0 0 1 0-29.58 39 39 0 0 1 20.44-20.49 36.78 36.78 0 0 1 14.87-3m0-5a41.92 41.92 0 0 0-16.87 3.45 44 44 0 0 0-23 23.09 42.62 42.62 0 0 0 0 33.57 43.72 43.72 0 0 0 9.33 13.67 44.89 44.89 0 0 0 13.69 9.24 43.2 43.2 0 0 0 33.67.06 44 44 0 0 0 13.73-9.32 5 5 0 0 0 0-7.09l-9-8.92a5 5 0 0 0-7 0 19.92 19.92 0 0 1-14.47 6 20.43 20.43 0 0 1-8-1.59 19.9 19.9 0 0 1-6.48-4.36 22 22 0 0 1-4.44-6.61 20.15 20.15 0 0 1 0-15.8 21.51 21.51 0 0 1 4.47-6.58 20.72 20.72 0 0 1 6.53-4.39 20 20 0 0 1 7.94-1.58 19.51 19.51 0 0 1 14.42 6 5 5 0 0 0 7.07 0l9-9a5 5 0 0 0 0-7.07 44 44 0 0 0-13.72-9.32 42.11 42.11 0 0 0-16.8-3.38zm61.64 4.95v76.45h-12.67v-76.45H6825m0-5h-12.67a5 5 0 0 0-5 5v76.45a5 5 0 0 0 5 5H6825a5 5 0 0 0 5-5v-76.45a5 5 0 0 0-5-5zm60.27 5l38.23 76.45h-14.21l-6.39-12.78h-35.14l-6.5 12.78H6847l38.23-76.45m-11.24 51h22.47l-11.24-22.47-11.22 22.48m11.24-56a5 5 0 0 0-4.47 2.76l-38.23 76.45a5 5 0 0 0 4.47 7.24h14.21a5 5 0 0 0 4.46-2.73l5.11-10h29l5 10a5 5 0 0 0 4.47 2.76h14.21a5 5 0 0 0 4.47-7.24l-38.2-76.51a5 5 0 0 0-4.47-2.76zm-3.15 51l3.15-6.29 3.15 6.29h-6.29zm127.11-46.12v76.56l-51-45.83v45.72h-12.67v-76.45l50.89 45.83v-45.83h12.78m-63.67-5a5 5 0 0 0-5 5v76.45a5 5 0 0 0 5 5h12.67a5 5 0 0 0 5-5v-34.5l42.66 38.33a5 5 0 0 0 8.34-3.72v-76.56a5 5 0 0 0-5-5h-12.78a5 5 0 0 0-5 5v34.6l-42.55-38.31a5 5 0 0 0-3.35-1.28z" transform="translate(-6340.04 -1980.15)"/></svg>