<svg id="Layer_1" data-name="Layer 1" xmlns="http://www.w3.org/2000/svg" viewBox="0 0 115 115"><defs><style>.cls-1{opacity:.35}.cls-2{fill:#fff}.cls-3{fill:#052f5f}.cls-4{fill:#48beff}</style></defs><title>physician-mcat</title><circle class="cls-1 cls-2" cx="57.5" cy="57.5" r="57.5"/><path class="cls-2" d="M27.77 9.95h64.41V93.3H27.77z"/><path class="cls-3" d="M6620.8 2610.52h-64.4a2 2 0 0 1-2-2v-83.35a2 2 0 0 1 2-2h64.41a2 2 0 0 1 2 2v83.35a2 2 0 0 1-2.01 2zm-62.41-4h60.41v-79.35h-60.4v79.35zm59.32 17.37l-51.9-.91a2 2 0 0 1-2-2l.1-5.58a2 2 0 0 1 2-2l51.9.91a2 2 0 0 1 2 2l-.1 5.58a2 2 0 0 1-2 2zm-49.86-4.88l47.9.84v-1.58l-47.9-.84z" transform="translate(-6528.62 -2514.47)"/><path class="cls-3" d="M6611.5 2623.79a2 2 0 0 1-2-2l.1-5.58a2 2 0 0 1 2-2 2 2 0 0 1 2 2l-.1 5.58a2 2 0 0 1-2 2zm-45.97-10.39s-11 3.48-11 4.6 11.05 5 11.05 5v-9.58z" transform="translate(-6528.62 -2514.47)"/><path class="cls-4" transform="rotate(91.01 4559.22 -1845.911)" d="M6585.53 2596.27h5.58v44.89h-5.58z"/><path class="cls-3" d="M48.03 18.27l-12.14-.09 6.07 10.32 6.07-10.23z"/><path class="cls-3" d="M6566.92 2601.36a12 12 0 0 0 2.45.54v-.22h-.17a8 8 0 0 1-2.28-.32zm13.3-36.69v-.1a8 8 0 0 0-3.26-6.19 11.94 11.94 0 0 0-5.15-1.71v8.07l-6.92 3.2a8 8 0 0 0-.35 13.31v.12h.15a12.33 12.33 0 0 0 4.73 1.56l-.09-8.24 5.3-2.25c1.08-.46 1.89-.81 1.88-.83a8 8 0 0 0 3.75-6.77c-.04-.07-.04-.12-.04-.17z" transform="translate(-6528.62 -2514.47)"/><path class="cls-3" d="M6571.8 2575.27v8.48l-6.92 3.2a8 8 0 0 0 .67 13.83 12.56 12.56 0 0 0 1.36.55 8 8 0 0 0 2.28.33h.17l-.08-8s7.21-3.19 7.17-3.29a8 8 0 0 0 .58-13 10.35 10.35 0 0 0-5.23-2.1zm14.73-35.15l-14.77 6.09-5.52 2.56c-.2.08-.4.17-.59.27l-.18.08a8 8 0 0 0-.91 13.46v.16h.12a12.33 12.33 0 0 0 4.73 1.56l-.09-8.24 8.67-3.56 4.33-1.91a8 8 0 0 0 4.87-7.36 14.4 14.4 0 0 0-.66-3.11zm-3.63 5.23a1.17 1.17 0 1 1 1.17-1.17 1.17 1.17 0 0 1-1.17 1.17z" transform="translate(-6528.62 -2514.47)"/><path class="cls-3" d="M6566.92 2601.36a12.56 12.56 0 0 1-1.36-.55 7.93 7.93 0 0 0 1.36.55z" transform="translate(-6528.62 -2514.47)"/><path class="cls-1 cls-3" d="M47.18 62.67l.01-.4-.01.4z"/><path class="cls-4" d="M6589.79 2562l-2.31 4.67h-1.14L6584 2562v5.38h-1.91v-8.54h2.58l2.2 4.69 2.21-4.69h2.57v8.54h-1.91V2562zm7.93 3.66a2.81 2.81 0 0 0 2.3-1.11l1.22 1.26a4.61 4.61 0 0 1-6.68.39 4.52 4.52 0 0 1 0-6.32 4.38 4.38 0 0 1 3.18-1.27 4.51 4.51 0 0 1 3.52 1.6l-1.19 1.34a2.78 2.78 0 0 0-2.25-1.12 2.63 2.63 0 0 0-1.84.7 2.45 2.45 0 0 0-.76 1.89 2.59 2.59 0 0 0 .72 1.91 2.38 2.38 0 0 0 1.78.73zm11.05 1.69l-.79-1.85h-3.58l-.79 1.85h-2l3.69-8.54h1.85l3.69 8.54h-2zm-2.58-6l-1.08 2.48h2.14zm8.6-.89v6.89h-1.91v-6.89h-2.42v-1.65h6.75v1.65h-2.42z" transform="translate(-6528.62 -2514.47)"/></svg>