<svg id="Layer_1" data-name="Layer 1" xmlns="http://www.w3.org/2000/svg" viewBox="0 0 162 162"><defs><style>.cls-1{fill:#fff;opacity:.75}.cls-2,.cls-3{fill:none;stroke-linecap:round;stroke-linejoin:round}.cls-2{stroke:#052f5f;stroke-width:4px}.cls-3{stroke:#b3dd1d;stroke-width:4.42px}</style></defs><title>psychiatrist-avatar-stat</title><circle class="cls-1" cx="81" cy="81" r="81"/><path class="cls-2" d="M7935 1932.5c0-10 3.5-30.5-3-30.5-5.6-2.67-21.5 8-20-29 1-5-6.5-3.5-12-4-2.18-5.35 5-17.86 5-24a46 46 0 0 1 92 0c0 5.91 2.25 28.75-9 40s-8.5 25-7.5 47" transform="translate(-7874.81 -1780)"/><path class="cls-3" d="M7950.75 1877a31.75 31.75 0 1 0-31.75-31.75c-.5 24.25 37 30.25 37 3.25-1-25-28-8-15.5 0" transform="translate(-7874.81 -1780)"/></svg>