<svg id="Layer_1" data-name="Layer 1" xmlns="http://www.w3.org/2000/svg" viewBox="0 0 115 115"><defs><style>.cls-1{opacity:.55}.cls-2{fill:#efeff0}.cls-3{fill:#052f5f}.cls-4{fill:none;stroke:#052f5f;stroke-linecap:round;stroke-linejoin:round;stroke-width:4px}.cls-5,.cls-8{fill:#b3dd1d}.cls-6,.cls-7{fill:#fff}.cls-7{opacity:.35}.cls-8{font-size:26.78px;font-family:Montserrat;font-weight:700}.cls-9{letter-spacing:-1px}</style></defs><title>psychiatrist-mcat</title><circle class="cls-1 cls-2" cx="57.5" cy="57.5" r="57.5"/><path class="cls-3" d="M25.15 13.17h64.41v83.35H25.15z"/><path class="cls-4" d="M25.15 13.93h64.41v83.35H25.15z"/><path class="cls-4" transform="rotate(91.01 5189.001 -2481.553)" d="M7865.09 2574.7h5.58v51.9h-5.58z"/><path class="cls-4" d="M80.34 104.96l-.09 5.58"/><path class="cls-3" d="M7841.6 2595.41s-11 3.48-11 4.6 11.05 5 11.05 5v-9.58z" transform="translate(-7807.31 -2493.25)"/><path class="cls-5" transform="rotate(91.01 5185.502 -2481.492)" d="M7861.6 2578.27h5.58v44.89h-5.58z"/><path class="cls-6" d="M44.03 15.09l-14.19-.1 7.1 12.07 7.09-11.97z"/><path class="cls-6" d="M7840 2588.58a14 14 0 0 0 2.86.63v-.21h-.2a9.33 9.33 0 0 1-2.66-.42zm15.51-42.9v-.12a9.32 9.32 0 0 0-3.82-7.24 14 14 0 0 0-6-2v9.43l-8.09 3.74a9.33 9.33 0 0 0-.41 15.56v.14h.18a14.41 14.41 0 0 0 5.53 1.83l-.1-9.63 6.19-2.63c1.26-.54 2.21-1 2.2-1a9.33 9.33 0 0 0 4.39-7.92c-.07-.04-.07-.1-.07-.16z" transform="translate(-7807.31 -2493.25)"/><path class="cls-6" d="M7845.67 2558.08v9.92l-8.09 3.74a9.33 9.33 0 0 0 .78 16.17 14.69 14.69 0 0 0 1.59.64 9.33 9.33 0 0 0 2.66.39h.2l-.1-9.38s8.43-3.73 8.38-3.85a9.33 9.33 0 0 0 .68-15.24 12.1 12.1 0 0 0-6.1-2.39zm17.22-41.08l-17.26 7.12-6.46 3c-.24.1-.46.2-.69.32l-.21.1a9.34 9.34 0 0 0-1.06 15.74l-.05.19h.14a14.41 14.41 0 0 0 5.53 1.83l-.1-9.63 10.14-4.16 5.06-2.24a9.34 9.34 0 0 0 5.7-8.6 16.84 16.84 0 0 0-.74-3.67zm-4.24 6.12a1.37 1.37 0 1 1 1.37-1.37 1.37 1.37 0 0 1-1.37 1.35z" transform="translate(-7807.31 -2493.25)"/><path class="cls-6" d="M7840 2588.58a14.69 14.69 0 0 1-1.59-.64 9.27 9.27 0 0 0 1.59.64z" transform="translate(-7807.31 -2493.25)"/><path class="cls-7" d="M43.04 67l.01-.47-.01.47z"/><text class="cls-8" transform="rotate(-90 91.065 5.205)">M<tspan x="25.54" y="0">C</tspan><tspan class="cls-9" x="45.01" y="0">A</tspan><tspan x="63.59" y="0">T</tspan></text></svg>