<svg id="Layer_1" data-name="Layer 1" xmlns="http://www.w3.org/2000/svg" viewBox="0 0 896.91 86.45"><defs><style>.cls-1{fill:#fff}.cls-2{fill:#052f5f}</style></defs><title>psychiatrist</title><path class="cls-1" d="M7522 2036.27v25.45h-12.67v-76.45h38.23a25.58 25.58 0 0 1 25.45 25.56 25.39 25.39 0 0 1-25.45 25.45H7522zm0-38.23v25.45h25.56a12.79 12.79 0 0 0 12.67-12.67 12.32 12.32 0 0 0-3.75-9 12.19 12.19 0 0 0-8.92-3.75H7522zm95.32 31.84a22.28 22.28 0 0 1-15.75-38 21 21 0 0 1 15.75-6.61h41.42V1998h-41.42a9.87 9.87 0 0 0-3.75.72 9.24 9.24 0 0 0-5.12 5.12 9.77 9.77 0 0 0 2 10.47 9.08 9.08 0 0 0 6.83 2.86h19.06a22.25 22.25 0 1 1 0 44.51h-41.31v-12.78h41.31a9.83 9.83 0 0 0 3.74-.72 9.67 9.67 0 0 0 3.09-2 8.66 8.66 0 0 0 2-3 9.86 9.86 0 0 0 .72-3.75 9.2 9.2 0 0 0-2.87-6.72 9 9 0 0 0-6.72-2.86h-19.06zm123.27-44.62h16.19l-31.4 40.1v36.35h-12.67V2026l-31.95-40.76h16.3l21.7 27.87zm57.83 0a37 37 0 0 1 14.82 3 38.85 38.85 0 0 1 12.17 8.26l-9 9a24.5 24.5 0 0 0-18-7.49 24.89 24.89 0 0 0-9.91 2 25.61 25.61 0 0 0-8.1 5.45 26.38 26.38 0 0 0-5.51 8.1 25.15 25.15 0 0 0 0 19.83 26.86 26.86 0 0 0 5.45 8.1 24.76 24.76 0 0 0 8.1 5.45 25.28 25.28 0 0 0 10 2 24.92 24.92 0 0 0 18-7.38l9 8.92a38.85 38.85 0 0 1-12.17 8.26 38.2 38.2 0 0 1-29.69-.05 39.72 39.72 0 0 1-12.17-8.21 38.57 38.57 0 0 1-8.26-12.12 37.62 37.62 0 0 1 0-29.58 39 39 0 0 1 20.44-20.49 36.78 36.78 0 0 1 14.83-3.05zm49.02 0h12.67v31.84h38.23v-31.84h12.78v76.45h-12.78v-31.84h-38.23v31.84h-12.67v-76.45zm85.71 0h12.67v76.45h-12.67v-76.45zm90.55 63.67h-35.14l-6.5 12.78h-14.21l38.23-76.45 38.23 76.45h-14.21zm-28.86-12.67h22.47l-11.24-22.47zm45.71-51h63.78V1998h-25.45v63.67h-12.78V1998h-25.56v-12.78zm134.84 76.45l-14.76-25.45H8139v25.45h-12.67v-76.45h38.23a25.49 25.49 0 0 1 9.69 49l15.75 27.43h-14.65zM8164.6 1998H8139v25.34l25.56.11a12.18 12.18 0 0 0 8.92-3.75 12.31 12.31 0 0 0 3.75-9 12.79 12.79 0 0 0-12.63-12.7zm47.48-12.74h12.67v76.45h-12.67v-76.45zm56.92 44.62a22.28 22.28 0 0 1-15.75-38 21 21 0 0 1 15.75-6.61h41.42V1998H8269a9.87 9.87 0 0 0-3.75.72 9.24 9.24 0 0 0-5.12 5.12 9.76 9.76 0 0 0 2 10.47 9.09 9.09 0 0 0 6.83 2.86h19.06a22.25 22.25 0 1 1 0 44.51h-41.31v-12.78h41.31a9.84 9.84 0 0 0 3.75-.72 9.66 9.66 0 0 0 3.08-2 8.65 8.65 0 0 0 2-3 9.86 9.86 0 0 0 .72-3.75 9.21 9.21 0 0 0-2.86-6.72 9 9 0 0 0-6.72-2.86H8269zm63.48-44.62h63.78V1998h-25.45v63.67H8358V1998h-25.56v-12.78z" transform="translate(-7507.36 -1980.26)"/><path class="cls-2" d="M7550.59 1985.26a25.58 25.58 0 0 1 25.45 25.56 25.39 25.39 0 0 1-25.45 25.45H7525v25.45h-12.67v-76.45h38.23m-25.56 38.22h25.56a12.79 12.79 0 0 0 12.67-12.67 12.32 12.32 0 0 0-3.75-9 12.19 12.19 0 0 0-8.92-3.75H7525v25.45m25.56-43.23h-38.23a5 5 0 0 0-5 5v76.45a5 5 0 0 0 5 5H7525a5 5 0 0 0 5-5v-20.45h20.56a29.63 29.63 0 0 0 21.47-8.82l.05-.05a30.53 30.53 0 0 0 0-43.18 29.45 29.45 0 0 0-21.49-9zM7530 2003h20.56a7.22 7.22 0 0 1 5.39 2.28 7.34 7.34 0 0 1 2.28 5.5 7.79 7.79 0 0 1-7.67 7.67H7530V2003zm131.74-17.74V1998h-41.42a9.87 9.87 0 0 0-3.75.72 9.24 9.24 0 0 0-5.12 5.12 9.77 9.77 0 0 0 2 10.47 9.08 9.08 0 0 0 6.83 2.86h19.06a22.25 22.25 0 1 1 0 44.51h-41.31v-12.78h41.31a9.83 9.83 0 0 0 3.74-.72 9.67 9.67 0 0 0 3.09-2 8.66 8.66 0 0 0 2-3 9.86 9.86 0 0 0 .72-3.75 9.2 9.2 0 0 0-2.87-6.72 9 9 0 0 0-6.72-2.86h-19.06a22.28 22.28 0 0 1-15.75-38 21 21 0 0 1 15.75-6.61h41.42m0-5h-41.42a26 26 0 0 0-19.32 8.1 27.25 27.25 0 0 0 19.32 46.51h19.06a4 4 0 0 1 3.11 1.33l.07.07a4.25 4.25 0 0 1 1.4 3.19 4.86 4.86 0 0 1-.35 1.86 3.67 3.67 0 0 1-.86 1.3 4.67 4.67 0 0 1-1.51 1 4.84 4.84 0 0 1-1.86.35h-41.31a5 5 0 0 0-5 5v12.78a5 5 0 0 0 5 5h41.31a27.25 27.25 0 1 0 0-54.51h-19.06a4.09 4.09 0 0 1-3.22-1.33 4.77 4.77 0 0 1-1-5.12 4.24 4.24 0 0 1 2.38-2.38 4.86 4.86 0 0 1 1.86-.35h41.42a5 5 0 0 0 5-5v-12.78a5 5 0 0 0-5-5zm98.12 5.02l-31.4 40.1v36.35h-12.67V2026l-31.95-40.76h16.3l21.7 27.87 21.81-27.87h16.19m0-5h-16.19a5 5 0 0 0-3.94 1.92l-17.84 22.84-17.79-22.81a5 5 0 0 0-3.94-1.93h-16.3a5 5 0 0 0-3.94 8.08l30.88 39.4v34a5 5 0 0 0 5 5h12.67a5 5 0 0 0 5-5v-34.63l30.33-38.74a5 5 0 0 0-3.94-8.08zm0 10zm41.66-4.98a37 37 0 0 1 14.82 3 38.85 38.85 0 0 1 12.17 8.26l-9 9a24.5 24.5 0 0 0-18-7.49 24.89 24.89 0 0 0-9.91 2 25.61 25.61 0 0 0-8.1 5.45 26.38 26.38 0 0 0-5.51 8.1 25.15 25.15 0 0 0 0 19.83 26.86 26.86 0 0 0 5.45 8.1 24.76 24.76 0 0 0 8.1 5.45 25.28 25.28 0 0 0 10 2 24.92 24.92 0 0 0 18-7.38l9 8.92a38.85 38.85 0 0 1-12.17 8.26 38.2 38.2 0 0 1-29.69-.05 39.72 39.72 0 0 1-12.17-8.21 38.57 38.57 0 0 1-8.26-12.12 37.62 37.62 0 0 1 0-29.58 39 39 0 0 1 20.44-20.49 36.78 36.78 0 0 1 14.87-3m0-5a41.92 41.92 0 0 0-16.87 3.45 44 44 0 0 0-23 23.09 42.62 42.62 0 0 0 0 33.57 43.72 43.72 0 0 0 9.33 13.67 44.89 44.89 0 0 0 13.69 9.24 43.2 43.2 0 0 0 33.67.06 44 44 0 0 0 13.73-9.32 5 5 0 0 0 0-7.09l-9-8.92a5 5 0 0 0-7 0 19.92 19.92 0 0 1-14.47 6 20.43 20.43 0 0 1-8-1.59 19.9 19.9 0 0 1-6.48-4.36 22 22 0 0 1-4.44-6.61 20.15 20.15 0 0 1 0-15.8 21.51 21.51 0 0 1 4.47-6.58 20.75 20.75 0 0 1 6.53-4.39 19.76 19.76 0 0 1 7.94-1.58 19.52 19.52 0 0 1 14.42 6 5 5 0 0 0 7.07 0l9-9a5 5 0 0 0 0-7.07 44 44 0 0 0-13.73-9.32 42.09 42.09 0 0 0-16.8-3.38zm112.66 4.95v76.45h-12.78v-31.84h-38.23v31.84h-12.67v-76.45h12.67v31.84h38.23v-31.84h12.78m0-5h-12.78a5 5 0 0 0-5 5v26.84h-28.23v-26.84a5 5 0 0 0-5-5h-12.67a5 5 0 0 0-5 5v76.45a5 5 0 0 0 5 5h12.67a5 5 0 0 0 5-5v-26.84h28.23v26.84a5 5 0 0 0 5 5h12.78a5 5 0 0 0 5-5v-76.45a5 5 0 0 0-5-5zm34.7 5v76.45h-12.67v-76.45h12.67m0-5h-12.67a5 5 0 0 0-5 5v76.45a5 5 0 0 0 5 5h12.67a5 5 0 0 0 5-5v-76.45a5 5 0 0 0-5-5zm60.25 5l38.23 76.45h-14.21l-6.39-12.78h-35.14l-6.5 12.78h-14.21l38.23-76.45m-11.24 51h22.47l-11.24-22.47-11.24 22.47m11.24-56a5 5 0 0 0-4.47 2.76l-38.23 76.45a5 5 0 0 0 4.47 7.24h14.21a5 5 0 0 0 4.46-2.73l5.11-10h29l5 10a5 5 0 0 0 4.47 2.76h14.21a5 5 0 0 0 4.47-7.24l-38.22-76.5a5 5 0 0 0-4.47-2.76zm-3.15 51l3.15-6.29 3.15 6.29h-6.29zm101.42-46V1998h-25.45v63.67h-12.78V1998h-25.56v-12.78h63.78m0-5h-63.78a5 5 0 0 0-5 5V1998a5 5 0 0 0 5 5h20.56v58.67a5 5 0 0 0 5 5h12.78a5 5 0 0 0 5-5V2003h20.45a5 5 0 0 0 5-5v-12.78a5 5 0 0 0-5-5zm60.27 5.04a25.49 25.49 0 0 1 9.69 49l15.75 27.43h-14.65l-14.76-25.45H8142v25.45h-12.67v-76.45h38.23m0 38.23a12.18 12.18 0 0 0 8.92-3.75 12.31 12.31 0 0 0 3.75-9 12.79 12.79 0 0 0-12.63-12.72H8142v25.34l25.56.11m0-43.23h-38.23a5 5 0 0 0-5 5v76.45a5 5 0 0 0 5 5H8142a5 5 0 0 0 5-5v-20.45h13.71l13.32 23a5 5 0 0 0 4.33 2.49H8193a5 5 0 0 0 4.34-7.49l-13.17-22.93a30.42 30.42 0 0 0 8.43-8.31 30.48 30.48 0 0 0-25-47.72zM8147 2003h20.56a7.79 7.79 0 0 1 7.67 7.67 7.34 7.34 0 0 1-2.28 5.5 7.21 7.21 0 0 1-5.38 2.28l-20.57-.09V2003zm80.75-17.74v76.45h-12.67v-76.45h12.67m0-5h-12.67a5 5 0 0 0-5 5v76.45a5 5 0 0 0 5 5h12.67a5 5 0 0 0 5-5v-76.45a5 5 0 0 0-5-5zm85.7 5V1998H8272a9.87 9.87 0 0 0-3.75.72 9.24 9.24 0 0 0-5.12 5.12 9.76 9.76 0 0 0 2 10.47 9.09 9.09 0 0 0 6.83 2.86h19.06a22.25 22.25 0 1 1 0 44.51h-41.31v-12.78h41.31a9.84 9.84 0 0 0 3.75-.72 9.66 9.66 0 0 0 3.08-2 8.65 8.65 0 0 0 2-3 9.86 9.86 0 0 0 .72-3.75 9.21 9.21 0 0 0-2.86-6.72 9 9 0 0 0-6.72-2.86H8272a22.28 22.28 0 0 1-15.75-38 21 21 0 0 1 15.75-6.61h41.42m0-5H8272a26 26 0 0 0-19.32 8.1 27.25 27.25 0 0 0 19.32 46.51h19.06a4 4 0 0 1 3.12 1.33l.07.07a4.25 4.25 0 0 1 1.4 3.19 4.87 4.87 0 0 1-.35 1.86 3.67 3.67 0 0 1-.86 1.3 4.66 4.66 0 0 1-1.51 1 4.85 4.85 0 0 1-1.87.35h-41.31a5 5 0 0 0-5 5v12.78a5 5 0 0 0 5 5h41.31a27.25 27.25 0 1 0 0-54.51H8272a4.09 4.09 0 0 1-3.22-1.33 4.76 4.76 0 0 1-1-5.12 4.24 4.24 0 0 1 2.38-2.38 4.86 4.86 0 0 1 1.86-.35h41.42a5 5 0 0 0 5-5v-12.78a5 5 0 0 0-5-5zm85.85 5.02V1998h-25.45v63.67H8361V1998h-25.56v-12.78h63.78m0-5h-63.78a5 5 0 0 0-5 5V1998a5 5 0 0 0 5 5H8356v58.67a5 5 0 0 0 5 5h12.78a5 5 0 0 0 5-5V2003h20.45a5 5 0 0 0 5-5v-12.78a5 5 0 0 0-5-5z" transform="translate(-7507.36 -1980.26)"/></svg>