<svg id="Layer_1" data-name="Layer 1" xmlns="http://www.w3.org/2000/svg" viewBox="0 0 115 115"><defs><style>.cls-1{opacity:.55}.cls-2{fill:#efeff0}.cls-3{fill:#fff}.cls-4{fill:#052f5f}.cls-5{fill:#b3dd1d}</style></defs><title>psychiatrist-resident</title><circle class="cls-1 cls-2" cx="57.5" cy="57.5" r="57.5"/><path class="cls-3" d="M9.75 48.28h95.5v59H9.75z"/><path class="cls-4" d="M7912.56 3004.5h-95.5a2 2 0 0 1-2-2v-59a2 2 0 0 1 2-2h95.5a2 2 0 0 1 2 2v59a2 2 0 0 1-2 2zm-93.5-4h91.5v-55h-91.5v55z" transform="translate(-7807.31 -2895.22)"/><path class="cls-5" d="M73.25 58.22H99.5v26.73H73.25z"/><path class="cls-3" d="M16.75 62.34h48.5"/><path class="cls-4" d="M7872.56 2959.56h-48.5a2 2 0 0 1 0-4h48.5a2 2 0 0 1 0 4z" transform="translate(-7807.31 -2895.22)"/><path class="cls-3" d="M16.75 71.07h48.5"/><path class="cls-4" d="M7872.56 2968.29h-48.5a2 2 0 0 1 0-4h48.5a2 2 0 0 1 0 4z" transform="translate(-7807.31 -2895.22)"/><path class="cls-3" d="M16.75 79.8h48.5"/><path class="cls-4" d="M7872.56 2977h-48.5a2 2 0 0 1 0-4h48.5a2 2 0 0 1 0 4z" transform="translate(-7807.31 -2895.22)"/><path class="cls-5" d="M49.5 6.78H68v46.5H49.5z"/><path class="cls-4" d="M7875.31 2950.5h-18.5a2 2 0 0 1-2-2V2902a2 2 0 0 1 2-2h18.5a2 2 0 0 1 2 2v46.5a2 2 0 0 1-2 2zm-16.5-4h14.5V2904h-14.5v42.5z" transform="translate(-7807.31 -2895.22)"/><circle class="cls-3" cx="58.75" cy="18.03" r="4.7"/><path class="cls-4" d="M7866.06 2919.95a6.7 6.7 0 1 1 6.7-6.7 6.71 6.71 0 0 1-6.7 6.7zm0-9.4a2.7 2.7 0 1 0 2.7 2.7 2.7 2.7 0 0 0-2.7-2.7zm-32.57 78.71a3.28 3.28 0 0 1-2.12 3.46l2.82 4h-3.06l-2.47-3.55h-1.72v3.55h-2.49v-11.14h4.22a6.06 6.06 0 0 1 3.71.88 3.38 3.38 0 0 1 1.11 2.8zm-3 1.32a1.69 1.69 0 0 0 .46-1.31 1.41 1.41 0 0 0-.48-1.24 3.06 3.06 0 0 0-1.67-.33h-1.87v3.3h1.82a2.67 2.67 0 0 0 1.74-.42zm13.58-5.02v2.22h-5.55v2.29h5v2.12h-5v2.31h5.72v2.2H7836v-11.14h8zm5 2.22a1 1 0 0 0-.36.78.88.88 0 0 0 .44.77 8 8 0 0 0 2 .68 5.7 5.7 0 0 1 2.46 1.17 2.89 2.89 0 0 1 .88 2.28 3 3 0 0 1-1.12 2.43 4.48 4.48 0 0 1-3 .93 6.84 6.84 0 0 1-4.76-2l1.48-1.82a5.27 5.27 0 0 0 3.33 1.58 1.75 1.75 0 0 0 1.08-.29 1 1 0 0 0 .39-.8.93.93 0 0 0-.42-.8 5.42 5.42 0 0 0-1.64-.6 7.13 7.13 0 0 1-2.84-1.2 2.84 2.84 0 0 1-.9-2.33 2.89 2.89 0 0 1 1.14-2.45 4.59 4.59 0 0 1 2.84-.86 6.85 6.85 0 0 1 2.23.38 6 6 0 0 1 1.94 1.08l-1.26 1.82a4.9 4.9 0 0 0-3-1.1 1.5 1.5 0 0 0-.91.35zm7.56-2.22h2.49v11.14h-2.49v-11.14zm13.74 1.44a5.22 5.22 0 0 1 1.59 4.06 5.48 5.48 0 0 1-1.55 4.11 6.56 6.56 0 0 1-4.74 1.51h-3.81v-11.14h3.94a6.54 6.54 0 0 1 4.57 1.46zm-1.82 6.62a3.27 3.27 0 0 0 .92-2.5 3.35 3.35 0 0 0-.92-2.53 3.92 3.92 0 0 0-2.81-.88h-1.39v6.77h1.58a3.69 3.69 0 0 0 2.61-.84zm13.6-8.06v2.22h-5.55v2.29h5v2.12h-5v2.31h5.72v2.2h-8.21v-11.14h8zm10.18 0h2.49v11.14h-2.49l-5.31-7v7h-2.49v-11.14h2.33l5.47 7.17v-7.17zm9.95 2.15v9h-2.49v-9h-3.16v-2.15h8.8v2.15h-3.16zm-8.47-18.21a7.5 7.5 0 1 1 7.5-7.5 7.51 7.51 0 0 1-7.5 7.5zm0-11a3.5 3.5 0 1 0 3.5 3.5 3.5 3.5 0 0 0-3.5-3.5zm7.75 20.88a2 2 0 0 1-2-2 3.63 3.63 0 0 0-3.63-3.63h-5a3.64 3.64 0 0 0-3.63 3.63 2 2 0 1 1-4 0 7.64 7.64 0 0 1 7.63-7.63h5a7.64 7.64 0 0 1 7.63 7.63 2 2 0 0 1-2 2z" transform="translate(-7807.31 -2895.22)"/></svg>