<svg id="Layer_1" data-name="Layer 1" xmlns="http://www.w3.org/2000/svg" viewBox="0 0 277.14 61.4"><defs><style>.cls-1{fill:#ff8948}.cls-2{fill:#4fb477}.cls-3{fill:#1be0db}.cls-4{fill:#ff4aa5}.cls-5{fill:#ffd447}.cls-6{fill:#052f5f}</style></defs><title>share</title><path class="cls-1" d="M2448.19 1138.85a15.56 15.56 0 0 1-11-26.55 14.7 14.7 0 0 1 11-4.62h28.93v8.93h-28.93a6.89 6.89 0 0 0-2.62.5 6.46 6.46 0 0 0-3.58 3.58 6.82 6.82 0 0 0 1.42 7.31 6.35 6.35 0 0 0 4.77 2h13.31a15.54 15.54 0 1 1 0 31.09h-28.86v-8.93h28.86a6.87 6.87 0 0 0 2.62-.5 6.76 6.76 0 0 0 2.16-1.38 6 6 0 0 0 1.42-2.12 6.87 6.87 0 0 0 .5-2.62 6.43 6.43 0 0 0-2-4.69 6.27 6.27 0 0 0-4.69-2h-13.31z" transform="translate(-2431.64 -1103.68)"/><path class="cls-2" d="M2488.81 1107.68h8.85v22.24h26.7v-22.24h8.93v53.4h-8.93v-22.24h-26.7v22.24h-8.85v-53.4z" transform="translate(-2431.64 -1103.68)"/><path class="cls-3" d="M2584 1152.16h-24.55l-4.54 8.93H2545l26.7-53.4 26.7 53.4h-9.93zm-20.16-8.85h15.7l-7.85-15.7z" transform="translate(-2431.64 -1103.68)"/><path class="cls-4" d="M2644.31 1161.09l-10.31-17.78h-15.08v17.78h-8.85v-53.4h26.7a17.81 17.81 0 0 1 6.77 34.24l11 19.16h-10.23zm-7.54-44.48h-17.85v17.7l17.85.08a8.51 8.51 0 0 0 6.23-2.62 8.6 8.6 0 0 0 2.62-6.31 8.93 8.93 0 0 0-8.85-8.85z" transform="translate(-2431.64 -1103.68)"/><path class="cls-5" d="M2701.79 1107.68v8.93h-26.7V1130h26.7v8.85h-26.7v13.31h26.7v8.93h-35.55v-53.4h35.55z" transform="translate(-2431.64 -1103.68)"/><path class="cls-6" d="M2480.12 1107.68v8.93h-28.93a6.89 6.89 0 0 0-2.62.5 6.46 6.46 0 0 0-3.58 3.58 6.82 6.82 0 0 0 1.42 7.31 6.35 6.35 0 0 0 4.77 2h13.31a15.54 15.54 0 1 1 0 31.09h-28.86v-8.93h28.86a6.87 6.87 0 0 0 2.62-.5 6.76 6.76 0 0 0 2.16-1.38 6 6 0 0 0 1.42-2.12 6.87 6.87 0 0 0 .5-2.62 6.43 6.43 0 0 0-2-4.69 6.27 6.27 0 0 0-4.69-2h-13.31a15.56 15.56 0 0 1-11-26.55 14.7 14.7 0 0 1 11-4.62h28.93m0-4h-28.93a18.62 18.62 0 0 0-13.86 5.81 19.54 19.54 0 0 0 13.86 33.35h13.31a2.29 2.29 0 0 1 1.81.78l.05.05a2.47 2.47 0 0 1 .83 1.87 2.88 2.88 0 0 1-.21 1.11 2 2 0 0 1-.48.73 2.77 2.77 0 0 1-.89.57 2.89 2.89 0 0 1-1.11.21h-28.86a4 4 0 0 0-4 4v8.93a4 4 0 0 0 4 4h28.86a19.54 19.54 0 1 0 0-39.09h-13.31a2.36 2.36 0 0 1-1.89-.77 2.66 2.66 0 0 1-.81-2 2.69 2.69 0 0 1 .21-1 2.46 2.46 0 0 1 1.38-1.38 2.9 2.9 0 0 1 1.11-.21h28.93a4 4 0 0 0 4-4v-8.93a4 4 0 0 0-4-4zm56.17 4v53.4h-8.93v-22.24h-26.7v22.24h-8.85v-53.4h8.85v22.24h26.7v-22.24h8.93m0-4h-8.93a4 4 0 0 0-4 4v18.24h-18.7v-18.24a4 4 0 0 0-4-4h-8.85a4 4 0 0 0-4 4v53.4a4 4 0 0 0 4 4h8.85a4 4 0 0 0 4-4v-18.24h18.7v18.24a4 4 0 0 0 4 4h8.93a4 4 0 0 0 4-4v-53.4a4 4 0 0 0-4-4zm38.39 4l26.7 53.4h-9.93l-4.46-8.93h-24.55l-4.54 8.93h-9.9l26.7-53.4m-7.85 35.63h15.7l-7.85-15.7-7.85 15.7m7.85-39.63a4 4 0 0 0-3.58 2.21l-26.7 53.4a4 4 0 0 0 3.58 5.79h9.93a4 4 0 0 0 3.57-2.19l3.43-6.74h19.62l3.36 6.72a4 4 0 0 0 3.58 2.21h9.93a4 4 0 0 0 3.58-5.79l-26.7-53.4a4 4 0 0 0-3.58-2.21zm-1.38 35.63l1.38-2.75 1.38 2.75h-2.75zm66.45-31.63a17.81 17.81 0 0 1 6.77 34.24l11 19.16h-10.23l-10.31-17.77h-15.08v17.78h-8.85v-53.4h26.7m0 26.7a8.51 8.51 0 0 0 6.23-2.62 8.6 8.6 0 0 0 2.62-6.31 8.93 8.93 0 0 0-8.85-8.85h-17.85v17.7l17.85.08m0-30.7h-26.7a4 4 0 0 0-4 4v53.4a4 4 0 0 0 4 4h8.85a4 4 0 0 0 4-4v-13.78h8.78l9.16 15.78a4 4 0 0 0 3.46 2h10.23a4 4 0 0 0 3.47-6l-9-15.61a21.85 21.85 0 0 0 5.63-5.68 21.8 21.8 0 0 0-17.91-34.13zm-13.85 16.93h13.85a4.93 4.93 0 0 1 4.85 4.85 4.59 4.59 0 0 1-1.44 3.48 4.51 4.51 0 0 1-3.4 1.44l-13.86-.06v-9.72zm78.87-12.94v8.93h-26.7V1130h26.7v8.85h-26.7v13.31h26.7v8.93h-35.55v-53.4h35.55m0-4h-35.55a4 4 0 0 0-4 4v53.4a4 4 0 0 0 4 4h35.55a4 4 0 0 0 4-4v-8.93a4 4 0 0 0-4-4h-22.7v-5.31h22.7a4 4 0 0 0 4-4V1130a4 4 0 0 0-4-4h-22.7v-5.39h22.7a4 4 0 0 0 4-4v-8.93a4 4 0 0 0-4-4z" transform="translate(-2431.64 -1103.68)"/></svg>