<svg id="Layer_1" data-name="Layer 1" xmlns="http://www.w3.org/2000/svg" viewBox="0 0 350.75 460.17"><defs><style>.cls-1{fill:#201d1d}.cls-1,.cls-3{stroke:#fff;stroke-linecap:round;stroke-linejoin:round;stroke-width:2px}.cls-2{fill:#fff}.cls-3{fill:none}</style></defs><title>stars-right</title><path class="cls-1" d="M112.27 103.13l4.99 4.98m10.23 10.23l-4.98-4.98m-10.35 4.87l4.98-4.98m10.24-10.23L122.4 108"/><circle class="cls-2" cx="1522.39" cy="3806.52" r=".92" transform="rotate(-45 -3640.262 3651.686)"/><path class="cls-1" d="M156.69 1.11l4.98 4.98m10.24 10.24l-4.99-4.98m-10.34 4.87l4.98-4.99M171.79 1l-4.98 4.98"/><circle class="cls-2" cx="1566.81" cy="3704.5" r=".92" transform="rotate(-45 -3595.84 3549.666)"/><path class="cls-1" d="M74.69 28.4h7.05m14.47 0h-7.04m-3.88 10.76v-7.05m0-14.47v7.04"/><circle class="cls-2" cx="85.29" cy="28.4" r=".92"/><path class="cls-1" d="M334.54 200.56l4.98 4.98m10.23 10.24l-4.98-4.99m-10.35 4.87l4.99-4.98m10.23-10.23l-4.98 4.98"/><circle class="cls-2" cx="1744.65" cy="3903.95" r=".92" transform="rotate(-45 -3417.997 3749.11)"/><path class="cls-1" d="M286.33 348.47h7.04m14.48 0h-7.05m-3.87 10.76v-7.05m0-14.47v7.04"/><circle class="cls-2" cx="296.93" cy="348.47" r=".92"/><path class="cls-1" d="M138.36 225.74h7.05m14.47 0h-7.05m-3.87 10.76v-7.05m0-14.47v7.05"/><circle class="cls-2" cx="148.96" cy="225.74" r=".92"/><path class="cls-1" d="M185.22 75.91h3.58m7.34 0h-3.58m-1.96 5.46v-3.58m0-7.34v3.57"/><circle class="cls-2" cx="190.6" cy="75.91" r=".47"/><path class="cls-1" d="M224.07 169.62h3.58m7.34 0h-3.57m-1.97 5.46v-3.58m0-7.34v3.58"/><circle class="cls-2" cx="229.45" cy="169.62" r=".47"/><path class="cls-1" d="M179.76 312.87h3.58m7.34 0h-3.58m-1.96 5.46v-3.58m0-7.34v3.57"/><circle class="cls-2" cx="185.14" cy="312.87" r=".47"/><path class="cls-1" d="M72.76 453.71h3.57m7.35 0H80.1m-1.96 5.46v-3.58m0-7.34v3.57"/><circle class="cls-2" cx="78.14" cy="453.71" r=".47"/><path class="cls-1" d="M1 392.63h3.58m7.34 0H8.34m-1.96 5.46v-3.58m0-7.34v3.58"/><circle class="cls-2" cx="6.38" cy="392.63" r=".47"/><path class="cls-1" d="M70.35 318.44l4.98 4.98m10.23 10.24l-4.98-4.99m-10.34 4.87l4.98-4.98m10.23-10.23l-4.98 4.98"/><circle class="cls-2" cx="1480.47" cy="4021.83" r=".92" transform="rotate(-45 -3682.186 3867.001)"/><circle class="cls-3" cx="169.82" cy="392.63" r="5.58"/><circle class="cls-3" cx="264.21" cy="259.12" r="5.58"/><circle class="cls-3" cx="293.37" cy="110.57" r="5.58"/></svg>