<svg id="Layer_1" data-name="Layer 1" xmlns="http://www.w3.org/2000/svg" viewBox="0 0 350.75 460.17"><defs><style>.cls-1{fill:#201d1d}.cls-1,.cls-3{stroke:#fff;stroke-linecap:round;stroke-linejoin:round;stroke-width:2px}.cls-2{fill:#fff}.cls-3{fill:none}</style></defs><title>stars-left</title><path class="cls-1" d="M238.48 103.13l-4.98 4.98m-10.24 10.23l4.98-4.98m10.35 4.87l-4.98-4.98m-10.24-10.23l4.99 4.98"/><circle class="cls-2" cx="863.61" cy="3806.52" r=".92" transform="rotate(-45 -3914.044 2722.21)"/><path class="cls-1" d="M194.06 1.11l-4.98 4.98m-10.23 10.24l4.98-4.98m10.34 4.87l-4.98-4.99M178.96 1l4.98 4.98"/><circle class="cls-2" cx="819.19" cy="3704.5" r=".92" transform="rotate(-45 -3958.455 2620.206)"/><path class="cls-1" d="M276.06 28.4h-7.05m-14.47 0h7.05m3.87 10.76v-7.05m0-14.47v7.04"/><circle class="cls-2" cx="265.46" cy="28.4" r=".92"/><path class="cls-1" d="M16.22 200.56l-4.99 4.98M1 215.78l4.98-4.99m10.35 4.87l-4.98-4.98M1.11 200.45l4.98 4.98"/><circle class="cls-2" cx="641.35" cy="3903.95" r=".92" transform="rotate(-45 -4136.302 2819.652)"/><path class="cls-1" d="M64.43 348.47h-7.05m-14.47 0h7.04m3.87 10.76v-7.05m0-14.47v7.04"/><circle class="cls-2" cx="53.82" cy="348.47" r=".92"/><path class="cls-1" d="M212.39 225.74h-7.04m-14.48 0h7.05m3.87 10.76v-7.05m0-14.47v7.05"/><circle class="cls-2" cx="201.79" cy="225.74" r=".92"/><path class="cls-1" d="M165.53 75.91h-3.57m-7.35 0h3.58m1.96 5.46v-3.58m0-7.34v3.57"/><circle class="cls-2" cx="160.15" cy="75.91" r=".47"/><path class="cls-1" d="M126.68 169.62h-3.57m-7.35 0h3.58m1.96 5.46v-3.58m0-7.34v3.58"/><circle class="cls-2" cx="121.3" cy="169.62" r=".47"/><path class="cls-1" d="M170.99 312.87h-3.57m-7.35 0h3.58m1.96 5.46v-3.58m0-7.34v3.57"/><circle class="cls-2" cx="165.61" cy="312.87" r=".47"/><path class="cls-1" d="M278 453.71h-3.58m-7.34 0h3.57m1.97 5.46v-3.58m0-7.34v3.57"/><circle class="cls-2" cx="272.62" cy="453.71" r=".47"/><path class="cls-1" d="M349.75 392.63h-3.57m-7.35 0h3.58m1.96 5.46v-3.58m0-7.34v3.58"/><circle class="cls-2" cx="344.37" cy="392.63" r=".47"/><path class="cls-1" d="M280.4 318.44l-4.98 4.98m-10.23 10.24l4.98-4.99m10.35 4.87l-4.99-4.98m-10.23-10.23l4.98 4.98"/><circle class="cls-2" cx="905.53" cy="4021.83" r=".92" transform="rotate(-45 -3872.118 2937.524)"/><circle class="cls-3" cx="180.93" cy="392.63" r="5.58"/><circle class="cls-3" cx="86.54" cy="259.12" r="5.58"/><circle class="cls-3" cx="57.38" cy="110.57" r="5.58"/></svg>