<svg id="Layer_1" data-name="Layer 1" xmlns="http://www.w3.org/2000/svg" viewBox="0 0 838.85 86.56"><defs><style>.cls-1{fill:#fff}.cls-2{fill:#052f5f}</style></defs><title>statistician</title><path class="cls-1" d="M4896.38 2029.88a22.28 22.28 0 0 1-15.75-38 21 21 0 0 1 15.75-6.61h41.42V1998h-41.42a9.87 9.87 0 0 0-3.75.72 9.24 9.24 0 0 0-5.12 5.12 9.77 9.77 0 0 0 2 10.47 9.08 9.08 0 0 0 6.83 2.86h19.06a22.25 22.25 0 1 1 0 44.51h-41.31v-12.78h41.31a9.83 9.83 0 0 0 3.74-.72 9.67 9.67 0 0 0 3.09-2 8.66 8.66 0 0 0 2-3 9.86 9.86 0 0 0 .72-3.75 9.2 9.2 0 0 0-2.87-6.72 9 9 0 0 0-6.72-2.86h-19.06zm63.45-44.62h63.79V1998h-25.45v63.67h-12.78V1998h-25.56v-12.78zm115.34 63.67H5040l-6.5 12.78h-14.21l38.23-76.45 38.23 76.45h-14.21zm-28.86-12.67h22.47l-11.24-22.47zm45.69-51h63.78V1998h-25.45v63.67h-12.78V1998H5092v-12.78zm85.84 0h12.67v76.45h-12.67v-76.45zm56.95 44.62a22.28 22.28 0 0 1-15.75-38 21 21 0 0 1 15.75-6.61h41.42V1998h-41.42a9.86 9.86 0 0 0-3.74.72 9.23 9.23 0 0 0-5.12 5.12 9.76 9.76 0 0 0 2 10.47 9.09 9.09 0 0 0 6.83 2.86h19.06a22.25 22.25 0 1 1 0 44.51h-41.31v-12.78h41.31a9.84 9.84 0 0 0 3.75-.72 9.66 9.66 0 0 0 3.08-2 8.65 8.65 0 0 0 2-3 9.86 9.86 0 0 0 .72-3.75 9.21 9.21 0 0 0-2.86-6.72 9 9 0 0 0-6.72-2.86h-19.06zm63.45-44.62H5362V1998h-25.45v63.67h-12.75V1998h-25.56v-12.78zm85.82 0h12.67v76.45h-12.67v-76.45zm73.04 0a37 37 0 0 1 14.82 3 38.85 38.85 0 0 1 12.17 8.26l-9 9a24.5 24.5 0 0 0-18-7.49 24.89 24.89 0 0 0-9.91 2 25.58 25.58 0 0 0-8.1 5.45 26.37 26.37 0 0 0-5.51 8.1 25.14 25.14 0 0 0 0 19.83 26.86 26.86 0 0 0 5.45 8.1 24.77 24.77 0 0 0 8.1 5.45 25.29 25.29 0 0 0 10 2 24.91 24.91 0 0 0 18-7.38l9 8.92a38.85 38.85 0 0 1-12.17 8.26 38.2 38.2 0 0 1-29.69-.05 39.71 39.71 0 0 1-12.17-8.21 38.56 38.56 0 0 1-8.26-12.12 37.62 37.62 0 0 1 0-29.58 39 39 0 0 1 20.44-20.49 36.78 36.78 0 0 1 14.83-3.05zm49.02 0h12.67v76.45h-12.67v-76.45zm90.55 63.67h-35.14l-6.5 12.78h-14.21l38.23-76.45 38.23 76.45h-14.21zm-28.86-12.67h22.47l-11.28-22.47zm71.49-51.11l50.9 45.85v-45.83h12.8v76.56l-51-45.83v45.72h-12.7v-76.45z" transform="translate(-4872.12 -1980.15)"/><path class="cls-2" d="M4940.8 1985.26V1998h-41.42a9.87 9.87 0 0 0-3.75.72 9.24 9.24 0 0 0-5.12 5.12 9.77 9.77 0 0 0 2 10.47 9.08 9.08 0 0 0 6.83 2.86h19.06a22.25 22.25 0 1 1 0 44.51h-41.31v-12.78h41.31a9.83 9.83 0 0 0 3.74-.72 9.67 9.67 0 0 0 3.09-2 8.66 8.66 0 0 0 2-3 9.86 9.86 0 0 0 .72-3.75 9.2 9.2 0 0 0-2.87-6.72 9 9 0 0 0-6.72-2.86h-19.06a22.28 22.28 0 0 1-15.75-38 21 21 0 0 1 15.75-6.61h41.42m0-5h-41.42a26 26 0 0 0-19.32 8.1 27.25 27.25 0 0 0 19.32 46.51h19.06a4 4 0 0 1 3.11 1.33l.07.07a4.25 4.25 0 0 1 1.4 3.19 4.86 4.86 0 0 1-.35 1.86 3.67 3.67 0 0 1-.86 1.3 4.67 4.67 0 0 1-1.51 1 4.84 4.84 0 0 1-1.86.35h-41.31a5 5 0 0 0-5 5v12.78a5 5 0 0 0 5 5h41.31a27.25 27.25 0 1 0 0-54.51h-19.06a4.09 4.09 0 0 1-3.22-1.33 4.77 4.77 0 0 1-1-5.12 4.24 4.24 0 0 1 2.38-2.38 4.86 4.86 0 0 1 1.86-.35h41.42a5 5 0 0 0 5-5v-12.78a5 5 0 0 0-5-5zm85.89 5.02V1998h-25.45v63.67h-12.78V1998h-25.56v-12.78h63.79m0-5h-63.79a5 5 0 0 0-5 5V1998a5 5 0 0 0 5 5h20.56v58.67a5 5 0 0 0 5 5h12.78a5 5 0 0 0 5-5V2003h20.45a5 5 0 0 0 5-5v-12.78a5 5 0 0 0-5-5zm33.93 5.04l38.23 76.45h-14.21l-6.39-12.78H5043l-6.5 12.78h-14.21l38.23-76.45m-11.24 51h22.47l-11.24-22.47-11.24 22.47m11.24-56a5 5 0 0 0-4.47 2.76l-38.23 76.45a5 5 0 0 0 4.47 7.24h14.21a5 5 0 0 0 4.51-2.71l5.11-10h29l5 10a5 5 0 0 0 4.47 2.76h14.21a5 5 0 0 0 4.47-7.24L5065 1983a5 5 0 0 0-4.47-2.76zm-3.15 51l3.15-6.29 3.15 6.29h-6.29zm101.45-46V1998h-25.45v63.67h-12.78V1998H5095v-12.78h63.78m0-5H5095a5 5 0 0 0-5 5V1998a5 5 0 0 0 5 5h20.56v58.67a5 5 0 0 0 5 5h12.78a5 5 0 0 0 5-5V2003h20.45a5 5 0 0 0 5-5v-12.78a5 5 0 0 0-5-5zm34.73 5.04v76.45h-12.67v-76.45h12.67m0-5h-12.67a5 5 0 0 0-5 5v76.45a5 5 0 0 0 5 5h12.67a5 5 0 0 0 5-5v-76.45a5 5 0 0 0-5-5zm85.7 5V1998h-41.42a9.86 9.86 0 0 0-3.74.72 9.23 9.23 0 0 0-5.12 5.12 9.76 9.76 0 0 0 2 10.47 9.09 9.09 0 0 0 6.83 2.86h19.06a22.25 22.25 0 1 1 0 44.51h-41.31v-12.78h41.31a9.84 9.84 0 0 0 3.75-.72 9.66 9.66 0 0 0 3.08-2 8.65 8.65 0 0 0 2-3 9.86 9.86 0 0 0 .72-3.75 9.21 9.21 0 0 0-2.86-6.72 9 9 0 0 0-6.72-2.86h-19.06a22.28 22.28 0 0 1-15.75-38 21 21 0 0 1 15.75-6.61h41.42m0-5h-41.42a26 26 0 0 0-19.32 8.1 27.25 27.25 0 0 0 19.32 46.51h19.06a4 4 0 0 1 3.12 1.33l.07.07a4.25 4.25 0 0 1 1.4 3.19 4.87 4.87 0 0 1-.35 1.86 3.67 3.67 0 0 1-.86 1.3 4.66 4.66 0 0 1-1.51 1 4.85 4.85 0 0 1-1.87.35h-41.31a5 5 0 0 0-5 5v12.78a5 5 0 0 0 5 5h41.31a27.25 27.25 0 1 0 0-54.51h-19.06a4.09 4.09 0 0 1-3.22-1.33 4.76 4.76 0 0 1-1-5.12 4.23 4.23 0 0 1 2.38-2.38 4.85 4.85 0 0 1 1.86-.35h41.42a5 5 0 0 0 5-5v-12.78a5 5 0 0 0-5-5zm85.85 5.02V1998h-25.45v63.67h-12.75V1998h-25.56v-12.78H5365m0-5h-63.78a5 5 0 0 0-5 5V1998a5 5 0 0 0 5 5h20.56v58.67a5 5 0 0 0 5 5h12.78a5 5 0 0 0 5-5V2003H5365a5 5 0 0 0 5-5v-12.78a5 5 0 0 0-5-5zm34.73 5.04v76.45h-12.67v-76.45h12.67m0-5h-12.67a5 5 0 0 0-5 5v76.45a5 5 0 0 0 5 5h12.67a5 5 0 0 0 5-5v-76.45a5 5 0 0 0-5-5zm60.37 5a37 37 0 0 1 14.82 3 38.85 38.85 0 0 1 12.17 8.26l-9 9a24.5 24.5 0 0 0-18-7.49 24.89 24.89 0 0 0-9.91 2 25.58 25.58 0 0 0-8.1 5.45 26.37 26.37 0 0 0-5.51 8.1 25.14 25.14 0 0 0 0 19.83 26.86 26.86 0 0 0 5.45 8.1 24.77 24.77 0 0 0 8.1 5.45 25.29 25.29 0 0 0 10 2 24.91 24.91 0 0 0 18-7.38l9 8.92a38.85 38.85 0 0 1-12.17 8.26 38.2 38.2 0 0 1-29.69-.05 39.71 39.71 0 0 1-12.17-8.21 38.56 38.56 0 0 1-8.26-12.12 37.62 37.62 0 0 1 0-29.58 39 39 0 0 1 20.44-20.49 36.78 36.78 0 0 1 14.87-3m0-5a41.91 41.91 0 0 0-16.87 3.45 44 44 0 0 0-23 23.09 42.61 42.61 0 0 0 0 33.57 43.71 43.71 0 0 0 9.33 13.67 44.86 44.86 0 0 0 13.69 9.24 43.2 43.2 0 0 0 33.67.06 44 44 0 0 0 13.73-9.32 5 5 0 0 0 0-7.09l-9-8.92a5 5 0 0 0-7 0 19.92 19.92 0 0 1-14.47 6 20.44 20.44 0 0 1-8-1.59 19.91 19.91 0 0 1-6.48-4.36 22 22 0 0 1-4.44-6.61 20.14 20.14 0 0 1 0-15.8 21.49 21.49 0 0 1 4.47-6.58 20.72 20.72 0 0 1 6.53-4.39 20 20 0 0 1 7.94-1.58 19.52 19.52 0 0 1 14.42 6 5 5 0 0 0 7.07 0l9-9a5 5 0 0 0 0-7.07 44 44 0 0 0-13.73-9.32 42.09 42.09 0 0 0-16.8-3.38zm61.65 4.95v76.45h-12.67v-76.45h12.67m0-5h-12.67a5 5 0 0 0-5 5v76.45a5 5 0 0 0 5 5h12.67a5 5 0 0 0 5-5v-76.45a5 5 0 0 0-5-5zm60.21 5l38.23 76.45h-14.21l-6.39-12.78h-35.14l-6.5 12.78h-14.21l38.23-76.45m-11.24 51h22.47l-11.24-22.47-11.24 22.47m11.24-56a5 5 0 0 0-4.47 2.76l-38.23 76.45a5 5 0 0 0 4.47 7.24H5558a5 5 0 0 0 4.46-2.73l5.11-10h29l5 10a5 5 0 0 0 4.47 2.76h14.21a5 5 0 0 0 4.47-7.24l-38.2-76.5a5 5 0 0 0-4.47-2.76zm-3.15 51l3.15-6.26 3.15 6.29h-6.29zm127.15-46.11v76.56l-51-45.83v45.72h-12.7v-76.45l50.9 45.85v-45.83h12.8m-63.67-5a5 5 0 0 0-5 5v76.45a5 5 0 0 0 5 5H5655a5 5 0 0 0 5-5v-34.5l42.66 38.33a5 5 0 0 0 8.34-3.72v-76.56a5 5 0 0 0-5-5h-12.8a5 5 0 0 0-5 5v34.6l-42.55-38.31a5 5 0 0 0-3.35-1.28z" transform="translate(-4872.12 -1980.15)"/></svg>