<svg id="Layer_1" data-name="Layer 1" xmlns="http://www.w3.org/2000/svg" viewBox="0 0 115 115"><defs><style>.cls-1{opacity:.35}.cls-2{fill:#757779}.cls-3,.cls-5{fill:#1be0db}.cls-4{fill:#48beff}.cls-5,.cls-6{stroke:#052f5f;stroke-linecap:round;stroke-linejoin:round;stroke-width:4px}.cls-6{fill:none}</style></defs><title>statistician-sql</title><circle class="cls-1 cls-2" cx="57.5" cy="57.5" r="57.5"/><path class="cls-3" d="M5170.75 2610.25c17.25 11 45 9.75 60.5.25v10.75c-21.11 11.27-41.45 11.4-61 0z" transform="translate(-5143.05 -2568.75)"/><path class="cls-3" d="M5170.75 2629.58c17.25 11 45 9.75 60.5.25v10.75c-21.11 11.27-41.45 11.4-61 0z" transform="translate(-5143.05 -2568.75)"/><ellipse class="cls-4" cx="57.12" cy="31.42" rx="31.17" ry="11.83"/><path class="cls-3" d="M5170.75 2646.58c17.25 11 45 9.75 60.5.25v10.75c-21.11 11.27-41.45 11.4-61 0z" transform="translate(-5143.05 -2568.75)"/><ellipse class="cls-5" cx="57.68" cy="31.69" rx="30.94" ry="12.11"/><path class="cls-6" d="M5231.67 2653.11c0 6.69-13.85 12.11-30.94 12.11s-30.94-5.42-30.94-12.11m61.88-16.67c0 6.69-13.85 12.11-30.94 12.11s-30.94-5.42-30.94-12.11m61.88-17.66c0 6.69-13.85 12.11-30.94 12.11s-30.94-5.42-30.94-12.11" transform="translate(-5143.05 -2568.75)"/><path class="cls-6" d="M26.74 31.69v52.67m62-52.67v52.67"/></svg>