<svg id="Layer_1" data-name="Layer 1" xmlns="http://www.w3.org/2000/svg" viewBox="0 0 162 162"><defs><style>.cls-1{fill:#fff;opacity:.75}.cls-2,.cls-3{fill:#ffd447;stroke:#052f5f;stroke-linecap:round;stroke-linejoin:round;stroke-width:4px}.cls-3{fill:none}.cls-4{fill:#052f5f}</style></defs><title>therapist-avatar-stat</title><circle class="cls-1" cx="81" cy="81" r="81"/><rect class="cls-2" x="2413.09" y="4599.13" width="41.39" height="10.06" rx="5.03" ry="5.03" transform="rotate(152.89 1786.147 2033.781)"/><path class="cls-3" d="M2449.34 4661.68c4.74 8.25 15.2 4.33 19.28 10.31-3.08-7 6.73-10.51 2.21-21.31l-24.15-47.17-21.48 11z" transform="translate(-2395.6 -4563)"/><path class="cls-3" d="M69.11 78.7L49.12 88.93m23.9 20.06l15.35 29.99"/><path class="cls-4" transform="rotate(152.89 1837.874 2134.59)" d="M2481.91 4698.91h7.19v12.13h-7.19z"/><rect class="cls-2" x="2498.73" y="4599.13" width="41.39" height="10.06" rx="5.03" ry="5.03" transform="rotate(27.11 10784.898 -2644.921)"/><path class="cls-3" d="M2503.86 4661.68c-4.74 8.25-15.2 4.33-19.28 10.31 3.08-7-6.73-10.51-2.21-21.31l24.15-47.17 21.48 11z" transform="translate(-2395.6 -4563)"/><path class="cls-3" d="M92.89 78.7l19.99 10.23m-23.9 20.06l-15.35 29.99"/><path class="cls-4" transform="rotate(27.11 10733.169 -2544.102)" d="M2464.11 4698.91h7.19v12.13h-7.19z"/></svg>