<svg id="Layer_1" data-name="Layer 1" xmlns="http://www.w3.org/2000/svg" viewBox="0 0 162 162"><defs><style>.cls-1{fill:#fff}.cls-2,.cls-3{fill:#ff574a;stroke:#052f5f;stroke-linecap:round;stroke-linejoin:round;stroke-width:4px}.cls-3{fill:none}.cls-4{fill:#052f5f}</style></defs><title>therapist-avatar</title><circle class="cls-1" cx="81" cy="81" r="81"/><rect class="cls-2" x="1029.61" y="1340.82" width="41.39" height="10.06" rx="5.03" ry="5.03" transform="rotate(152.89 701.705 570.8)"/><path class="cls-3" d="M1065.86 1403.37c4.74 8.25 15.2 4.33 19.28 10.31-3.08-7 6.73-10.51 2.21-21.31l-24.15-47.17-21.48 11z" transform="translate(-1012.13 -1306)"/><path class="cls-3" d="M69.11 77.39L49.12 87.62m23.9 20.06l15.35 29.98"/><path class="cls-4" transform="rotate(152.89 753.431 671.613)" d="M1098.43 1440.6h7.19v12.13h-7.19z"/><rect class="cls-2" x="1115.25" y="1340.82" width="41.39" height="10.06" rx="5.03" ry="5.03" transform="rotate(27.11 3338.465 -1405.982)"/><path class="cls-3" d="M1120.39 1403.37c-4.74 8.25-15.2 4.33-19.28 10.31 3.08-7-6.73-10.51-2.21-21.31l24.15-47.17 21.48 11z" transform="translate(-1012.13 -1306)"/><path class="cls-3" d="M92.89 77.39l19.99 10.23m-23.9 20.06l-15.35 29.98"/><path class="cls-4" transform="rotate(27.11 3286.735 -1305.162)" d="M1080.63 1440.6h7.19v12.13h-7.19z"/></svg>