<svg id="Layer_1" data-name="Layer 1" xmlns="http://www.w3.org/2000/svg" viewBox="0 0 115 115"><defs><style>.cls-1{opacity:.35}.cls-2{fill:#757779}.cls-3,.cls-5,.cls-6{fill:none}.cls-3{stroke:#052f5f}.cls-3,.cls-5{stroke-linecap:round;stroke-linejoin:round;stroke-width:4px}.cls-4{fill:#ffd447}.cls-5{stroke:#ffd447}</style></defs><title>therapist-leonardo</title><circle class="cls-1 cls-2" cx="57.5" cy="57.5" r="57.5"/><circle class="cls-3" cx="57.5" cy="57.5" r="46.01"/><path class="cls-3" d="M20.53 31.22H93v72.47H20.53z"/><circle class="cls-4" cx="56.76" cy="34.47" r="7.25"/><path class="cls-4" d="M49.44 41.72h14.63v32.05H49.44z"/><path class="cls-5" d="M22.5 43.39h69.67m-30.84 1v57.83m-9.66-57.83v57.83"/><path class="cls-4" d="M2359.73 5332.13a2.5 2.5 0 1 0 4.33 2.5l8.32-14.4v-10zm42.43 0a2.5 2.5 0 1 1-4.33 2.5l-8.32-14.4v-10z" transform="translate(-2324.5 -5236.28)"/><path class="cls-6" d="M56.49 41.25l2.29-.9h-4.62l2.33.9z"/><path class="cls-4" d="M2373.64 5274.69l-22.26-8.56a2 2 0 1 0-1.44 3.73l17.57 6.76h7.85a8.63 8.63 0 0 1-1.72-1.93zm39.89-7.75a2 2 0 0 0-2.59-1.13l-22.36 8.75a8.59 8.59 0 0 1-1.83 2.07h7.51l18.13-7.1a2 2 0 0 0 1.14-2.59z" transform="translate(-2324.5 -5236.28)"/></svg>