<svg id="Layer_1" data-name="Layer 1" xmlns="http://www.w3.org/2000/svg" viewBox="0 0 809.17 165.12"><defs><style>.cls-1{fill:#fff}.cls-2{fill:#052f5f}</style></defs><title>therapist</title><path class="cls-1" d="M2102.93 4771.18a32.79 32.79 0 0 1 32.61 32.51 30.76 30.76 0 0 1-9.65 23 32.47 32.47 0 1 1-22.96-55.51zm0 10.87a21.67 21.67 0 1 0 21.65 21.64 21.76 21.76 0 0 0-21.65-21.69zm83.96-10.87a31.44 31.44 0 0 1 12.6 2.53 33 33 0 0 1 10.35 7l-7.68 7.68a20.84 20.84 0 0 0-15.27-6.37 21.18 21.18 0 0 0-8.43 1.69 21.74 21.74 0 0 0-6.89 4.64 22.41 22.41 0 0 0-4.69 6.89 21.38 21.38 0 0 0 0 16.87 22.83 22.83 0 0 0 4.64 6.89 21.07 21.07 0 0 0 6.89 4.64 21.52 21.52 0 0 0 8.48 1.69 21.2 21.2 0 0 0 15.27-6.28l7.68 7.59a33 33 0 0 1-10.35 7 32.49 32.49 0 0 1-25.25 0 33.73 33.73 0 0 1-10.35-7 32.8 32.8 0 0 1-7-10.31 32 32 0 0 1 0-25.16 33.17 33.17 0 0 1 17.38-17.43 31.29 31.29 0 0 1 12.62-2.56zm65.59 0a31.44 31.44 0 0 1 12.6 2.53 33 33 0 0 1 10.35 7l-7.68 7.68a20.84 20.84 0 0 0-15.27-6.37 21.18 21.18 0 0 0-8.43 1.69 21.74 21.74 0 0 0-6.89 4.64 22.41 22.41 0 0 0-4.69 6.89 21.38 21.38 0 0 0 0 16.87 22.83 22.83 0 0 0 4.64 6.89 21.07 21.07 0 0 0 6.89 4.64 21.52 21.52 0 0 0 8.48 1.69 21.2 21.2 0 0 0 15.27-6.28l7.68 7.59a33 33 0 0 1-10.35 7 32.49 32.49 0 0 1-25.25 0 33.73 33.73 0 0 1-10.35-7 32.8 32.8 0 0 1-7-10.31 32 32 0 0 1 0-25.16 33.17 33.17 0 0 1 17.38-17.43 31.29 31.29 0 0 1 12.62-2.56zm95.85 37.95a26.18 26.18 0 0 1-8 19.21 27 27 0 0 1-46.2-19.21v-37.95h10.78v37.95a16.26 16.26 0 0 0 32.51 0v-37.95h10.87v37.95zm29.52 5.43v21.64h-10.78v-65h32.51a21.75 21.75 0 0 1 21.65 21.74 21.6 21.6 0 0 1-21.65 21.65h-21.74zm0-32.51v21.64h21.74a10.88 10.88 0 0 0 10.78-10.78 10.48 10.48 0 0 0-3.19-7.68 10.37 10.37 0 0 0-7.59-3.19h-21.74zm91.07 43.29H2439l-5.53 10.87h-12.09l32.52-65 32.51 65h-12.09zm-24.55-10.78h19.12l-9.56-19.12zm38.89-43.38h54.25V4782h-21.64v54.16H2505V4782h-21.74v-10.87zm72.99 0H2567v65h-10.78v-65zm62.03 0a32.79 32.79 0 0 1 32.61 32.51 30.76 30.76 0 0 1-9.65 23 32.47 32.47 0 1 1-22.96-55.51zm0 10.87a21.67 21.67 0 1 0 21.64 21.64 21.76 21.76 0 0 0-21.64-21.69zm51.35-10.97l43.29 39v-39h10.87v65.12l-43.38-39v38.89h-10.78v-65zm120.37 54.26h-29.89l-5.53 10.87h-12.09l32.51-65 32.51 65h-12.09zm-24.55-10.78h19.12l-9.56-19.12zm60.84-43.38h10.78v54.16h32.51v10.87h-43.29v-65zm-653.36 90h54.25V4872h-21.64v54.16h-10.87V4872h-21.74v-10.87zm72.99 0h10.78v27.08h32.51v-27.08h10.87v65h-10.87v-27.08h-32.51v27.08h-10.78v-65zm116.19 0V4872h-32.51v16.3h32.51v10.78h-32.51v16.21h32.51v10.87h-43.29v-65h43.29zm60.43 65.03l-12.54-21.65h-18.37v21.64h-10.78v-65h32.51a21.68 21.68 0 0 1 8.25 41.7l13.4 23.33h-12.46zm-9.18-54.16h-21.74v21.55l21.74.09a10.36 10.36 0 0 0 7.59-3.19 10.74 10.74 0 0 0 0-15.27 10.37 10.37 0 0 0-7.59-3.23zm87.89 43.29h-29.89l-5.53 10.87h-12.09l32.51-65 32.51 65h-12.09zm-24.55-10.78h19.12l-9.56-19.12zm71.59 0v21.64h-10.78v-65H2570a21.75 21.75 0 0 1 21.64 21.74 21.6 21.6 0 0 1-21.64 21.65h-21.74zm0-32.51v21.64H2570a10.88 10.88 0 0 0 10.78-10.78 10.48 10.48 0 0 0-3.19-7.68 10.37 10.37 0 0 0-7.59-3.23h-21.74zm62.12-10.87h10.78v65h-10.78v-65zm48.44 37.95a18.95 18.95 0 0 1-13.4-32.33 17.9 17.9 0 0 1 13.4-5.62h35.23V4872h-35.23a8.37 8.37 0 0 0-3.19.61 7.85 7.85 0 0 0-4.36 4.36 8.3 8.3 0 0 0 1.73 8.9 7.73 7.73 0 0 0 5.81 2.44h16.21a18.93 18.93 0 1 1 0 37.86h-35.14v-10.87h35.14a8.36 8.36 0 0 0 3.19-.61 8.21 8.21 0 0 0 2.62-1.69 7.36 7.36 0 0 0 1.73-2.58 8.39 8.39 0 0 0 .61-3.19 7.83 7.83 0 0 0-2.44-5.72 7.63 7.63 0 0 0-5.72-2.44h-16.21zm53.97-37.95h54.25V4872h-21.64v54.16h-10.87V4872h-21.74v-10.87z" transform="translate(-2068.42 -4766.08)"/><path class="cls-2" d="M2105.93 4771.18a32.79 32.79 0 0 1 32.61 32.51 30.76 30.76 0 0 1-9.65 23 32.47 32.47 0 1 1-23-55.47m0 54.16a21.67 21.67 0 1 0-21.64-21.65 21.44 21.44 0 0 0 21.64 21.65m0-59.16a35.87 35.87 0 0 0-26.51 11 37.47 37.47 0 1 0 53 53 35.72 35.72 0 0 0 11.13-26.51 37.79 37.79 0 0 0-37.61-37.51zM2094.1 4792a16.18 16.18 0 0 1 11.83-4.91 16.76 16.76 0 0 1 16.65 16.64 16.65 16.65 0 1 1-28.48-11.73zm95.79-20.82a31.44 31.44 0 0 1 12.6 2.53 33 33 0 0 1 10.35 7l-7.68 7.68a20.84 20.84 0 0 0-15.27-6.37 21.18 21.18 0 0 0-8.43 1.69 21.74 21.74 0 0 0-6.89 4.64 22.41 22.41 0 0 0-4.69 6.89 21.38 21.38 0 0 0 0 16.87 22.83 22.83 0 0 0 4.64 6.89 21.07 21.07 0 0 0 6.89 4.64 21.52 21.52 0 0 0 8.48 1.69 21.2 21.2 0 0 0 15.27-6.28l7.68 7.59a33 33 0 0 1-10.35 7 32.49 32.49 0 0 1-25.25 0 33.73 33.73 0 0 1-10.35-7 32.8 32.8 0 0 1-7-10.31 32 32 0 0 1 0-25.16 33.17 33.17 0 0 1 17.38-17.43 31.29 31.29 0 0 1 12.65-2.58m0-5a36.41 36.41 0 0 0-14.65 3 38.17 38.17 0 0 0-20 20 37 37 0 0 0 0 29.15 37.93 37.93 0 0 0 8.09 11.86 38.87 38.87 0 0 0 11.87 8 37.49 37.49 0 0 0 29.23.05 38.16 38.16 0 0 0 11.91-8.08 5 5 0 0 0 0-7.09l-7.68-7.59a5 5 0 0 0-7 0 16.23 16.23 0 0 1-11.79 4.87 16.43 16.43 0 0 1-6.53-1.29 16 16 0 0 1-5.27-3.54 18 18 0 0 1-3.63-5.4 16.38 16.38 0 0 1 0-12.83 17.3 17.3 0 0 1 3.65-5.37 16.63 16.63 0 0 1 5.32-3.58 16.09 16.09 0 0 1 6.46-1.28 15.88 15.88 0 0 1 11.74 4.91 5 5 0 0 0 7.07 0l7.68-7.68a5 5 0 0 0 0-7.07 38.16 38.16 0 0 0-11.91-8.08 36.56 36.56 0 0 0-14.59-2.94z" transform="translate(-2068.42 -4766.08)"/><path class="cls-2" d="M2255.48 4771.18a31.44 31.44 0 0 1 12.6 2.53 33 33 0 0 1 10.35 7l-7.68 7.68a20.84 20.84 0 0 0-15.27-6.37 21.18 21.18 0 0 0-8.43 1.69 21.74 21.74 0 0 0-6.89 4.64 22.41 22.41 0 0 0-4.69 6.89 21.38 21.38 0 0 0 0 16.87 22.83 22.83 0 0 0 4.64 6.89 21.07 21.07 0 0 0 6.89 4.64 21.52 21.52 0 0 0 8.48 1.69 21.2 21.2 0 0 0 15.27-6.28l7.68 7.59a33 33 0 0 1-10.35 7 32.49 32.49 0 0 1-25.25 0 33.73 33.73 0 0 1-10.35-7 32.8 32.8 0 0 1-7-10.31 32 32 0 0 1 0-25.16 33.17 33.17 0 0 1 17.38-17.43 31.29 31.29 0 0 1 12.65-2.58m0-5a36.41 36.41 0 0 0-14.65 3 38.17 38.17 0 0 0-20 20 37 37 0 0 0 0 29.15 37.93 37.93 0 0 0 8.09 11.86 38.87 38.87 0 0 0 11.87 8 37.49 37.49 0 0 0 29.23.05 38.16 38.16 0 0 0 11.91-8.08 5 5 0 0 0 0-7.09l-7.68-7.59a5 5 0 0 0-7 0 16.23 16.23 0 0 1-11.79 4.87 16.43 16.43 0 0 1-6.53-1.29 16 16 0 0 1-5.27-3.54 18 18 0 0 1-3.63-5.4 16.38 16.38 0 0 1 0-12.83 17.3 17.3 0 0 1 3.65-5.37 16.63 16.63 0 0 1 5.32-3.58 16.09 16.09 0 0 1 6.46-1.28 15.88 15.88 0 0 1 11.74 4.91 5 5 0 0 0 7.07 0l7.68-7.68a5 5 0 0 0 0-7.07 38.16 38.16 0 0 0-11.91-8.08 36.56 36.56 0 0 0-14.59-2.94zm95.82 5.02v37.95a26.18 26.18 0 0 1-8 19.21 27 27 0 0 1-46.2-19.21v-37.95h10.78v37.95a16.26 16.26 0 0 0 32.51 0v-37.95h10.87m0-5h-10.87a5 5 0 0 0-5 5v37.95a10.42 10.42 0 0 1-3.37 7.86l-.07.07a10.37 10.37 0 0 1-7.86 3.28 10.66 10.66 0 0 1-8-3.31 10.51 10.51 0 0 1-3.22-7.9v-37.95a5 5 0 0 0-5-5h-10.78a5 5 0 0 0-5 5v37.95a31.49 31.49 0 0 0 9.29 22.7l.08.08a32.26 32.26 0 0 0 45.31 0 31.13 31.13 0 0 0 9.43-22.74v-37.95a5 5 0 0 0-5-5zm51.29 5a21.75 21.75 0 0 1 21.65 21.74 21.6 21.6 0 0 1-21.65 21.65h-21.74v21.64h-10.78v-65h32.51m-21.74 32.51h21.74a10.88 10.88 0 0 0 10.78-10.78 10.48 10.48 0 0 0-3.19-7.68 10.37 10.37 0 0 0-7.59-3.19h-21.74v21.64m21.74-37.51h-32.51a5 5 0 0 0-5 5v65a5 5 0 0 0 5 5h10.78a5 5 0 0 0 5-5v-16.64h16.74a25.93 25.93 0 0 0 18.78-7.72l.05-.05a26.72 26.72 0 0 0 0-37.78 25.77 25.77 0 0 0-18.81-7.84zm-16.72 20.8h16.74a5.37 5.37 0 0 1 4.06 1.72 5.47 5.47 0 0 1 1.72 4.15 5.88 5.88 0 0 1-5.78 5.78h-16.74V4787zm71.08-15.82l32.51 65h-12.09l-5.43-10.87H2442l-5.53 10.87h-12.09l32.52-65m-9.56 43.38h19.12l-9.56-19.12-9.56 19.12m9.56-48.38a5 5 0 0 0-4.47 2.76l-32.52 65a5 5 0 0 0 4.47 7.24h12.09a5 5 0 0 0 4.46-2.73l4.14-8.14h23.73l4.05 8.1a5 5 0 0 0 4.47 2.76h12.09a5 5 0 0 0 4.47-7.24l-32.51-65a5 5 0 0 0-4.47-2.76zm-1.47 43.38l1.47-2.94 1.47 2.94h-2.93zm85.08-38.38V4782h-21.64v54.16H2508V4782h-21.74v-10.87h54.25m0-5h-54.25a5 5 0 0 0-5 5V4782a5 5 0 0 0 5 5H2503v49.16a5 5 0 0 0 5 5h10.87a5 5 0 0 0 5-5V4787h16.64a5 5 0 0 0 5-5v-10.87a5 5 0 0 0-5-5zm29.49 5.05v65h-10.78v-65H2570m0-5h-10.78a5 5 0 0 0-5 5v65a5 5 0 0 0 5 5H2570a5 5 0 0 0 5-5v-65a5 5 0 0 0-5-5zm51.28 5a32.79 32.79 0 0 1 32.61 32.51 30.76 30.76 0 0 1-9.65 23 32.47 32.47 0 1 1-23-55.47m0 54.16a21.67 21.67 0 1 0-21.65-21.65 21.44 21.44 0 0 0 21.65 21.65m0-59.16a35.87 35.87 0 0 0-26.51 11 37.47 37.47 0 1 0 53 53 35.72 35.72 0 0 0 11.13-26.51 37.79 37.79 0 0 0-37.61-37.51zm-11.79 25.78a16.18 16.18 0 0 1 11.83-4.91 16.76 16.76 0 0 1 16.64 16.64 16.65 16.65 0 1 1-28.48-11.74zm117.34-20.92v65.12l-43.38-39v38.89h-10.78v-65l43.29 39v-39h10.87m-54.16-5a5 5 0 0 0-5 5v65a5 5 0 0 0 5 5h10.78a5 5 0 0 0 5-5v-27.67l35 31.48a5 5 0 0 0 8.34-3.72v-65.12a5 5 0 0 0-5-5h-10.87a5 5 0 0 0-5 5v27.75l-34.88-31.44a5 5 0 0 0-3.35-1.28zm105.37 5.09l32.51 65h-12.09l-5.43-10.87h-29.89l-5.53 10.87h-12.09l32.51-65m-9.56 43.38h19.12l-9.56-19.12-9.56 19.12m9.56-48.38a5 5 0 0 0-4.47 2.76l-32.51 65a5 5 0 0 0 4.47 7.24h12.09a5 5 0 0 0 4.46-2.73l4.14-8.14h23.73l4.05 8.1a5 5 0 0 0 4.47 2.76h12.09a5 5 0 0 0 4.49-7.17l-32.51-65a5 5 0 0 0-4.47-2.76zm-1.47 43.38l1.47-2.94 1.47 2.94h-2.94zm63.55-38.38v54.16h32.51v10.87h-43.29v-65h10.78m0-5h-10.78a5 5 0 0 0-5 5v65a5 5 0 0 0 5 5h43.29a5 5 0 0 0 5-5v-10.87a5 5 0 0 0-5-5h-27.51v-49.16a5 5 0 0 0-5-5zm-609.89 94.97V4872h-21.64v54.16h-10.87V4872h-21.74v-10.87h54.25m0-5h-54.25a5 5 0 0 0-5 5V4872a5 5 0 0 0 5 5h16.74v49.16a5 5 0 0 0 5 5h10.87a5 5 0 0 0 5-5V4877h16.64a5 5 0 0 0 5-5v-10.87a5 5 0 0 0-5-5zm72.9 5.05v65h-10.87v-27.08h-32.51v27.08h-10.78v-65h10.78v27.08h32.51v-27.08h10.87m0-5h-10.87a5 5 0 0 0-5 5v22.08h-22.51v-22.08a5 5 0 0 0-5-5h-10.78a5 5 0 0 0-5 5v65a5 5 0 0 0 5 5h10.78a5 5 0 0 0 5-5v-22.08h22.51v22.08a5 5 0 0 0 5 5h10.87a5 5 0 0 0 5-5v-65a5 5 0 0 0-5-5zm62.03 5V4872h-32.51v16.3h32.51v10.78h-32.51v16.21h32.51v10.87h-43.29v-65h43.29m0-5h-43.29a5 5 0 0 0-5 5v65a5 5 0 0 0 5 5h43.29a5 5 0 0 0 5-5v-10.87a5 5 0 0 0-5-5h-27.51v-6.21h27.51a5 5 0 0 0 5-5v-10.78a5 5 0 0 0-5-5h-27.51v-6.3h27.51a5 5 0 0 0 5-5v-10.87a5 5 0 0 0-5-5zm51.25 5.02a21.68 21.68 0 0 1 8.25 41.7l13.4 23.33h-12.46l-12.55-21.65h-18.37v21.64h-10.78v-65h32.51m0 32.51a10.36 10.36 0 0 0 7.59-3.19 10.74 10.74 0 0 0 0-15.27 10.37 10.37 0 0 0-7.59-3.19h-21.74v21.55l21.74.09m0-37.51h-32.51a5 5 0 0 0-5 5v65a5 5 0 0 0 5 5h10.78a5 5 0 0 0 5-5v-16.64h10.49l11.11 19.15a5 5 0 0 0 4.32 2.49H2438a5 5 0 0 0 4.34-7.49l-10.85-18.9a26.75 26.75 0 0 0 6.79-6.88 26.67 26.67 0 0 0-21.92-41.76zm-16.74 20.81h16.74a5.88 5.88 0 0 1 5.78 5.78 5.47 5.47 0 0 1-1.72 4.15 5.36 5.36 0 0 1-4 1.72l-16.75-.07V4877zm89.64-15.82l32.51 65h-12.09l-5.43-10.87h-29.89l-5.53 10.87h-12.09l32.51-65m-9.56 43.38h19.12l-9.56-19.12-9.56 19.12m9.56-48.38a5 5 0 0 0-4.47 2.76l-32.51 65a5 5 0 0 0 4.47 7.24h12.09a5 5 0 0 0 4.46-2.73l4.14-8.14h23.73l4.05 8.1a5 5 0 0 0 4.47 2.76h12.09a5 5 0 0 0 4.47-7.24l-32.51-65a5 5 0 0 0-4.47-2.76zm-1.47 43.38l1.47-2.94 1.47 2.94h-2.93zm85.22-38.38a21.75 21.75 0 0 1 21.64 21.74 21.6 21.6 0 0 1-21.64 21.65h-21.74v21.64h-10.78v-65H2573m-21.74 32.51H2573a10.88 10.88 0 0 0 10.78-10.78 10.48 10.48 0 0 0-3.19-7.68 10.37 10.37 0 0 0-7.59-3.26h-21.74v21.64m21.74-37.51h-32.51a5 5 0 0 0-5 5v65a5 5 0 0 0 5 5h10.78a5 5 0 0 0 5-5v-16.64H2573a25.92 25.92 0 0 0 18.78-7.72l.05-.05a26.72 26.72 0 0 0 0-37.78 25.76 25.76 0 0 0-18.81-7.84zm-16.71 20.87H2573a5.37 5.37 0 0 1 4.06 1.72 5.47 5.47 0 0 1 1.72 4.15 5.88 5.88 0 0 1-5.78 5.78h-16.74V4877zm67.89-15.82v65h-10.78v-65h10.78m0-5h-10.78a5 5 0 0 0-5 5v65a5 5 0 0 0 5 5h10.78a5 5 0 0 0 5-5v-65a5 5 0 0 0-5-5zm72.9 5V4872h-35.23a8.37 8.37 0 0 0-3.19.61 7.85 7.85 0 0 0-4.36 4.36 8.3 8.3 0 0 0 1.73 8.9 7.73 7.73 0 0 0 5.81 2.44h16.21a18.93 18.93 0 1 1 0 37.86h-35.14v-10.87h35.14a8.36 8.36 0 0 0 3.19-.61 8.21 8.21 0 0 0 2.62-1.69 7.36 7.36 0 0 0 1.73-2.58 8.39 8.39 0 0 0 .61-3.19 7.83 7.83 0 0 0-2.44-5.72 7.63 7.63 0 0 0-5.72-2.44h-16.21a18.95 18.95 0 0 1-13.4-32.33 17.9 17.9 0 0 1 13.4-5.62h35.23m0-5h-35.23a22.8 22.8 0 0 0-17 7.12 23.93 23.93 0 0 0 17 40.83h16.21a2.66 2.66 0 0 1 2.11.9l.07.07a2.85 2.85 0 0 1 1 2.18 3.41 3.41 0 0 1-.24 1.3 2.36 2.36 0 0 1-.56.85 3.23 3.23 0 0 1-1 .67 3.39 3.39 0 0 1-1.31.24h-35.14a5 5 0 0 0-5 5v10.87a5 5 0 0 0 5 5h35.14a23.93 23.93 0 1 0 0-47.86h-16.21a2.76 2.76 0 0 1-2.2-.9 3.3 3.3 0 0 1-.71-3.55 2.86 2.86 0 0 1 1.61-1.61 3.39 3.39 0 0 1 1.3-.24h35.23a5 5 0 0 0 5-5v-10.87a5 5 0 0 0-5-5zm73.01 5.06V4872h-21.64v54.16h-10.87V4872h-21.74v-10.87h54.25m0-5h-54.25a5 5 0 0 0-5 5V4872a5 5 0 0 0 5 5h16.74v49.16a5 5 0 0 0 5 5h10.87a5 5 0 0 0 5-5V4877h16.64a5 5 0 0 0 5-5v-10.87a5 5 0 0 0-5-5z" transform="translate(-2068.42 -4766.08)"/></svg>