<svg id="Layer_1" data-name="Layer 1" xmlns="http://www.w3.org/2000/svg" viewBox="0 0 115 115"><defs><style>.cls-1{opacity:.35}.cls-2{fill:#052f5f}.cls-3,.cls-6{fill:#ffd447}.cls-4{fill:none}.cls-4,.cls-5,.cls-6,.cls-7{stroke:#052f5f;stroke-linecap:round;stroke-linejoin:round}.cls-4,.cls-6,.cls-7{stroke-width:4px}.cls-5,.cls-7{fill:#fff}.cls-5{stroke-width:3px}</style></defs><title>web-developer-portfolio</title><circle class="cls-1 cls-2" cx="57.5" cy="57.5" r="57.5"/><path class="cls-3" transform="rotate(-178.99 1176.63 1454.503)" d="M2337.59 2802.19h6.92v53.6h-6.92z"/><path class="cls-4" transform="rotate(-178.99 1176.557 1458.649)" d="M2337.51 2800.93h6.92v64.4h-6.92z"/><path class="cls-3" d="M60 87.69h-4.5l-2.54-27.57h9.51L60 87.69z"/><path class="cls-4" d="M2359.53 2809.57l6.12.11c4.42 9 .82 32.33-3.54 57-3.59-22.89-7.44-45.88-2.58-57.11z" transform="translate(-2304.5 -2769.22)"/><path class="cls-4" d="M39.5 88.45l-6.92-.12"/><path class="cls-2" d="M2347.11 2800.52s-4-13.67-5.33-13.69-5.81 13.72-5.81 13.72z" transform="translate(-2304.5 -2769.22)"/><path class="cls-4" d="M52.96 60.12h10.17"/><path class="cls-2" d="M2363 2808.58c-6.89 1.71-9.29-13.49 2-21.67-.9 9.5 7.5 20.56-2 21.67z" transform="translate(-2304.5 -2769.22)"/><path class="cls-5" d="M2405.33 2834.33c0 14.18-1.67 21.33-14.5 21.33s-14.5-7.16-14.5-21.33 6.49-25.67 14.5-25.67 14.5 11.5 14.5 25.67z" transform="translate(-2304.5 -2769.22)"/><path class="cls-4" d="M71.83 62.45h28.67m-14.33-22v21.33"/><rect class="cls-6" x="83" y="46.28" width="6.5" height="10.5" rx="1.58" ry="1.58"/><path class="cls-7" d="M2399.67 2840.5c-.17 7.33-2.83 10.17-10.5 10" transform="translate(-2304.5 -2769.22)"/><path class="cls-4" d="M2390.83 2808.67c-1.32-14.55-1-34.67-29.83-34.67-32.64.56-50.5 32-50.5 54 0 33 27.5 51.5 51 50" transform="translate(-2304.5 -2769.22)"/><rect class="cls-2" x="55.5" y="104.78" width="12.25" height="8.5" rx="1.97" ry="1.97"/></svg>