<svg id="Layer_1" data-name="Layer 1" xmlns="http://www.w3.org/2000/svg" viewBox="0 0 906.05 75.03"><defs><style>.cls-1{fill:#fff}.cls-2{fill:#052f5f}</style></defs><title>web-developer</title><path class="cls-1" d="M2034.06 1996.69l20.52 40.76 20.33-40.76 20.43 40.76 20.43-40.76h12.09l-32.51 65-20.43-40.69-20.33 40.76-32.61-65h12.09zm155.83 0v10.87h-32.52v16.3h32.52v10.78h-32.52v16.21h32.52v10.87h-43.29v-65h43.29zm67.18 32.51a18.87 18.87 0 0 1 4.22 20.9 19.09 19.09 0 0 1-10.12 10.12 18.21 18.21 0 0 1-7.31 1.5h-35.23v-65h35.23a18.33 18.33 0 0 1 7.26 1.5 19 19 0 0 1 10.17 10.12 18.87 18.87 0 0 1-4.22 20.86zm-13.21-21.64h-24.46v16.3h24.46a7.64 7.64 0 0 0 3.09-.66 8.49 8.49 0 0 0 2.62-1.78 7.84 7.84 0 0 0 1.73-2.62 8.38 8.38 0 0 0 .61-3.19 8.15 8.15 0 0 0-.61-3.09 7.85 7.85 0 0 0-4.36-4.36 8.15 8.15 0 0 0-3.08-.6zm0 43.29a8.13 8.13 0 0 0 3.09-.61 7.85 7.85 0 0 0 4.36-4.36 8.15 8.15 0 0 0 0-6.18 8.26 8.26 0 0 0-1.69-2.62 8 8 0 0 0-5.76-2.44h-24.46v16.21h24.46zm66.14-54.16h21.64a31.06 31.06 0 0 1 12.56 2.58 33.29 33.29 0 0 1 17.38 17.38 31.86 31.86 0 0 1 0 25.11 33.8 33.8 0 0 1-7 10.35 32.63 32.63 0 0 1-10.35 7 31.36 31.36 0 0 1-12.6 2.58H2310v-65zm21.64 54.16a21.3 21.3 0 0 0 15.32-6.37 22.3 22.3 0 0 0 4.64-6.93 21.45 21.45 0 0 0 0-16.68 22 22 0 0 0-11.62-11.62 21 21 0 0 0-8.34-1.69h-10.87v43.29h10.87zm94.56-54.16v10.87h-32.52v16.3h32.52v10.78h-32.52v16.21h32.52v10.87h-43.29v-65h43.29zm30.8 0l20.43 40.76 20.43-40.76H2510l-32.51 65-32.51-65H2457zm115 0v10.87h-32.51v16.3H2572v10.78h-32.51v16.21H2572v10.87h-43.3v-65h43.3zm18.73 0h10.78v54.16H2634v10.87h-43.29v-65zm86.86 0a32.79 32.79 0 0 1 32.61 32.51 30.76 30.76 0 0 1-9.65 23 32.47 32.47 0 1 1-22.96-55.51zm0 10.87a21.67 21.67 0 1 0 21.64 21.64 21.75 21.75 0 0 0-21.64-21.64zm62.12 32.51v21.64h-10.78v-65h32.52a21.76 21.76 0 0 1 21.64 21.74 21.6 21.6 0 0 1-21.64 21.65h-21.74zm0-32.51v21.64h21.74a10.88 10.88 0 0 0 10.78-10.78 10.48 10.48 0 0 0-3.19-7.68 10.37 10.37 0 0 0-7.59-3.19h-21.74zm105.42-10.87v10.87h-32.52v16.3h32.52v10.78h-32.52v16.21h32.52v10.87h-43.29v-65h43.29zm60.43 65.03l-12.56-21.65h-18.37v21.64h-10.78v-65h32.51a21.68 21.68 0 0 1 8.25 41.7l13.4 23.33h-12.46zm-9.18-54.16h-21.74v21.55l21.74.09a10.37 10.37 0 0 0 7.62-3.2 10.82 10.82 0 0 0-7.62-18.44z" transform="translate(-2019.98 -1991.69)"/><path class="cls-2" d="M2130.86 1996.69l-32.51 65-20.43-40.69-20.33 40.76-32.61-65h12.09l20.52 40.76 20.33-40.76 20.43 40.76 20.43-40.76h12.09m-52.94-5a5 5 0 0 0-4.47 2.77l-15.88 31.83-16-31.85a5 5 0 0 0-4.47-2.75H2025a5 5 0 0 0-4.47 7.24l32.61 65a5 5 0 0 0 4.47 2.76 5 5 0 0 0 4.47-2.77l15.87-31.81 15.95 31.82a5 5 0 0 0 4.47 2.76 5 5 0 0 0 4.47-2.76l32.44-64.88a5 5 0 0 0-4.39-7.38h-12.09a5 5 0 0 0-4.47 2.76l-16 31.84-16-31.84a5 5 0 0 0-4.47-2.76zm52.94 10zm62.02-5.07v10.87h-32.52v16.3h32.52v10.78h-32.52v16.21h32.52v10.87h-43.29v-65h43.29m0-5h-43.29a5 5 0 0 0-5 5v65a5 5 0 0 0 5 5h43.29a5 5 0 0 0 5-5v-10.87a5 5 0 0 0-5-5h-27.52v-6.21h27.52a5 5 0 0 0 5-5v-10.78a5 5 0 0 0-5-5h-27.52v-6.3h27.52a5 5 0 0 0 5-5v-10.87a5 5 0 0 0-5-5zm53.97 4.97a18.33 18.33 0 0 1 7.26 1.5 19 19 0 0 1 10.17 10.12 18.87 18.87 0 0 1-4.22 20.89 18.87 18.87 0 0 1 4.22 20.9 19.09 19.09 0 0 1-10.12 10.12 18.21 18.21 0 0 1-7.31 1.5h-35.23v-65h35.23m-24.46 27.17h24.46a7.64 7.64 0 0 0 3.09-.66 8.49 8.49 0 0 0 2.62-1.78 7.84 7.84 0 0 0 1.73-2.62 8.38 8.38 0 0 0 .61-3.19 8.15 8.15 0 0 0-.61-3.09 7.85 7.85 0 0 0-4.36-4.36 8.15 8.15 0 0 0-3.09-.61h-24.45v16.3m0 27h24.46a8.13 8.13 0 0 0 3.09-.61 7.85 7.85 0 0 0 4.36-4.36 8.15 8.15 0 0 0 0-6.18 8.26 8.26 0 0 0-1.69-2.62 8 8 0 0 0-5.76-2.44h-24.46v16.21m24.46-59.16h-35.23a5 5 0 0 0-5 5v65a5 5 0 0 0 5 5h35.23a23.26 23.26 0 0 0 9.29-1.91 24.09 24.09 0 0 0 12.72-12.72 24 24 0 0 0-2.26-22.9 23.94 23.94 0 0 0 2.26-22.86 24 24 0 0 0-12.8-12.74 23.39 23.39 0 0 0-9.22-1.9zm-19.46 20.87h19.46a3.16 3.16 0 0 1 1.21.24 2.84 2.84 0 0 1 1 .64 2.87 2.87 0 0 1 .64 1 3.16 3.16 0 0 1 .24 1.21 3.39 3.39 0 0 1-.24 1.3 2.83 2.83 0 0 1-.64 1 3.5 3.5 0 0 1-1.09.73 2.64 2.64 0 0 1-1.09.24h-19.49v-6.3zm0 27.08h19.46a2.89 2.89 0 0 1 1.18.24 3 3 0 0 1 1 .66 3.27 3.27 0 0 1 .66 1 3.15 3.15 0 0 1 0 2.42 2.85 2.85 0 0 1-1.61 1.61 3.15 3.15 0 0 1-1.21.24h-19.48v-6.21zm107.25-42.98a31.06 31.06 0 0 1 12.56 2.58 33.29 33.29 0 0 1 17.38 17.38 31.86 31.86 0 0 1 0 25.11 33.8 33.8 0 0 1-7 10.35 32.63 32.63 0 0 1-10.35 7 31.36 31.36 0 0 1-12.6 2.58H2313v-65h21.64m-10.87 54.16h10.87a21.3 21.3 0 0 0 15.32-6.37 22.3 22.3 0 0 0 4.64-6.93 21.45 21.45 0 0 0 0-16.68 22 22 0 0 0-11.62-11.62 21 21 0 0 0-8.34-1.69h-10.87v43.29m10.87-59.16H2313a5 5 0 0 0-5 5v65a5 5 0 0 0 5 5h21.64a36.48 36.48 0 0 0 14.59-3 37.76 37.76 0 0 0 11.92-8.1 38.93 38.93 0 0 0 8-11.87 36.86 36.86 0 0 0 0-29.11 38.29 38.29 0 0 0-20-20 36.18 36.18 0 0 0-14.56-3zm-5.87 20.87h5.87a15.86 15.86 0 0 1 6.37 1.28 17 17 0 0 1 9 9 16.45 16.45 0 0 1 0 12.74 17.19 17.19 0 0 1-3.6 5.39 16.26 16.26 0 0 1-5.29 3.6 16.09 16.09 0 0 1-6.46 1.28h-5.87v-33.29zm100.43-15.87v10.87h-32.52v16.3h32.52v10.78h-32.52v16.21h32.52v10.87h-43.29v-65h43.29m0-5h-43.29a5 5 0 0 0-5 5v65a5 5 0 0 0 5 5h43.29a5 5 0 0 0 5-5v-10.87a5 5 0 0 0-5-5h-27.52v-6.21h27.52a5 5 0 0 0 5-5v-10.78a5 5 0 0 0-5-5h-27.52v-6.3h27.52a5 5 0 0 0 5-5v-10.87a5 5 0 0 0-5-5zm83.8 4.97l-32.51 65-32.51-65H2460l20.43 40.76 20.43-40.76H2513m0-5h-12.09a5 5 0 0 0-4.47 2.76l-16 31.84-16-31.84a5 5 0 0 0-4.47-2.76h-12.09a5 5 0 0 0-4.47 7.24l32.51 65a5 5 0 0 0 8.94 0l32.44-64.88a5 5 0 0 0-4.39-7.38zm0 10zm62-5v10.87h-32.51v16.3H2575v10.78h-32.51v16.21H2575v10.87h-43.3v-65h43.3m0-5h-43.3a5 5 0 0 0-5 5v65a5 5 0 0 0 5 5h43.3a5 5 0 0 0 5-5v-10.87a5 5 0 0 0-5-5h-27.51v-6.21H2575a5 5 0 0 0 5-5v-10.78a5 5 0 0 0-5-5h-27.51v-6.3H2575a5 5 0 0 0 5-5v-10.87a5 5 0 0 0-5-5zm29.51 4.97v54.16H2637v10.87h-43.29v-65h10.78m0-5h-10.78a5 5 0 0 0-5 5v65a5 5 0 0 0 5 5H2637a5 5 0 0 0 5-5v-10.87a5 5 0 0 0-5-5h-27.52v-49.16a5 5 0 0 0-5-5zm76.1 4.97a32.79 32.79 0 0 1 32.61 32.51 30.76 30.76 0 0 1-9.65 23 32.47 32.47 0 1 1-23-55.47m0 54.16a21.67 21.67 0 1 0-21.64-21.65 21.44 21.44 0 0 0 21.64 21.65m0-59.16a35.87 35.87 0 0 0-26.53 11.06 37.47 37.47 0 1 0 53 53 35.72 35.72 0 0 0 11.13-26.51 37.79 37.79 0 0 0-37.61-37.51zm-11.83 25.78a16.18 16.18 0 0 1 11.83-4.91 16.76 16.76 0 0 1 16.64 16.64 16.64 16.64 0 1 1-28.48-11.74zm95.74-20.82a21.76 21.76 0 0 1 21.64 21.74 21.6 21.6 0 0 1-21.64 21.65h-21.74v21.64h-10.78v-65h32.52m-21.74 32.51h21.74a10.88 10.88 0 0 0 10.78-10.78 10.48 10.48 0 0 0-3.19-7.68 10.37 10.37 0 0 0-7.59-3.19h-21.74v21.64m21.74-37.51h-32.52a5 5 0 0 0-5 5v65a5 5 0 0 0 5 5h10.78a5 5 0 0 0 5-5v-16.64h16.74a25.92 25.92 0 0 0 18.78-7.72l.05-.05a26.71 26.71 0 0 0 0-37.78 25.76 25.76 0 0 0-18.81-7.84zm-16.74 20.87h16.74a5.37 5.37 0 0 1 4.06 1.72 5.47 5.47 0 0 1 1.72 4.15 5.88 5.88 0 0 1-5.78 5.78h-16.74v-11.64zm100.41-15.89v10.87h-32.52v16.3h32.52v10.78h-32.52v16.21h32.52v10.87h-43.29v-65h43.29m0-5h-43.29a5 5 0 0 0-5 5v65a5 5 0 0 0 5 5h43.29a5 5 0 0 0 5-5v-10.87a5 5 0 0 0-5-5h-27.52v-6.21h27.52a5 5 0 0 0 5-5v-10.78a5 5 0 0 0-5-5h-27.52v-6.3h27.52a5 5 0 0 0 5-5v-10.87a5 5 0 0 0-5-5zm51.25 4.97a21.68 21.68 0 0 1 8.25 41.7l13.4 23.33h-12.46l-12.57-21.65h-18.37v21.64h-10.78v-65h32.51m0 32.51a10.37 10.37 0 0 0 7.64-3.22 10.82 10.82 0 0 0-7.59-18.46h-21.74v21.55l21.74.09m0-37.51h-32.51a5 5 0 0 0-5 5v65a5 5 0 0 0 5 5h10.78a5 5 0 0 0 5-5v-16.64h10.49l11.11 19.15a5 5 0 0 0 4.32 2.49h12.4a5 5 0 0 0 4.34-7.49l-10.85-18.9a26.75 26.75 0 0 0 6.79-6.88 26.67 26.67 0 0 0-21.92-41.76zm-16.74 20.87h16.74a5.88 5.88 0 0 1 5.78 5.78 5.47 5.47 0 0 1-1.72 4.15 5.36 5.36 0 0 1-4 1.72l-16.75-.07v-11.57z" transform="translate(-2019.98 -1991.69)"/></svg>