<svg id="Layer_1" data-name="Layer 1" xmlns="http://www.w3.org/2000/svg" viewBox="0 0 115 115"><defs><style>.cls-1{opacity:.35}.cls-2{fill:#052f5f}.cls-3,.cls-6{fill:#ffd447}.cls-4{fill:none}.cls-4,.cls-6,.cls-7{stroke:#052f5f;stroke-linecap:round;stroke-linejoin:round;stroke-width:4px}.cls-5{fill:#1be0db}.cls-7{fill:#fff}</style></defs><title>web-developer-certificate</title><circle class="cls-1 cls-2" cx="57.5" cy="57.5" r="57.5"/><path class="cls-3" d="M2365.36 2650.46l-4.29-3.58s-5.14 3.58-5.19 4.19c0 .05 0 0-.09 0v29.34l6.48-5.61 3.92 3.46v-28.73z" transform="translate(-2304.5 -2581.22)"/><path class="cls-3" d="M2352.69 2645.21l-4.79 2.13v8.32l.21 31.4 7.69-6.66v-29.34c-.5-.47-3.11-5.85-3.11-5.85z" transform="translate(-2304.5 -2581.22)"/><path class="cls-3" d="M71.47 65.92l-6.42-1.4-3.36 3.79v28.73l8.32 7.35 1.46-38.47z"/><path class="cls-4" d="M44.26 66.33v40.76l13.52-13.51 12.47 12.47V66.47"/><path class="cls-5" d="M46.58 61.2l4.86 8.04 5.14-3.57 4.92 4.5 5.6-8.69-10.67 1.39-9.85-1.67z"/><path class="cls-6" d="M69.98 66.67l-4.93-2.15-3.55 5.65-4.92-4.5-5.2 4.18-3.19-5.86-6.27 2.28-1.12-6.58-6.67.11 1.08-6.58-6.35-2.06 3.16-5.87-5.34-4.01 4.9-4.53-3.74-5.52 6.1-2.7-1.75-6.44 6.64-.57.44-6.66 6.47 1.62 2.58-6.16 5.59 3.64 4.44-4.99 4.11 5.25 5.81-3.27 2.19 6.3 6.56-1.21.02 6.67 6.6.99-2.15 6.31 5.92 3.08-4.08 5.27 4.6 4.83-5.57 3.67 2.78 6.06-6.46 1.66.66 6.64-6.65-.53-1.52 6.49-1.19-.51"/><circle class="cls-7" cx="57.26" cy="39.58" r="20.32"/><path class="cls-4" d="M2373.37 2630.3a15 15 0 0 1-18 4.08" transform="translate(-2304.5 -2581.22)"/><path class="cls-4" d="M65.21 72.45v21.48"/></svg>